<svg version="1.1" xmlns="http://www.w3.org/2000/svg" xmlns:xlink="http://www.w3.org/1999/xlink" width="868.6044921875" height="1192"><defs/><g><g transform="translate(-294,-142) scale(1,1)"><rect fill="#C0C0C0" stroke="none" x="631" y="887" width="138.6953125" height="87" opacity="0.2"/></g><g transform="translate(-294,-142) scale(1,1)"><rect fill="#ffffff" stroke="none" x="624" y="880" width="138.6953125" height="87"/></g><g transform="translate(-294,-142) scale(1,1)"><path fill="none" stroke="#000000" d="M 624 880 L 762.6953125 880 L 762.6953125 967 L 624 967 L 624 880 Z Z" stroke-miterlimit="10"/></g><g transform="translate(-294,-142) scale(1,1)"><path fill="none" stroke="#000000" d="M 624 905 L 762.6953125 905" stroke-miterlimit="10"/></g><g transform="translate(-294,-142) scale(1,1)"><path fill="none" stroke="#000000" d="M 624 915 L 762.6953125 915" stroke-miterlimit="10"/></g><g transform="translate(-294,-142) scale(1,1)"><g><path fill="none" stroke="none"/><text fill="#000000" stroke="none" font-family="Arial" font-size="13px" font-style="normal" font-weight="bold" text-decoration="none" x="638.34765625" y="899.5">LogisticRegression</text></g></g><g transform="translate(-294,-142) scale(1,1)"><g><path fill="none" stroke="none"/><text fill="#000000" stroke="none" font-family="Arial" font-size="13px" font-style="normal" font-weight="normal" text-decoration="none" x="629" y="932.5">+fit()</text></g></g><g transform="translate(-294,-142) scale(1,1)"><g><path fill="none" stroke="none"/><text fill="#000000" stroke="none" font-family="Arial" font-size="13px" font-style="normal" font-weight="normal" text-decoration="none" x="629" y="947.5">+predict_proba()</text></g></g><g transform="translate(-294,-142) scale(1,1)"><g><path fill="none" stroke="none"/><text fill="#000000" stroke="none" font-family="Arial" font-size="13px" font-style="normal" font-weight="normal" text-decoration="none" x="629" y="962.5">+predict_log_proba()</text></g></g><g transform="translate(-294,-142) scale(1,1)"><rect fill="#C0C0C0" stroke="none" x="311" y="607" width="139.64111328125" height="87" opacity="0.2"/></g><g transform="translate(-294,-142) scale(1,1)"><rect fill="#ffffff" stroke="none" x="304" y="600" width="139.64111328125" height="87"/></g><g transform="translate(-294,-142) scale(1,1)"><path fill="none" stroke="#000000" d="M 304 600 L 443.64111328125 600 L 443.64111328125 687 L 304 687 L 304 600 Z Z" stroke-miterlimit="10"/></g><g transform="translate(-294,-142) scale(1,1)"><path fill="none" stroke="#000000" d="M 304 625 L 443.64111328125 625" stroke-miterlimit="10"/></g><g transform="translate(-294,-142) scale(1,1)"><path fill="none" stroke="#000000" d="M 304 635 L 443.64111328125 635" stroke-miterlimit="10"/></g><g transform="translate(-294,-142) scale(1,1)"><g><path fill="none" stroke="none"/><text fill="#000000" stroke="none" font-family="Arial" font-size="13px" font-style="normal" font-weight="bold" text-decoration="none" x="330.820556640625" y="619.5">BaseEstimator</text></g></g><g transform="translate(-294,-142) scale(1,1)"><g><path fill="none" stroke="none"/><text fill="#000000" stroke="none" font-family="Arial" font-size="13px" font-style="normal" font-weight="normal" text-decoration="none" x="309" y="652.5">+get_params()</text></g></g><g transform="translate(-294,-142) scale(1,1)"><g><path fill="none" stroke="none"/><text fill="#000000" stroke="none" font-family="Arial" font-size="13px" font-style="normal" font-weight="normal" text-decoration="none" x="309" y="667.5">+set_params()</text></g></g><g transform="translate(-294,-142) scale(1,1)"><g><path fill="none" stroke="none"/><text fill="#000000" stroke="none" font-family="Arial" font-size="13px" font-style="normal" font-weight="normal" text-decoration="none" x="309" y="682.5">-get_param_names()</text></g></g><g transform="translate(-294,-142) scale(1,1)"><rect fill="#C0C0C0" stroke="none" x="543" y="607" width="150.171875" height="87" opacity="0.2"/></g><g transform="translate(-294,-142) scale(1,1)"><rect fill="#ffffff" stroke="none" x="536" y="600" width="150.171875" height="87"/></g><g transform="translate(-294,-142) scale(1,1)"><path fill="none" stroke="#000000" d="M 536 600 L 686.171875 600 L 686.171875 687 L 536 687 L 536 600 Z Z" stroke-miterlimit="10"/></g><g transform="translate(-294,-142) scale(1,1)"><path fill="none" stroke="#000000" d="M 536 625 L 686.171875 625" stroke-miterlimit="10"/></g><g transform="translate(-294,-142) scale(1,1)"><path fill="none" stroke="#000000" d="M 536 635 L 686.171875 635" stroke-miterlimit="10"/></g><g transform="translate(-294,-142) scale(1,1)"><g><path fill="none" stroke="none"/><text fill="#000000" stroke="none" font-family="Arial" font-size="13px" font-style="normal" font-weight="bold" text-decoration="none" x="551.0859375" y="619.5">LinearClassifierMixin</text></g></g><g transform="translate(-294,-142) scale(1,1)"><g><path fill="none" stroke="none"/><text fill="#000000" stroke="none" font-family="Arial" font-size="13px" font-style="normal" font-weight="normal" text-decoration="none" x="541" y="652.5">+decision_function()</text></g></g><g transform="translate(-294,-142) scale(1,1)"><g><path fill="none" stroke="none"/><text fill="#000000" stroke="none" font-family="Arial" font-size="13px" font-style="normal" font-weight="normal" text-decoration="none" x="541" y="667.5">+predict()</text></g></g><g transform="translate(-294,-142) scale(1,1)"><g><path fill="none" stroke="none"/><text fill="#000000" stroke="none" font-family="Arial" font-size="13px" font-style="normal" font-weight="normal" text-decoration="none" x="541" y="682.5">-predict_proba_lr()</text></g></g><g transform="translate(-294,-142) scale(1,1)"><rect fill="#C0C0C0" stroke="none" x="775" y="615" width="148.7978515625" height="57" opacity="0.2"/></g><g transform="translate(-294,-142) scale(1,1)"><rect fill="#ffffff" stroke="none" x="768" y="608" width="148.7978515625" height="57"/></g><g transform="translate(-294,-142) scale(1,1)"><path fill="none" stroke="#000000" d="M 768 608 L 916.7978515625 608 L 916.7978515625 665 L 768 665 L 768 608 Z Z" stroke-miterlimit="10"/></g><g transform="translate(-294,-142) scale(1,1)"><path fill="none" stroke="#000000" d="M 768 633 L 916.7978515625 633" stroke-miterlimit="10"/></g><g transform="translate(-294,-142) scale(1,1)"><path fill="none" stroke="#000000" d="M 768 643 L 916.7978515625 643" stroke-miterlimit="10"/></g><g transform="translate(-294,-142) scale(1,1)"><g><path fill="none" stroke="none"/><text fill="#000000" stroke="none" font-family="Arial" font-size="13px" font-style="normal" font-weight="bold" text-decoration="none" x="781.39892578125" y="627.5">_LearntSelectorMixin</text></g></g><g transform="translate(-294,-142) scale(1,1)"><g><path fill="none" stroke="none"/><text fill="#000000" stroke="none" font-family="Arial" font-size="13px" font-style="normal" font-weight="normal" text-decoration="none" x="773" y="660.5">+transform()</text></g></g><g transform="translate(-294,-142) scale(1,1)"><rect fill="#C0C0C0" stroke="none" x="1039" y="615" width="120.6044921875" height="72" opacity="0.2"/></g><g transform="translate(-294,-142) scale(1,1)"><rect fill="#ffffff" stroke="none" x="1032" y="608" width="120.6044921875" height="72"/></g><g transform="translate(-294,-142) scale(1,1)"><path fill="none" stroke="#000000" d="M 1032 608 L 1152.6044921875 608 L 1152.6044921875 680 L 1032 680 L 1032 608 Z Z" stroke-miterlimit="10"/></g><g transform="translate(-294,-142) scale(1,1)"><path fill="none" stroke="#000000" d="M 1032 633 L 1152.6044921875 633" stroke-miterlimit="10"/></g><g transform="translate(-294,-142) scale(1,1)"><path fill="none" stroke="#000000" d="M 1032 643 L 1152.6044921875 643" stroke-miterlimit="10"/></g><g transform="translate(-294,-142) scale(1,1)"><g><path fill="none" stroke="none"/><text fill="#000000" stroke="none" font-family="Arial" font-size="13px" font-style="normal" font-weight="bold" text-decoration="none" x="1042.80224609375" y="627.5">SparseCoefMixin</text></g></g><g transform="translate(-294,-142) scale(1,1)"><g><path fill="none" stroke="none"/><text fill="#000000" stroke="none" font-family="Arial" font-size="13px" font-style="normal" font-weight="normal" text-decoration="none" x="1037" y="660.5">+densify()</text></g></g><g transform="translate(-294,-142) scale(1,1)"><g><path fill="none" stroke="none"/><text fill="#000000" stroke="none" font-family="Arial" font-size="13px" font-style="normal" font-weight="normal" text-decoration="none" x="1037" y="675.5">+sparsify()</text></g></g><g transform="translate(-294,-142) scale(1,1)"><rect fill="#C0C0C0" stroke="none" x="815" y="159" width="50.05029296875" height="44" opacity="0.2"/></g><g transform="translate(-294,-142) scale(1,1)"><rect fill="#ffffff" stroke="none" x="808" y="152" width="50.05029296875" height="44"/></g><g transform="translate(-294,-142) scale(1,1)"><path fill="none" stroke="#000000" d="M 808 152 L 858.05029296875 152 L 858.05029296875 196 L 808 196 L 808 152 Z Z" stroke-miterlimit="10"/></g><g transform="translate(-294,-142) scale(1,1)"><path fill="none" stroke="#000000" d="M 808 177 L 858.05029296875 177" stroke-miterlimit="10"/></g><g transform="translate(-294,-142) scale(1,1)"><path fill="none" stroke="#000000" d="M 808 187 L 858.05029296875 187" stroke-miterlimit="10"/></g><g transform="translate(-294,-142) scale(1,1)"><g><path fill="none" stroke="none"/><text fill="#000000" stroke="none" font-family="Arial" font-size="13px" font-style="normal" font-weight="bold" text-decoration="none" x="815.525146484375" y="171.5">object</text></g></g><g transform="translate(-294,-142) scale(1,1)"><path fill="none" stroke="#000000" d="M 416 599 L 810 197" stroke-miterlimit="10"/></g><g transform="translate(-294,-142) scale(1,1)"><path fill="#FFFFFF" stroke="none" d="M 801.7856542044758 217.40893243537138 L 810 197 L 789.7602858631444 205.62287490680285"/></g><g transform="translate(-294,-142) scale(1,1)"><path fill="none" stroke="#000000" d="M 801.7856542044758 217.40893243537138 L 810 197 L 789.7602858631444 205.62287490680285 L 801.7856542044758 217.40893243537138" stroke-miterlimit="10"/></g><g transform="translate(-294,-142) scale(1,1)"><path fill="none" stroke="#000000" d="M 643 879 L 424 688" stroke-miterlimit="10"/></g><g transform="translate(-294,-142) scale(1,1)"><path fill="#FFFFFF" stroke="none" d="M 444.8517396860027 695.0146241572289 L 424 688 L 433.7843182224576 707.7044948405608"/></g><g transform="translate(-294,-142) scale(1,1)"><path fill="none" stroke="#000000" d="M 444.8517396860027 695.0146241572289 L 424 688 L 433.7843182224576 707.7044948405608 L 444.8517396860027 695.0146241572289" stroke-miterlimit="10"/></g><g transform="translate(-294,-142) scale(1,1)"><path fill="none" stroke="#000000" d="M 680 879 L 624 688" stroke-miterlimit="10"/></g><g transform="translate(-294,-142) scale(1,1)"><path fill="#FFFFFF" stroke="none" d="M 637.7974912052944 705.1356131037038 L 624 688 L 621.6395913692074 709.8730078200434"/></g><g transform="translate(-294,-142) scale(1,1)"><path fill="none" stroke="#000000" d="M 637.7974912052944 705.1356131037038 L 624 688 L 621.6395913692074 709.8730078200434 L 637.7974912052944 705.1356131037038" stroke-miterlimit="10"/></g><g transform="translate(-294,-142) scale(1,1)"><path fill="none" stroke="#000000" d="M 716 879 L 826 666" stroke-miterlimit="10"/></g><g transform="translate(-294,-142) scale(1,1)"><path fill="#FFFFFF" stroke="none" d="M 824.154008361353 687.9224158082554 L 826 666 L 809.1931979162905 680.1961756723076"/></g><g transform="translate(-294,-142) scale(1,1)"><path fill="none" stroke="#000000" d="M 824.154008361353 687.9224158082554 L 826 666 L 809.1931979162905 680.1961756723076 L 824.154008361353 687.9224158082554" stroke-miterlimit="10"/></g><g transform="translate(-294,-142) scale(1,1)"><path fill="none" stroke="#000000" d="M 756 879 L 1039 681" stroke-miterlimit="10"/></g><g transform="translate(-294,-142) scale(1,1)"><path fill="#FFFFFF" stroke="none" d="M 1027.1724242837984 699.5501604488348 L 1039 681 L 1017.5196967606068 685.753585251546"/></g><g transform="translate(-294,-142) scale(1,1)"><path fill="none" stroke="#000000" d="M 1027.1724242837984 699.5501604488348 L 1039 681 L 1017.5196967606068 685.753585251546 L 1027.1724242837984 699.5501604488348" stroke-miterlimit="10"/></g><g transform="translate(-294,-142) scale(1,1)"><rect fill="#C0C0C0" stroke="none" x="599" y="463" width="110.07373046875" height="70" opacity="0.2"/></g><g transform="translate(-294,-142) scale(1,1)"><rect fill="#ffffff" stroke="none" x="592" y="456" width="110.07373046875" height="70"/></g><g transform="translate(-294,-142) scale(1,1)"><path fill="none" stroke="#000000" d="M 592 456 L 702.07373046875 456 L 702.07373046875 526 L 592 526 L 592 456 Z Z" stroke-miterlimit="10"/></g><g transform="translate(-294,-142) scale(1,1)"><path fill="none" stroke="#000000" d="M 592 481 L 702.07373046875 481" stroke-miterlimit="10"/></g><g transform="translate(-294,-142) scale(1,1)"><path fill="none" stroke="#000000" d="M 592 504 L 702.07373046875 504" stroke-miterlimit="10"/></g><g transform="translate(-294,-142) scale(1,1)"><g><path fill="none" stroke="none"/><text fill="#000000" stroke="none" font-family="Arial" font-size="13px" font-style="normal" font-weight="bold" text-decoration="none" x="604.536865234375" y="475.5">ClassifierMixin</text></g></g><g transform="translate(-294,-142) scale(1,1)"><g><path fill="none" stroke="none"/><text fill="#000000" stroke="none" font-family="Arial" font-size="13px" font-style="normal" font-weight="normal" text-decoration="none" x="597" y="498.5">-estimator_type</text></g></g><g transform="translate(-294,-142) scale(1,1)"><g><path fill="none" stroke="none"/><text fill="#000000" stroke="none" font-family="Arial" font-size="13px" font-style="normal" font-weight="normal" text-decoration="none" x="597" y="521.5">+score()</text></g></g><g transform="translate(-294,-142) scale(1,1)"><path fill="none" stroke="#000000" d="M 621 599 L 638 527" stroke-miterlimit="10"/></g><g transform="translate(-294,-142) scale(1,1)"><path fill="#FFFFFF" stroke="none" d="M 641.5231221098401 548.716068028056 L 638 527 L 625.1356445714694 544.8468024981629"/></g><g transform="translate(-294,-142) scale(1,1)"><path fill="none" stroke="#000000" d="M 641.5231221098401 548.716068028056 L 638 527 L 625.1356445714694 544.8468024981629 L 641.5231221098401 548.716068028056" stroke-miterlimit="10"/></g><g transform="translate(-294,-142) scale(1,1)"><path fill="none" stroke="#000000" d="M 668 455 L 820 197" stroke-miterlimit="10"/></g><g transform="translate(-294,-142) scale(1,1)"><path fill="#FFFFFF" stroke="none" d="M 816.9365377448061 218.78566498895552 L 820 197 L 802.4290136190946 210.23859651179214"/></g><g transform="translate(-294,-142) scale(1,1)"><path fill="none" stroke="#000000" d="M 816.9365377448061 218.78566498895552 L 820 197 L 802.4290136190946 210.23859651179214 L 816.9365377448061 218.78566498895552" stroke-miterlimit="10"/></g><g transform="translate(-294,-142) scale(1,1)"><rect fill="#C0C0C0" stroke="none" x="783" y="431" width="129.6181640625" height="57" opacity="0.2"/></g><g transform="translate(-294,-142) scale(1,1)"><rect fill="#ffffff" stroke="none" x="776" y="424" width="129.6181640625" height="57"/></g><g transform="translate(-294,-142) scale(1,1)"><path fill="none" stroke="#000000" d="M 776 424 L 905.6181640625 424 L 905.6181640625 481 L 776 481 L 776 424 Z Z" stroke-miterlimit="10"/></g><g transform="translate(-294,-142) scale(1,1)"><path fill="none" stroke="#000000" d="M 776 449 L 905.6181640625 449" stroke-miterlimit="10"/></g><g transform="translate(-294,-142) scale(1,1)"><path fill="none" stroke="#000000" d="M 776 459 L 905.6181640625 459" stroke-miterlimit="10"/></g><g transform="translate(-294,-142) scale(1,1)"><g><path fill="none" stroke="none"/><text fill="#000000" stroke="none" font-family="Arial" font-size="13px" font-style="normal" font-weight="bold" text-decoration="none" x="790.30908203125" y="443.5">TransformerMixin</text></g></g><g transform="translate(-294,-142) scale(1,1)"><g><path fill="none" stroke="none"/><text fill="#000000" stroke="none" font-family="Arial" font-size="13px" font-style="normal" font-weight="normal" text-decoration="none" x="781" y="476.5">+fit_transform()</text></g></g><g transform="translate(-294,-142) scale(1,1)"><path fill="none" stroke="#000000" d="M 842 607 L 840 482" stroke-miterlimit="10"/></g><g transform="translate(-294,-142) scale(1,1)"><path fill="#FFFFFF" stroke="none" d="M 848.7431220594668 502.1880612405764 L 840 482 L 831.9072058947697 502.4574358992116"/></g><g transform="translate(-294,-142) scale(1,1)"><path fill="none" stroke="#000000" d="M 848.7431220594668 502.1880612405764 L 840 482 L 831.9072058947697 502.4574358992116 L 848.7431220594668 502.1880612405764" stroke-miterlimit="10"/></g><g transform="translate(-294,-142) scale(1,1)"><path fill="none" stroke="#000000" d="M 839 423 L 834 197" stroke-miterlimit="10"/></g><g transform="translate(-294,-142) scale(1,1)"><path fill="#FFFFFF" stroke="none" d="M 842.866541717795 217.1341609700181 L 834 197 L 826.032590018925 217.5065935297276"/></g><g transform="translate(-294,-142) scale(1,1)"><path fill="none" stroke="#000000" d="M 842.866541717795 217.1341609700181 L 834 197 L 826.032590018925 217.5065935297276 L 842.866541717795 217.1341609700181" stroke-miterlimit="10"/></g><g transform="translate(-294,-142) scale(1,1)"><path fill="none" stroke="#000000" d="M 1072 607 L 846 197" stroke-miterlimit="10"/></g><g transform="translate(-294,-142) scale(1,1)"><path fill="#FFFFFF" stroke="none" d="M 863.1849217218115 210.73602800722284 L 846 197 L 848.4387361331773 218.86441323412853"/></g><g transform="translate(-294,-142) scale(1,1)"><path fill="none" stroke="#000000" d="M 863.1849217218115 210.73602800722284 L 846 197 L 848.4387361331773 218.86441323412853 L 863.1849217218115 210.73602800722284" stroke-miterlimit="10"/></g><g transform="translate(-294,-142) scale(1,1)"><rect fill="#C0C0C0" stroke="none" x="951" y="983" width="102.21533203125" height="60" opacity="0.2"/></g><g transform="translate(-294,-142) scale(1,1)"><rect fill="#ffffff" stroke="none" x="944" y="976" width="102.21533203125" height="60"/></g><g transform="translate(-294,-142) scale(1,1)"><path fill="none" stroke="#000000" d="M 944 976 L 1046.21533203125 976 L 1046.21533203125 1036 L 944 1036 L 944 976 Z Z" stroke-miterlimit="10"/></g><g transform="translate(-294,-142) scale(1,1)"><path fill="none" stroke="#000000" d="M 944 1014 L 1046.21533203125 1014" stroke-miterlimit="10"/></g><g transform="translate(-294,-142) scale(1,1)"><g><path fill="none" stroke="none"/><text fill="#000000" stroke="none" font-family="Arial" font-size="13px" font-style="normal" font-weight="normal" text-decoration="none" x="961.107666015625" y="993.5">«dataType»</text></g></g><g transform="translate(-294,-142) scale(1,1)"><g><path fill="none" stroke="none"/><text fill="#000000" stroke="none" font-family="Arial" font-size="13px" font-style="normal" font-weight="bold" text-decoration="none" x="972.107666015625" y="1008.5">base.py</text></g></g><g transform="translate(-294,-142) scale(1,1)"><g><path fill="none" stroke="none"/><text fill="#000000" stroke="none" font-family="Arial" font-size="13px" font-style="normal" font-weight="normal" text-decoration="none" x="949" y="1031.5">+_fit_liblinear()</text></g></g><g transform="translate(-294,-142) scale(1,1)"><rect fill="#C0C0C0" stroke="none" x="615" y="1079" width="177.89208984375" height="150" opacity="0.2"/></g><g transform="translate(-294,-142) scale(1,1)"><rect fill="#ffffff" stroke="none" x="608" y="1072" width="177.89208984375" height="150"/></g><g transform="translate(-294,-142) scale(1,1)"><path fill="none" stroke="#000000" d="M 608 1072 L 785.89208984375 1072 L 785.89208984375 1222 L 608 1222 L 608 1072 Z Z" stroke-miterlimit="10"/></g><g transform="translate(-294,-142) scale(1,1)"><path fill="none" stroke="#000000" d="M 608 1110 L 785.89208984375 1110" stroke-miterlimit="10"/></g><g transform="translate(-294,-142) scale(1,1)"><g><path fill="none" stroke="none"/><text fill="#000000" stroke="none" font-family="Arial" font-size="13px" font-style="normal" font-weight="normal" text-decoration="none" x="662.946044921875" y="1089.5">«dataType»</text></g></g><g transform="translate(-294,-142) scale(1,1)"><g><path fill="none" stroke="none"/><text fill="#000000" stroke="none" font-family="Arial" font-size="13px" font-style="normal" font-weight="bold" text-decoration="none" x="667.446044921875" y="1104.5">logistic.py</text></g></g><g transform="translate(-294,-142) scale(1,1)"><g><path fill="none" stroke="none"/><text fill="#000000" stroke="none" font-family="Arial" font-size="13px" font-style="normal" font-weight="normal" text-decoration="none" x="613" y="1127.5">+logistic_regression_path()</text></g></g><g transform="translate(-294,-142) scale(1,1)"><g><path fill="none" stroke="none"/><text fill="#000000" stroke="none" font-family="Arial" font-size="13px" font-style="normal" font-weight="normal" text-decoration="none" x="613" y="1142.5">-check_solver_option()</text></g></g><g transform="translate(-294,-142) scale(1,1)"><g><path fill="none" stroke="none"/><text fill="#000000" stroke="none" font-family="Arial" font-size="13px" font-style="normal" font-weight="normal" text-decoration="none" x="613" y="1157.5">-logistic_loss()</text></g></g><g transform="translate(-294,-142) scale(1,1)"><g><path fill="none" stroke="none"/><text fill="#000000" stroke="none" font-family="Arial" font-size="13px" font-style="normal" font-weight="normal" text-decoration="none" x="613" y="1172.5">-logistic_loss_and_grad()</text></g></g><g transform="translate(-294,-142) scale(1,1)"><g><path fill="none" stroke="none"/><text fill="#000000" stroke="none" font-family="Arial" font-size="13px" font-style="normal" font-weight="normal" text-decoration="none" x="613" y="1187.5">-multinomial_loss()</text></g></g><g transform="translate(-294,-142) scale(1,1)"><g><path fill="none" stroke="none"/><text fill="#000000" stroke="none" font-family="Arial" font-size="13px" font-style="normal" font-weight="normal" text-decoration="none" x="613" y="1202.5">-multinomial_loss_grad()</text></g></g><g transform="translate(-294,-142) scale(1,1)"><g><path fill="none" stroke="none"/><text fill="#000000" stroke="none" font-family="Arial" font-size="13px" font-style="normal" font-weight="normal" text-decoration="none" x="613" y="1217.5">-multinomial_grad_hess()</text></g></g><g transform="translate(-294,-142) scale(1,1)"><rect fill="#C0C0C0" stroke="none" x="959" y="1127" width="92.30029296875" height="60" opacity="0.2"/></g><g transform="translate(-294,-142) scale(1,1)"><rect fill="#ffffff" stroke="none" x="952" y="1120" width="92.30029296875" height="60"/></g><g transform="translate(-294,-142) scale(1,1)"><path fill="none" stroke="#000000" d="M 952 1120 L 1044.30029296875 1120 L 1044.30029296875 1180 L 952 1180 L 952 1120 Z Z" stroke-miterlimit="10"/></g><g transform="translate(-294,-142) scale(1,1)"><path fill="none" stroke="#000000" d="M 952 1158 L 1044.30029296875 1158" stroke-miterlimit="10"/></g><g transform="translate(-294,-142) scale(1,1)"><g><path fill="none" stroke="none"/><text fill="#000000" stroke="none" font-family="Arial" font-size="13px" font-style="normal" font-weight="normal" text-decoration="none" x="964.150146484375" y="1137.5">«dataType»</text></g></g><g transform="translate(-294,-142) scale(1,1)"><g><path fill="none" stroke="none"/><text fill="#000000" stroke="none" font-family="Arial" font-size="13px" font-style="normal" font-weight="bold" text-decoration="none" x="964.650146484375" y="1152.5">optimize.py</text></g></g><g transform="translate(-294,-142) scale(1,1)"><g><path fill="none" stroke="none"/><text fill="#000000" stroke="none" font-family="Arial" font-size="13px" font-style="normal" font-weight="normal" text-decoration="none" x="957" y="1175.5">+newton_cg()</text></g></g><g transform="translate(-294,-142) scale(1,1)"><rect fill="#C0C0C0" stroke="none" x="959" y="1271" width="90.86572265625" height="60" opacity="0.2"/></g><g transform="translate(-294,-142) scale(1,1)"><rect fill="#ffffff" stroke="none" x="952" y="1264" width="90.86572265625" height="60"/></g><g transform="translate(-294,-142) scale(1,1)"><path fill="none" stroke="#000000" d="M 952 1264 L 1042.86572265625 1264 L 1042.86572265625 1324 L 952 1324 L 952 1264 Z Z" stroke-miterlimit="10"/></g><g transform="translate(-294,-142) scale(1,1)"><path fill="none" stroke="#000000" d="M 952 1302 L 1042.86572265625 1302" stroke-miterlimit="10"/></g><g transform="translate(-294,-142) scale(1,1)"><g><path fill="none" stroke="none"/><text fill="#000000" stroke="none" font-family="Arial" font-size="13px" font-style="normal" font-weight="normal" text-decoration="none" x="963.432861328125" y="1281.5">«dataType»</text></g></g><g transform="translate(-294,-142) scale(1,1)"><g><path fill="none" stroke="none"/><text fill="#000000" stroke="none" font-family="Arial" font-size="13px" font-style="normal" font-weight="bold" text-decoration="none" x="977.932861328125" y="1296.5">sag.py</text></g></g><g transform="translate(-294,-142) scale(1,1)"><g><path fill="none" stroke="none"/><text fill="#000000" stroke="none" font-family="Arial" font-size="13px" font-style="normal" font-weight="normal" text-decoration="none" x="957" y="1319.5">+sag_solver()</text></g></g><g transform="translate(-294,-142) scale(1,1)"><path fill="none" stroke="#000000" d="M 694 968 L 695 1071" stroke-miterlimit="10"/></g><g transform="translate(-294,-142) scale(1,1)"><path fill="none" stroke="#000000" d="M 690.6920185272949 1060.8786712517165 L 695 1071 L 699.1106572799538 1060.7969368948945" stroke-miterlimit="10"/></g><g transform="translate(-294,-142) scale(1,1)"><path fill="none" stroke="#000000" d="M 787 1104 L 943 1031" stroke-miterlimit="10"/></g><g transform="translate(-294,-142) scale(1,1)"><path fill="none" stroke="#000000" d="M 935.5794395764921 1039.1200543718048 L 943 1031 L 932.0111258944263 1031.4946169142397" stroke-miterlimit="10"/></g><g transform="translate(-294,-142) scale(1,1)"><path fill="none" stroke="#000000" d="M 787 1148 L 951 1150" stroke-miterlimit="10"/></g><g transform="translate(-294,-142) scale(1,1)"><path fill="none" stroke="#000000" d="M 940.7867489941989 1154.0852789246883 L 951 1150 L 940.8894125251521 1145.6668693865233" stroke-miterlimit="10"/></g><g transform="translate(-294,-142) scale(1,1)"><path fill="none" stroke="#000000" d="M 787 1191 L 951 1272" stroke-miterlimit="10"/></g><g transform="translate(-294,-142) scale(1,1)"><path fill="none" stroke="#000000" d="M 940.0239918293415 1271.2738838676646 L 951 1272 L 943.7522318332717 1263.725348551065" stroke-miterlimit="10"/></g></g></svg>