<svg version="1.1" xmlns="http://www.w3.org/2000/svg" xmlns:xlink="http://www.w3.org/1999/xlink" width="869.38134765625" height="976"><defs/><g><g transform="translate(-182,-158) scale(1,1)"><rect fill="#C0C0C0" stroke="none" x="271" y="455" width="135.8896484375" height="70" opacity="0.2"/></g><g transform="translate(-182,-158) scale(1,1)"><rect fill="#ffffff" stroke="none" x="264" y="448" width="135.8896484375" height="70"/></g><g transform="translate(-182,-158) scale(1,1)"><path fill="none" stroke="#000000" d="M 264 448 L 399.8896484375 448 L 399.8896484375 518 L 264 518 L 264 448 Z Z" stroke-miterlimit="10"/></g><g transform="translate(-182,-158) scale(1,1)"><path fill="none" stroke="#000000" d="M 264 473 L 399.8896484375 473" stroke-miterlimit="10"/></g><g transform="translate(-182,-158) scale(1,1)"><path fill="none" stroke="#000000" d="M 264 483 L 399.8896484375 483" stroke-miterlimit="10"/></g><g transform="translate(-182,-158) scale(1,1)"><g><path fill="none" stroke="none"/><text fill="#000000" stroke="none" font-family="Arial" font-size="13px" font-style="normal" font-weight="bold" text-decoration="none" x="276.94482421875" y="467.5">LogisticRegression</text></g></g><g transform="translate(-182,-158) scale(1,1)"><g><path fill="none" stroke="none"/><text fill="#000000" stroke="none" font-family="Arial" font-size="13px" font-style="normal" font-weight="normal" text-decoration="none" x="269" y="500.5">+train()</text></g></g><g transform="translate(-182,-158) scale(1,1)"><rect fill="#C0C0C0" stroke="none" x="263" y="295" width="155.70703125" height="44" opacity="0.2"/></g><g transform="translate(-182,-158) scale(1,1)"><rect fill="#ffffff" stroke="none" x="256" y="288" width="155.70703125" height="44"/></g><g transform="translate(-182,-158) scale(1,1)"><path fill="none" stroke="#000000" d="M 256 288 L 411.70703125 288 L 411.70703125 332 L 256 332 L 256 288 Z Z" stroke-miterlimit="10"/></g><g transform="translate(-182,-158) scale(1,1)"><path fill="none" stroke="#000000" d="M 256 313 L 411.70703125 313" stroke-miterlimit="10"/></g><g transform="translate(-182,-158) scale(1,1)"><path fill="none" stroke="#000000" d="M 256 323 L 411.70703125 323" stroke-miterlimit="10"/></g><g transform="translate(-182,-158) scale(1,1)"><g><path fill="none" stroke="none"/><text fill="#000000" stroke="none" font-family="Arial" font-size="13px" font-style="normal" font-weight="bold" text-decoration="none" x="271.353515625" y="307.5">ProbabilisticClassifier</text></g></g><g transform="translate(-182,-158) scale(1,1)"><rect fill="#C0C0C0" stroke="none" x="687" y="175" width="65.18310546875" height="44" opacity="0.2"/></g><g transform="translate(-182,-158) scale(1,1)"><rect fill="#ffffff" stroke="none" x="680" y="168" width="65.18310546875" height="44"/></g><g transform="translate(-182,-158) scale(1,1)"><path fill="none" stroke="#000000" d="M 680 168 L 745.18310546875 168 L 745.18310546875 212 L 680 212 L 680 168 Z Z" stroke-miterlimit="10"/></g><g transform="translate(-182,-158) scale(1,1)"><path fill="none" stroke="#000000" d="M 680 193 L 745.18310546875 193" stroke-miterlimit="10"/></g><g transform="translate(-182,-158) scale(1,1)"><path fill="none" stroke="#000000" d="M 680 203 L 745.18310546875 203" stroke-miterlimit="10"/></g><g transform="translate(-182,-158) scale(1,1)"><g><path fill="none" stroke="none"/><text fill="#000000" stroke="none" font-family="Arial" font-size="13px" font-style="normal" font-weight="bold" text-decoration="none" x="687.591552734375" y="187.5">Instance</text></g></g><g transform="translate(-182,-158) scale(1,1)"><rect fill="#C0C0C0" stroke="none" x="663" y="271" width="116.9228515625" height="44" opacity="0.2"/></g><g transform="translate(-182,-158) scale(1,1)"><rect fill="#ffffff" stroke="none" x="656" y="264" width="116.9228515625" height="44"/></g><g transform="translate(-182,-158) scale(1,1)"><path fill="none" stroke="#000000" d="M 656 264 L 772.9228515625 264 L 772.9228515625 308 L 656 308 L 656 264 Z Z" stroke-miterlimit="10"/></g><g transform="translate(-182,-158) scale(1,1)"><path fill="none" stroke="#000000" d="M 656 289 L 772.9228515625 289" stroke-miterlimit="10"/></g><g transform="translate(-182,-158) scale(1,1)"><path fill="none" stroke="#000000" d="M 656 299 L 772.9228515625 299" stroke-miterlimit="10"/></g><g transform="translate(-182,-158) scale(1,1)"><g><path fill="none" stroke="none"/><text fill="#000000" stroke="none" font-family="Arial" font-size="13px" font-style="normal" font-weight="bold" text-decoration="none" x="669.46142578125" y="283.5">Instrumentation</text></g></g><g transform="translate(-182,-158) scale(1,1)"><rect fill="#C0C0C0" stroke="none" x="663" y="375" width="213.09619140625" height="44" opacity="0.2"/></g><g transform="translate(-182,-158) scale(1,1)"><rect fill="#ffffff" stroke="none" x="656" y="368" width="213.09619140625" height="44"/></g><g transform="translate(-182,-158) scale(1,1)"><path fill="none" stroke="#000000" d="M 656 368 L 869.09619140625 368 L 869.09619140625 412 L 656 412 L 656 368 Z Z" stroke-miterlimit="10"/></g><g transform="translate(-182,-158) scale(1,1)"><path fill="none" stroke="#000000" d="M 656 393 L 869.09619140625 393" stroke-miterlimit="10"/></g><g transform="translate(-182,-158) scale(1,1)"><path fill="none" stroke="#000000" d="M 656 403 L 869.09619140625 403" stroke-miterlimit="10"/></g><g transform="translate(-182,-158) scale(1,1)"><g><path fill="none" stroke="none"/><text fill="#000000" stroke="none" font-family="Arial" font-size="13px" font-style="normal" font-weight="bold" text-decoration="none" x="675.548095703125" y="387.5">MultivariateOnlineSummarizer</text></g></g><g transform="translate(-182,-158) scale(1,1)"><rect fill="#C0C0C0" stroke="none" x="663" y="495" width="159.05859375" height="44" opacity="0.2"/></g><g transform="translate(-182,-158) scale(1,1)"><rect fill="#ffffff" stroke="none" x="656" y="488" width="159.05859375" height="44"/></g><g transform="translate(-182,-158) scale(1,1)"><path fill="none" stroke="#000000" d="M 656 488 L 815.05859375 488 L 815.05859375 532 L 656 532 L 656 488 Z Z" stroke-miterlimit="10"/></g><g transform="translate(-182,-158) scale(1,1)"><path fill="none" stroke="#000000" d="M 656 513 L 815.05859375 513" stroke-miterlimit="10"/></g><g transform="translate(-182,-158) scale(1,1)"><path fill="none" stroke="#000000" d="M 656 523 L 815.05859375 523" stroke-miterlimit="10"/></g><g transform="translate(-182,-158) scale(1,1)"><g><path fill="none" stroke="none"/><text fill="#000000" stroke="none" font-family="Arial" font-size="13px" font-style="normal" font-weight="bold" text-decoration="none" x="670.029296875" y="507.5">MultiClassSummarizer</text></g></g><g transform="translate(-182,-158) scale(1,1)"><rect fill="#C0C0C0" stroke="none" x="679" y="599" width="121.86767578125" height="57" opacity="0.2"/></g><g transform="translate(-182,-158) scale(1,1)"><rect fill="#ffffff" stroke="none" x="672" y="592" width="121.86767578125" height="57"/></g><g transform="translate(-182,-158) scale(1,1)"><path fill="none" stroke="#000000" d="M 672 592 L 793.86767578125 592 L 793.86767578125 649 L 672 649 L 672 592 Z Z" stroke-miterlimit="10"/></g><g transform="translate(-182,-158) scale(1,1)"><path fill="none" stroke="#000000" d="M 672 617 L 793.86767578125 617" stroke-miterlimit="10"/></g><g transform="translate(-182,-158) scale(1,1)"><path fill="none" stroke="#000000" d="M 672 627 L 793.86767578125 627" stroke-miterlimit="10"/></g><g transform="translate(-182,-158) scale(1,1)"><g><path fill="none" stroke="none"/><text fill="#000000" stroke="none" font-family="Arial" font-size="13px" font-style="normal" font-weight="bold" text-decoration="none" x="692.933837890625" y="611.5">MetadataUtils</text></g></g><g transform="translate(-182,-158) scale(1,1)"><g><path fill="none" stroke="none"/><text fill="#000000" stroke="none" font-family="Arial" font-size="13px" font-style="normal" font-weight="normal" text-decoration="none" x="677" y="644.5">+getNumClasses()</text></g></g><g transform="translate(-182,-158) scale(1,1)"><rect fill="#C0C0C0" stroke="none" x="695" y="1023" width="116.15478515625" height="57" opacity="0.2"/></g><g transform="translate(-182,-158) scale(1,1)"><rect fill="#ffffff" stroke="none" x="688" y="1016" width="116.15478515625" height="57"/></g><g transform="translate(-182,-158) scale(1,1)"><path fill="none" stroke="#000000" d="M 688 1016 L 804.15478515625 1016 L 804.15478515625 1073 L 688 1073 L 688 1016 Z Z" stroke-miterlimit="10"/></g><g transform="translate(-182,-158) scale(1,1)"><path fill="none" stroke="#000000" d="M 688 1041 L 804.15478515625 1041" stroke-miterlimit="10"/></g><g transform="translate(-182,-158) scale(1,1)"><path fill="none" stroke="#000000" d="M 688 1051 L 804.15478515625 1051" stroke-miterlimit="10"/></g><g transform="translate(-182,-158) scale(1,1)"><g><path fill="none" stroke="none"/><text fill="#000000" stroke="none" font-family="Arial" font-size="13px" font-style="normal" font-weight="bold" text-decoration="none" x="699.077392578125" y="1035.5">LogisticCostFun</text></g></g><g transform="translate(-182,-158) scale(1,1)"><g><path fill="none" stroke="none"/><text fill="#000000" stroke="none" font-family="Arial" font-size="13px" font-style="normal" font-weight="normal" text-decoration="none" x="693" y="1068.5">+calculate()</text></g></g><g transform="translate(-182,-158) scale(1,1)"><rect fill="#C0C0C0" stroke="none" x="703" y="807" width="92.10986328125" height="57" opacity="0.2"/></g><g transform="translate(-182,-158) scale(1,1)"><rect fill="#ffffff" stroke="none" x="696" y="800" width="92.10986328125" height="57"/></g><g transform="translate(-182,-158) scale(1,1)"><path fill="none" stroke="#000000" d="M 696 800 L 788.10986328125 800 L 788.10986328125 857 L 696 857 L 696 800 Z Z" stroke-miterlimit="10"/></g><g transform="translate(-182,-158) scale(1,1)"><path fill="none" stroke="#000000" d="M 696 825 L 788.10986328125 825" stroke-miterlimit="10"/></g><g transform="translate(-182,-158) scale(1,1)"><path fill="none" stroke="#000000" d="M 696 835 L 788.10986328125 835" stroke-miterlimit="10"/></g><g transform="translate(-182,-158) scale(1,1)"><g><path fill="none" stroke="none"/><text fill="#000000" stroke="none" font-family="Arial" font-size="13px" font-style="normal" font-weight="bold" text-decoration="none" x="707.054931640625" y="819.5">DiffFunction</text></g></g><g transform="translate(-182,-158) scale(1,1)"><g><path fill="none" stroke="none"/><text fill="#000000" stroke="none" font-family="Arial" font-size="13px" font-style="normal" font-weight="normal" text-decoration="none" x="701" y="852.5">+calculate()</text></g></g><g transform="translate(-182,-158) scale(1,1)"><path fill="none" stroke="#000000" d="M 745 1015 L 743 858" stroke-miterlimit="10"/></g><g transform="translate(-182,-158) scale(1,1)"><path fill="#FFFFFF" stroke="none" d="M 751.6772531276895 878.2164605744429 L 743 858 L 734.8405481648823 878.4309408924404"/></g><g transform="translate(-182,-158) scale(1,1)"><path fill="none" stroke="#000000" d="M 751.6772531276895 878.2164605744429 L 743 858 L 734.8405481648823 878.4309408924404 L 751.6772531276895 878.2164605744429" stroke-miterlimit="10"/></g><g transform="translate(-182,-158) scale(1,1)"><rect fill="#C0C0C0" stroke="none" x="911" y="999" width="137.38134765625" height="100" opacity="0.2"/></g><g transform="translate(-182,-158) scale(1,1)"><rect fill="#ffffff" stroke="none" x="904" y="992" width="137.38134765625" height="100"/></g><g transform="translate(-182,-158) scale(1,1)"><path fill="none" stroke="#000000" d="M 904 992 L 1041.38134765625 992 L 1041.38134765625 1092 L 904 1092 L 904 992 Z Z" stroke-miterlimit="10"/></g><g transform="translate(-182,-158) scale(1,1)"><path fill="none" stroke="#000000" d="M 904 1017 L 1041.38134765625 1017" stroke-miterlimit="10"/></g><g transform="translate(-182,-158) scale(1,1)"><path fill="none" stroke="#000000" d="M 904 1055 L 1041.38134765625 1055" stroke-miterlimit="10"/></g><g transform="translate(-182,-158) scale(1,1)"><g><path fill="none" stroke="none"/><text fill="#000000" stroke="none" font-family="Arial" font-size="13px" font-style="normal" font-weight="bold" text-decoration="none" x="918.690673828125" y="1011.5">LogisticAggregator</text></g></g><g transform="translate(-182,-158) scale(1,1)"><g><path fill="none" stroke="none"/><text fill="#000000" stroke="none" font-family="Arial" font-size="13px" font-style="normal" font-weight="normal" text-decoration="none" x="909" y="1034.5">+gradient</text></g></g><g transform="translate(-182,-158) scale(1,1)"><g><path fill="none" stroke="none"/><text fill="#000000" stroke="none" font-family="Arial" font-size="13px" font-style="normal" font-weight="normal" text-decoration="none" x="909" y="1049.5">+loss</text></g></g><g transform="translate(-182,-158) scale(1,1)"><g><path fill="none" stroke="none"/><text fill="#000000" stroke="none" font-family="Arial" font-size="13px" font-style="normal" font-weight="normal" text-decoration="none" x="909" y="1072.5">+add()</text></g></g><g transform="translate(-182,-158) scale(1,1)"><g><path fill="none" stroke="none"/><text fill="#000000" stroke="none" font-family="Arial" font-size="13px" font-style="normal" font-weight="normal" text-decoration="none" x="909" y="1087.5">+merge()</text></g></g><g transform="translate(-182,-158) scale(1,1)"><path fill="none" stroke="#000000" d="M 903 1043 L 805 1043" stroke-miterlimit="10"/></g><g transform="translate(-182,-158) scale(1,1)"><path fill="#000000" stroke="none" d="M 815.1626748576241 1038.7904822439841 L 805 1043 L 815.1626748576241 1047.2095177560159 L 827 1043"/></g><g transform="translate(-182,-158) scale(1,1)"><path fill="none" stroke="#000000" d="M 815.1626748576241 1038.7904822439841 L 805 1043 L 815.1626748576241 1047.2095177560159 L 827 1043 L 815.1626748576241 1038.7904822439841" stroke-miterlimit="10"/></g><g transform="translate(-182,-158) scale(1,1)"><rect fill="#C0C0C0" stroke="none" x="215" y="983" width="95" height="44" opacity="0.2"/></g><g transform="translate(-182,-158) scale(1,1)"><rect fill="#ffffff" stroke="none" x="208" y="976" width="95" height="44"/></g><g transform="translate(-182,-158) scale(1,1)"><path fill="none" stroke="#000000" d="M 208 976 L 303 976 L 303 1020 L 208 1020 L 208 976 Z Z" stroke-miterlimit="10"/></g><g transform="translate(-182,-158) scale(1,1)"><path fill="none" stroke="#000000" d="M 208 1001 L 303 1001" stroke-miterlimit="10"/></g><g transform="translate(-182,-158) scale(1,1)"><path fill="none" stroke="#000000" d="M 208 1011 L 303 1011" stroke-miterlimit="10"/></g><g transform="translate(-182,-158) scale(1,1)"><g><path fill="none" stroke="none"/><text fill="#000000" stroke="none" font-family="Arial" font-size="13px" font-style="normal" font-weight="bold" text-decoration="none" x="234" y="995.5">LBFGS</text></g></g><g transform="translate(-182,-158) scale(1,1)"><rect fill="#C0C0C0" stroke="none" x="207" y="1087" width="104.34814453125" height="44" opacity="0.2"/></g><g transform="translate(-182,-158) scale(1,1)"><rect fill="#ffffff" stroke="none" x="200" y="1080" width="104.34814453125" height="44"/></g><g transform="translate(-182,-158) scale(1,1)"><path fill="none" stroke="#000000" d="M 200 1080 L 304.34814453125 1080 L 304.34814453125 1124 L 200 1124 L 200 1080 Z Z" stroke-miterlimit="10"/></g><g transform="translate(-182,-158) scale(1,1)"><path fill="none" stroke="#000000" d="M 200 1105 L 304.34814453125 1105" stroke-miterlimit="10"/></g><g transform="translate(-182,-158) scale(1,1)"><path fill="none" stroke="#000000" d="M 200 1115 L 304.34814453125 1115" stroke-miterlimit="10"/></g><g transform="translate(-182,-158) scale(1,1)"><g><path fill="none" stroke="none"/><text fill="#000000" stroke="none" font-family="Arial" font-size="13px" font-style="normal" font-weight="bold" text-decoration="none" x="228.174072265625" y="1099.5">QWLQN</text></g></g><g transform="translate(-182,-158) scale(1,1)"><rect fill="#C0C0C0" stroke="none" x="431" y="1031" width="140.701171875" height="44" opacity="0.2"/></g><g transform="translate(-182,-158) scale(1,1)"><rect fill="#ffffff" stroke="none" x="424" y="1024" width="140.701171875" height="44"/></g><g transform="translate(-182,-158) scale(1,1)"><path fill="none" stroke="#000000" d="M 424 1024 L 564.701171875 1024 L 564.701171875 1068 L 424 1068 L 424 1024 Z Z" stroke-miterlimit="10"/></g><g transform="translate(-182,-158) scale(1,1)"><path fill="none" stroke="#000000" d="M 424 1049 L 564.701171875 1049" stroke-miterlimit="10"/></g><g transform="translate(-182,-158) scale(1,1)"><path fill="none" stroke="#000000" d="M 424 1059 L 564.701171875 1059" stroke-miterlimit="10"/></g><g transform="translate(-182,-158) scale(1,1)"><g><path fill="none" stroke="none"/><text fill="#000000" stroke="none" font-family="Arial" font-size="13px" font-style="normal" font-weight="bold" text-decoration="none" x="437.3505859375" y="1043.5">CachedDiffFunction</text></g></g><g transform="translate(-182,-158) scale(1,1)"><path fill="none" stroke="#000000" d="M 253 1079 L 254 1021" stroke-miterlimit="10"/></g><g transform="translate(-182,-158) scale(1,1)"><path fill="#FFFFFF" stroke="none" d="M 262.0673994586762 1041.4674635940594 L 254 1021 L 245.2318305627224 1041.1771951648188"/></g><g transform="translate(-182,-158) scale(1,1)"><path fill="none" stroke="#000000" d="M 262.0673994586762 1041.4674635940594 L 254 1021 L 245.2318305627224 1041.1771951648188 L 262.0673994586762 1041.4674635940594" stroke-miterlimit="10"/></g><g transform="translate(-182,-158) scale(1,1)"><rect fill="#C0C0C0" stroke="none" x="199" y="807" width="134" height="70" opacity="0.2"/></g><g transform="translate(-182,-158) scale(1,1)"><rect fill="#ffffff" stroke="none" x="192" y="800" width="134" height="70"/></g><g transform="translate(-182,-158) scale(1,1)"><path fill="none" stroke="#000000" d="M 192 800 L 326 800 L 326 870 L 192 870 L 192 800 Z Z" stroke-miterlimit="10"/></g><g transform="translate(-182,-158) scale(1,1)"><path fill="none" stroke="#000000" d="M 192 825 L 326 825" stroke-miterlimit="10"/></g><g transform="translate(-182,-158) scale(1,1)"><path fill="none" stroke="#000000" d="M 192 848 L 326 848" stroke-miterlimit="10"/></g><g transform="translate(-182,-158) scale(1,1)"><g><path fill="none" stroke="none"/><text fill="#000000" stroke="none" font-family="Arial" font-size="13px" font-style="normal" font-weight="bold" text-decoration="none" x="202" y="819.5">FirstOrderMinimizer</text></g></g><g transform="translate(-182,-158) scale(1,1)"><g><path fill="none" stroke="none"/><text fill="#000000" stroke="none" font-family="Arial" font-size="13px" font-style="normal" font-weight="normal" text-decoration="none" x="197" y="842.5">+State</text></g></g><g transform="translate(-182,-158) scale(1,1)"><g><path fill="none" stroke="none"/><text fill="#000000" stroke="none" font-family="Arial" font-size="13px" font-style="normal" font-weight="normal" text-decoration="none" x="197" y="865.5">+iterations()</text></g></g><g transform="translate(-182,-158) scale(1,1)"><path fill="none" stroke="#000000" d="M 256 975 L 258 871" stroke-miterlimit="10"/></g><g transform="translate(-182,-158) scale(1,1)"><path fill="#FFFFFF" stroke="none" d="M 266.02667931607647 891.4834669711178 L 258 871 L 249.19172097731945 891.1597177722955"/></g><g transform="translate(-182,-158) scale(1,1)"><path fill="none" stroke="#000000" d="M 266.02667931607647 891.4834669711178 L 258 871 L 249.19172097731945 891.1597177722955 L 266.02667931607647 891.4834669711178" stroke-miterlimit="10"/></g><g transform="translate(-182,-158) scale(1,1)"><path fill="none" stroke="#000000" d="M 327 834 L 695 829" stroke-miterlimit="10"/></g><g transform="translate(-182,-158) scale(1,1)"><path fill="none" stroke="#000000" d="M 684.8954523110349 833.3471963380357 L 695 829 L 684.7810737985355 824.9289378180843" stroke-miterlimit="10"/></g><g transform="translate(-182,-158) scale(1,1)"><path fill="none" stroke="#000000" d="M 708 858 L 520 1023" stroke-miterlimit="10"/></g><g transform="translate(-182,-158) scale(1,1)"><path fill="#000000" stroke="none" d="M 524.8613670395874 1013.1325225864756 L 520 1023 L 530.4148657918372 1019.4601454072208 L 536.5348752665845 1008.4880084096466"/></g><g transform="translate(-182,-158) scale(1,1)"><path fill="none" stroke="#000000" d="M 524.8613670395874 1013.1325225864756 L 520 1023 L 530.4148657918372 1019.4601454072208 L 536.5348752665845 1008.4880084096466 L 524.8613670395874 1013.1325225864756" stroke-miterlimit="10"/></g><g transform="translate(-182,-158) scale(1,1)"><path fill="none" stroke="#000000" d="M 304 1008 L 423 1032" stroke-miterlimit="10"/></g><g transform="translate(-182,-158) scale(1,1)"><path fill="none" stroke="#000000" d="M 412.2056885155089 1034.1172717293211 L 423 1032 L 413.87013195365887 1025.8644063484942" stroke-miterlimit="10"/></g><g transform="translate(-182,-158) scale(1,1)"><path fill="none" stroke="#000000" d="M 305 1090 L 423 1062" stroke-miterlimit="10"/></g><g transform="translate(-182,-158) scale(1,1)"><path fill="none" stroke="#000000" d="M 414.0837734573728 1068.4421195456582 L 423 1062 L 412.14000933316356 1060.2505421650621" stroke-miterlimit="10"/></g><g transform="translate(-182,-158) scale(1,1)"><path fill="none" stroke="#000000" d="M 331 447 L 333 333" stroke-miterlimit="10"/></g><g transform="translate(-182,-158) scale(1,1)"><path fill="#FFFFFF" stroke="none" d="M 341.0612099568909 353.4699021500085 L 333 333 L 324.22572960458996 353.1745428455822"/></g><g transform="translate(-182,-158) scale(1,1)"><path fill="none" stroke="#000000" d="M 341.0612099568909 353.4699021500085 L 333 333 L 324.22572960458996 353.1745428455822 L 341.0612099568909 353.4699021500085" stroke-miterlimit="10"/></g><g transform="translate(-182,-158) scale(1,1)"><path fill="none" stroke="#000000" d="M 378 447 L 682 213" stroke-miterlimit="10"/></g><g transform="translate(-182,-158) scale(1,1)"><path fill="none" stroke="#000000" d="M 676.5144388169448 222.53460111944688 L 682 213 L 671.3791413813782 215.86310359631767" stroke-miterlimit="10"/></g><g transform="translate(-182,-158) scale(1,1)"><path fill="none" stroke="#000000" d="M 401 447 L 669 309" stroke-miterlimit="10"/></g><g transform="translate(-182,-158) scale(1,1)"><path fill="none" stroke="#000000" d="M 661.8919164710477 317.3949477988512 L 669 309 L 658.0377014191627 309.9099504517122" stroke-miterlimit="10"/></g><g transform="translate(-182,-158) scale(1,1)"><path fill="none" stroke="#000000" d="M 401 468 L 655 413" stroke-miterlimit="10"/></g><g transform="translate(-182,-158) scale(1,1)"><path fill="none" stroke="#000000" d="M 645.9583767781703 419.264906185608 L 655 413 L 644.1766492595694 411.03656455425147" stroke-miterlimit="10"/></g><g transform="translate(-182,-158) scale(1,1)"><path fill="none" stroke="#000000" d="M 401 488 L 655 505" stroke-miterlimit="10"/></g><g transform="translate(-182,-158) scale(1,1)"><path fill="none" stroke="#000000" d="M 644.5789003891965 508.5214603365241 L 655 505 L 645.1411213141447 500.1212182814161" stroke-miterlimit="10"/></g><g transform="translate(-182,-158) scale(1,1)"><path fill="none" stroke="#000000" d="M 401 507 L 671 599" stroke-miterlimit="10"/></g><g transform="translate(-182,-158) scale(1,1)"><path fill="none" stroke="#000000" d="M 660.022729557676 599.7067769351642 L 671 599 L 662.7381308676732 591.7376643949549" stroke-miterlimit="10"/></g><g transform="translate(-182,-158) scale(1,1)"><path fill="none" stroke="#000000" d="M 324 519 L 266 799" stroke-miterlimit="10"/></g><g transform="translate(-182,-158) scale(1,1)"><path fill="none" stroke="#000000" d="M 263.9393527196287 788.1947358761621 L 266 799 L 272.18337786889333 789.9024267999383" stroke-miterlimit="10"/></g></g></svg>