<svg version="1.1" xmlns="http://www.w3.org/2000/svg" xmlns:xlink="http://www.w3.org/1999/xlink" width="1140.4111328125" height="767"><defs/><g><g transform="translate(-318,-158) scale(1,1)"><rect fill="#C0C0C0" stroke="none" x="487" y="351" width="113.6982421875" height="57" opacity="0.2"/></g><g transform="translate(-318,-158) scale(1,1)"><rect fill="#ffffff" stroke="none" x="480" y="344" width="113.6982421875" height="57"/></g><g transform="translate(-318,-158) scale(1,1)"><path fill="none" stroke="#000000" d="M 480 344 L 593.6982421875 344 L 593.6982421875 401 L 480 401 L 480 344 Z Z" stroke-miterlimit="10"/></g><g transform="translate(-318,-158) scale(1,1)"><path fill="none" stroke="#000000" d="M 480 369 L 593.6982421875 369" stroke-miterlimit="10"/></g><g transform="translate(-318,-158) scale(1,1)"><path fill="none" stroke="#000000" d="M 480 379 L 593.6982421875 379" stroke-miterlimit="10"/></g><g transform="translate(-318,-158) scale(1,1)"><g><path fill="none" stroke="none"/><text fill="#000000" stroke="none" font-family="Arial" font-size="13px" font-style="normal" font-weight="bold" text-decoration="none" x="492.34912109375" y="363.5">LinearClassifier</text></g></g><g transform="translate(-318,-158) scale(1,1)"><g><path fill="none" stroke="none"/><text fill="#000000" stroke="none" font-family="Arial" font-size="13px" font-style="normal" font-weight="normal" text-decoration="none" x="485" y="396.5">+__init__()</text></g></g><g transform="translate(-318,-158) scale(1,1)"><rect fill="#C0C0C0" stroke="none" x="383" y="175" width="88" height="70" opacity="0.2"/></g><g transform="translate(-318,-158) scale(1,1)"><rect fill="#ffffff" stroke="none" x="376" y="168" width="88" height="70"/></g><g transform="translate(-318,-158) scale(1,1)"><path fill="none" stroke="#000000" d="M 376 168 L 464 168 L 464 238 L 376 238 L 376 168 Z Z" stroke-miterlimit="10"/></g><g transform="translate(-318,-158) scale(1,1)"><path fill="none" stroke="#000000" d="M 376 193 L 464 193" stroke-miterlimit="10"/></g><g transform="translate(-318,-158) scale(1,1)"><path fill="none" stroke="#000000" d="M 376 216 L 464 216" stroke-miterlimit="10"/></g><g transform="translate(-318,-158) scale(1,1)"><g><path fill="none" stroke="none"/><text fill="#000000" stroke="none" font-family="Arial" font-size="13px" font-style="normal" font-weight="bold" text-decoration="none" x="391.5" y="187.5">Evaluable</text></g></g><g transform="translate(-318,-158) scale(1,1)"><g><path fill="none" stroke="none"/><text fill="#000000" stroke="none" font-family="Arial" font-size="13px" font-style="normal" font-weight="normal" text-decoration="none" x="381" y="210.5">+model_dir</text></g></g><g transform="translate(-318,-158) scale(1,1)"><g><path fill="none" stroke="none"/><text fill="#000000" stroke="none" font-family="Arial" font-size="13px" font-style="normal" font-weight="normal" text-decoration="none" x="381" y="233.5">+evaluate()</text></g></g><g transform="translate(-318,-158) scale(1,1)"><rect fill="#C0C0C0" stroke="none" x="599" y="175" width="88" height="57" opacity="0.2"/></g><g transform="translate(-318,-158) scale(1,1)"><rect fill="#ffffff" stroke="none" x="592" y="168" width="88" height="57"/></g><g transform="translate(-318,-158) scale(1,1)"><path fill="none" stroke="#000000" d="M 592 168 L 680 168 L 680 225 L 592 225 L 592 168 Z Z" stroke-miterlimit="10"/></g><g transform="translate(-318,-158) scale(1,1)"><path fill="none" stroke="#000000" d="M 592 193 L 680 193" stroke-miterlimit="10"/></g><g transform="translate(-318,-158) scale(1,1)"><path fill="none" stroke="#000000" d="M 592 203 L 680 203" stroke-miterlimit="10"/></g><g transform="translate(-318,-158) scale(1,1)"><g><path fill="none" stroke="none"/><text fill="#000000" stroke="none" font-family="Arial" font-size="13px" font-style="normal" font-weight="bold" text-decoration="none" x="609.5" y="187.5">Trainable</text></g></g><g transform="translate(-318,-158) scale(1,1)"><g><path fill="none" stroke="none"/><text fill="#000000" stroke="none" font-family="Arial" font-size="13px" font-style="normal" font-weight="normal" text-decoration="none" x="597" y="220.5">+fit()</text></g></g><g transform="translate(-318,-158) scale(1,1)"><rect fill="#C0C0C0" stroke="none" x="455" y="583" width="169.27197265625" height="85" opacity="0.2"/></g><g transform="translate(-318,-158) scale(1,1)"><rect fill="#ffffff" stroke="none" x="448" y="576" width="169.27197265625" height="85"/></g><g transform="translate(-318,-158) scale(1,1)"><path fill="none" stroke="#000000" d="M 448 576 L 617.27197265625 576 L 617.27197265625 661 L 448 661 L 448 576 Z Z" stroke-miterlimit="10"/></g><g transform="translate(-318,-158) scale(1,1)"><path fill="none" stroke="#000000" d="M 448 614 L 617.27197265625 614" stroke-miterlimit="10"/></g><g transform="translate(-318,-158) scale(1,1)"><path fill="none" stroke="#000000" d="M 448 624 L 617.27197265625 624" stroke-miterlimit="10"/></g><g transform="translate(-318,-158) scale(1,1)"><g><path fill="none" stroke="none"/><text fill="#000000" stroke="none" font-family="Arial" font-size="13px" font-style="normal" font-weight="normal" text-decoration="none" x="498.635986328125" y="593.5">«dataType»</text></g></g><g transform="translate(-318,-158) scale(1,1)"><g><path fill="none" stroke="none"/><text fill="#000000" stroke="none" font-family="Arial" font-size="13px" font-style="normal" font-weight="bold" text-decoration="none" x="508.135986328125" y="608.5">linear.py</text></g></g><g transform="translate(-318,-158) scale(1,1)"><g><path fill="none" stroke="none"/><text fill="#000000" stroke="none" font-family="Arial" font-size="13px" font-style="normal" font-weight="normal" text-decoration="none" x="453" y="641.5">+_get_default_optimizer()</text></g></g><g transform="translate(-318,-158) scale(1,1)"><g><path fill="none" stroke="none"/><text fill="#000000" stroke="none" font-family="Arial" font-size="13px" font-style="normal" font-weight="normal" text-decoration="none" x="453" y="656.5">+_linear_model_fn()</text></g></g><g transform="translate(-318,-158) scale(1,1)"><rect fill="#C0C0C0" stroke="none" x="783" y="343" width="196.42724609375" height="75" opacity="0.2"/></g><g transform="translate(-318,-158) scale(1,1)"><rect fill="#ffffff" stroke="none" x="776" y="336" width="196.42724609375" height="75"/></g><g transform="translate(-318,-158) scale(1,1)"><path fill="none" stroke="#000000" d="M 776 336 L 972.42724609375 336 L 972.42724609375 411 L 776 411 L 776 336 Z Z" stroke-miterlimit="10"/></g><g transform="translate(-318,-158) scale(1,1)"><path fill="none" stroke="#000000" d="M 776 374 L 972.42724609375 374" stroke-miterlimit="10"/></g><g transform="translate(-318,-158) scale(1,1)"><g><path fill="none" stroke="none"/><text fill="#000000" stroke="none" font-family="Arial" font-size="13px" font-style="normal" font-weight="normal" text-decoration="none" x="840.213623046875" y="353.5">«dataType»</text></g></g><g transform="translate(-318,-158) scale(1,1)"><g><path fill="none" stroke="none"/><text fill="#000000" stroke="none" font-family="Arial" font-size="13px" font-style="normal" font-weight="bold" text-decoration="none" x="845.713623046875" y="368.5">header.py</text></g></g><g transform="translate(-318,-158) scale(1,1)"><g><path fill="none" stroke="none"/><text fill="#000000" stroke="none" font-family="Arial" font-size="13px" font-style="normal" font-weight="normal" text-decoration="none" x="781" y="391.5">+_multi_class_head()</text></g></g><g transform="translate(-318,-158) scale(1,1)"><g><path fill="none" stroke="none"/><text fill="#000000" stroke="none" font-family="Arial" font-size="13px" font-style="normal" font-weight="normal" text-decoration="none" x="781" y="406.5">+_log_loss_with_two_classes()</text></g></g><g transform="translate(-318,-158) scale(1,1)"><rect fill="#C0C0C0" stroke="none" x="1047" y="535" width="145.03369140625" height="72" opacity="0.2"/></g><g transform="translate(-318,-158) scale(1,1)"><rect fill="#ffffff" stroke="none" x="1040" y="528" width="145.03369140625" height="72"/></g><g transform="translate(-318,-158) scale(1,1)"><path fill="none" stroke="#000000" d="M 1040 528 L 1185.03369140625 528 L 1185.03369140625 600 L 1040 600 L 1040 528 Z Z" stroke-miterlimit="10"/></g><g transform="translate(-318,-158) scale(1,1)"><path fill="none" stroke="#000000" d="M 1040 553 L 1185.03369140625 553" stroke-miterlimit="10"/></g><g transform="translate(-318,-158) scale(1,1)"><path fill="none" stroke="#000000" d="M 1040 591 L 1185.03369140625 591" stroke-miterlimit="10"/></g><g transform="translate(-318,-158) scale(1,1)"><g><path fill="none" stroke="none"/><text fill="#000000" stroke="none" font-family="Arial" font-size="13px" font-style="normal" font-weight="bold" text-decoration="none" x="1053.016845703125" y="547.5">_BinaryLogisticHead</text></g></g><g transform="translate(-318,-158) scale(1,1)"><g><path fill="none" stroke="none"/><text fill="#000000" stroke="none" font-family="Arial" font-size="13px" font-style="normal" font-weight="normal" text-decoration="none" x="1045" y="570.5">+_thresholds</text></g></g><g transform="translate(-318,-158) scale(1,1)"><g><path fill="none" stroke="none"/><text fill="#000000" stroke="none" font-family="Arial" font-size="13px" font-style="normal" font-weight="normal" text-decoration="none" x="1045" y="585.5">+_loss_fun</text></g></g><g transform="translate(-318,-158) scale(1,1)"><rect fill="#C0C0C0" stroke="none" x="1335" y="535" width="120.4111328125" height="44" opacity="0.2"/></g><g transform="translate(-318,-158) scale(1,1)"><rect fill="#ffffff" stroke="none" x="1328" y="528" width="120.4111328125" height="44"/></g><g transform="translate(-318,-158) scale(1,1)"><path fill="none" stroke="#000000" d="M 1328 528 L 1448.4111328125 528 L 1448.4111328125 572 L 1328 572 L 1328 528 Z Z" stroke-miterlimit="10"/></g><g transform="translate(-318,-158) scale(1,1)"><path fill="none" stroke="#000000" d="M 1328 553 L 1448.4111328125 553" stroke-miterlimit="10"/></g><g transform="translate(-318,-158) scale(1,1)"><path fill="none" stroke="#000000" d="M 1328 563 L 1448.4111328125 563" stroke-miterlimit="10"/></g><g transform="translate(-318,-158) scale(1,1)"><g><path fill="none" stroke="none"/><text fill="#000000" stroke="none" font-family="Arial" font-size="13px" font-style="normal" font-weight="bold" text-decoration="none" x="1339.20556640625" y="547.5">_MultiClassHead</text></g></g><g transform="translate(-318,-158) scale(1,1)"><rect fill="#C0C0C0" stroke="none" x="1207" y="327" width="88" height="57" opacity="0.2"/></g><g transform="translate(-318,-158) scale(1,1)"><rect fill="#ffffff" stroke="none" x="1200" y="320" width="88" height="57"/></g><g transform="translate(-318,-158) scale(1,1)"><path fill="none" stroke="#000000" d="M 1200 320 L 1288 320 L 1288 377 L 1200 377 L 1200 320 Z Z" stroke-miterlimit="10"/></g><g transform="translate(-318,-158) scale(1,1)"><path fill="none" stroke="#000000" d="M 1200 345 L 1288 345" stroke-miterlimit="10"/></g><g transform="translate(-318,-158) scale(1,1)"><path fill="none" stroke="#000000" d="M 1200 355 L 1288 355" stroke-miterlimit="10"/></g><g transform="translate(-318,-158) scale(1,1)"><g><path fill="none" stroke="none"/><text fill="#000000" stroke="none" font-family="Arial" font-size="13px" font-style="normal" font-weight="bold" text-decoration="none" x="1225.5" y="339.5">_Head</text></g></g><g transform="translate(-318,-158) scale(1,1)"><g><path fill="none" stroke="none"/><text fill="#000000" stroke="none" font-family="Arial" font-size="13px" font-style="normal" font-weight="normal" text-decoration="none" x="1205" y="372.5">+head_ops()</text></g></g><g transform="translate(-318,-158) scale(1,1)"><rect fill="#C0C0C0" stroke="none" x="743" y="599" width="244.8154296875" height="60" opacity="0.2"/></g><g transform="translate(-318,-158) scale(1,1)"><rect fill="#ffffff" stroke="none" x="736" y="592" width="244.8154296875" height="60"/></g><g transform="translate(-318,-158) scale(1,1)"><path fill="none" stroke="#000000" d="M 736 592 L 980.8154296875 592 L 980.8154296875 652 L 736 652 L 736 592 Z Z" stroke-miterlimit="10"/></g><g transform="translate(-318,-158) scale(1,1)"><path fill="none" stroke="#000000" d="M 736 630 L 980.8154296875 630" stroke-miterlimit="10"/></g><g transform="translate(-318,-158) scale(1,1)"><g><path fill="none" stroke="none"/><text fill="#000000" stroke="none" font-family="Arial" font-size="13px" font-style="normal" font-weight="normal" text-decoration="none" x="824.40771484375" y="609.5">«dataType»</text></g></g><g transform="translate(-318,-158) scale(1,1)"><g><path fill="none" stroke="none"/><text fill="#000000" stroke="none" font-family="Arial" font-size="13px" font-style="normal" font-weight="bold" text-decoration="none" x="823.40771484375" y="624.5">nn_imply.py</text></g></g><g transform="translate(-318,-158) scale(1,1)"><g><path fill="none" stroke="none"/><text fill="#000000" stroke="none" font-family="Arial" font-size="13px" font-style="normal" font-weight="normal" text-decoration="none" x="741" y="647.5">+sigmoid_cross_entropy_with_logits()</text></g></g><g transform="translate(-318,-158) scale(1,1)"><rect fill="#C0C0C0" stroke="none" x="1071" y="711" width="92.23046875" height="57" opacity="0.2"/></g><g transform="translate(-318,-158) scale(1,1)"><rect fill="#ffffff" stroke="none" x="1064" y="704" width="92.23046875" height="57"/></g><g transform="translate(-318,-158) scale(1,1)"><path fill="none" stroke="#000000" d="M 1064 704 L 1156.23046875 704 L 1156.23046875 761 L 1064 761 L 1064 704 Z Z" stroke-miterlimit="10"/></g><g transform="translate(-318,-158) scale(1,1)"><path fill="none" stroke="#000000" d="M 1064 729 L 1156.23046875 729" stroke-miterlimit="10"/></g><g transform="translate(-318,-158) scale(1,1)"><path fill="none" stroke="#000000" d="M 1064 739 L 1156.23046875 739" stroke-miterlimit="10"/></g><g transform="translate(-318,-158) scale(1,1)"><g><path fill="none" stroke="none"/><text fill="#000000" stroke="none" font-family="Arial" font-size="13px" font-style="normal" font-weight="bold" text-decoration="none" x="1073.115234375" y="723.5">ModelFnOps</text></g></g><g transform="translate(-318,-158) scale(1,1)"><g><path fill="none" stroke="none"/><text fill="#000000" stroke="none" font-family="Arial" font-size="13px" font-style="normal" font-weight="normal" text-decoration="none" x="1069" y="756.5">+__new__()</text></g></g><g transform="translate(-318,-158) scale(1,1)"><path fill="none" stroke="#000000" d="M 516 343 L 445 239" stroke-miterlimit="10"/></g><g transform="translate(-318,-158) scale(1,1)"><path fill="#FFFFFF" stroke="none" d="M 463.41323998804523 251.03962595526338 L 445 239 L 449.5068257032458 260.5334280150784"/></g><g transform="translate(-318,-158) scale(1,1)"><path fill="none" stroke="#000000" d="M 463.41323998804523 251.03962595526338 L 445 239 L 449.5068257032458 260.5334280150784 L 463.41323998804523 251.03962595526338" stroke-miterlimit="10"/></g><g transform="translate(-318,-158) scale(1,1)"><path fill="none" stroke="#000000" d="M 552 343 L 619 226" stroke-miterlimit="10"/></g><g transform="translate(-318,-158) scale(1,1)"><path fill="#FFFFFF" stroke="none" d="M 616.2054959945177 247.8217952369493 L 619 226 L 601.5936478779594 239.4543266573817"/></g><g transform="translate(-318,-158) scale(1,1)"><path fill="none" stroke="#000000" d="M 616.2054959945177 247.8217952369493 L 619 226 L 601.5936478779594 239.4543266573817 L 616.2054959945177 247.8217952369493" stroke-miterlimit="10"/></g><g transform="translate(-318,-158) scale(1,1)"><path fill="none" stroke="#000000" d="M 536 402 L 533 575" stroke-miterlimit="10"/></g><g transform="translate(-318,-158) scale(1,1)"><path fill="none" stroke="#000000" d="M 528.9673198913341 564.7658663707585 L 533 575 L 537.3850898376122 564.9118392600003" stroke-miterlimit="10"/></g><g transform="translate(-318,-158) scale(1,1)"><path fill="none" stroke="#000000" d="M 595 372 L 775 373" stroke-miterlimit="10"/></g><g transform="translate(-318,-158) scale(1,1)"><path fill="none" stroke="#000000" d="M 764.814096121282 377.15299436232675 L 775 373 L 764.8608678190134 368.7340887706749" stroke-miterlimit="10"/></g><g transform="translate(-318,-158) scale(1,1)"><path fill="none" stroke="#000000" d="M 1372 527 L 1265 378" stroke-miterlimit="10"/></g><g transform="translate(-318,-158) scale(1,1)"><path fill="#FFFFFF" stroke="none" d="M 1283.6941812789607 389.5986027740134 L 1265 378 L 1270.0173316772898 399.42023302487775"/></g><g transform="translate(-318,-158) scale(1,1)"><path fill="none" stroke="#000000" d="M 1283.6941812789607 389.5986027740134 L 1265 378 L 1270.0173316772898 399.42023302487775 L 1283.6941812789607 389.5986027740134" stroke-miterlimit="10"/></g><g transform="translate(-318,-158) scale(1,1)"><path fill="none" stroke="#000000" d="M 1135 527 L 1226 378" stroke-miterlimit="10"/></g><g transform="translate(-318,-158) scale(1,1)"><path fill="#FFFFFF" stroke="none" d="M 1222.5910573769365 399.7342842116473 L 1226 378 L 1208.2210538042646 390.95797330484754"/></g><g transform="translate(-318,-158) scale(1,1)"><path fill="none" stroke="#000000" d="M 1222.5910573769365 399.7342842116473 L 1226 378 L 1208.2210538042646 390.95797330484754 L 1222.5910573769365 399.7342842116473" stroke-miterlimit="10"/></g><g transform="translate(-318,-158) scale(1,1)"><path fill="none" stroke="#000000" d="M 923 412 L 1066 527" stroke-miterlimit="10"/></g><g transform="translate(-318,-158) scale(1,1)"><path fill="none" stroke="#000000" d="M 1055.4424702736133 523.9115430913707 L 1066 527 L 1060.7185679613876 517.3508303143992" stroke-miterlimit="10"/></g><g transform="translate(-318,-158) scale(1,1)"><path fill="none" stroke="#000000" d="M 973 407 L 1327 529" stroke-miterlimit="10"/></g><g transform="translate(-318,-158) scale(1,1)"><path fill="none" stroke="#000000" d="M 1316.0203344417162 529.668538875634 L 1327 529 L 1318.7634756561295 521.7089324010246" stroke-miterlimit="10"/></g><g transform="translate(-318,-158) scale(1,1)"><path fill="none" stroke="#000000" d="M 1112 601 L 1110 703" stroke-miterlimit="10"/></g><g transform="translate(-318,-158) scale(1,1)"><path fill="none" stroke="#000000" d="M 1105.9905210615757 692.7567544868664 L 1110 703 L 1114.407938617311 692.9218018899201" stroke-miterlimit="10"/></g><g transform="translate(-318,-158) scale(1,1)"><path fill="none" stroke="#000000" d="M 871 412 L 860 591" stroke-miterlimit="10"/></g><g transform="translate(-318,-158) scale(1,1)"><path fill="none" stroke="#000000" d="M 856.4217542599605 580.5982618075684 L 860 591 L 864.8249377844617 581.1146585604707" stroke-miterlimit="10"/></g><g transform="translate(-318,-158) scale(1,1)"><rect fill="#C0C0C0" stroke="none" x="543" y="847" width="263.31884765625" height="75" opacity="0.2"/></g><g transform="translate(-318,-158) scale(1,1)"><rect fill="#ffffff" stroke="none" x="536" y="840" width="263.31884765625" height="75"/></g><g transform="translate(-318,-158) scale(1,1)"><path fill="none" stroke="#000000" d="M 536 840 L 799.31884765625 840 L 799.31884765625 915 L 536 915 L 536 840 Z Z" stroke-miterlimit="10"/></g><g transform="translate(-318,-158) scale(1,1)"><path fill="none" stroke="#000000" d="M 536 878 L 799.31884765625 878" stroke-miterlimit="10"/></g><g transform="translate(-318,-158) scale(1,1)"><g><path fill="none" stroke="none"/><text fill="#000000" stroke="none" font-family="Arial" font-size="13px" font-style="normal" font-weight="normal" text-decoration="none" x="633.659423828125" y="857.5">«dataType»</text></g></g><g transform="translate(-318,-158) scale(1,1)"><g><path fill="none" stroke="none"/><text fill="#000000" stroke="none" font-family="Arial" font-size="13px" font-style="normal" font-weight="bold" text-decoration="none" x="600.159423828125" y="872.5">feature_column_ops.py</text></g></g><g transform="translate(-318,-158) scale(1,1)"><g><path fill="none" stroke="none"/><text fill="#000000" stroke="none" font-family="Arial" font-size="13px" font-style="normal" font-weight="normal" text-decoration="none" x="541" y="895.5">+weighted_sum_from_feature_columns()</text></g></g><g transform="translate(-318,-158) scale(1,1)"><g><path fill="none" stroke="none"/><text fill="#000000" stroke="none" font-family="Arial" font-size="13px" font-style="normal" font-weight="normal" text-decoration="none" x="541" y="910.5">+_create_embedding_lookup()</text></g></g><g transform="translate(-318,-158) scale(1,1)"><rect fill="#C0C0C0" stroke="none" x="335" y="855" width="130.361328125" height="60" opacity="0.2"/></g><g transform="translate(-318,-158) scale(1,1)"><rect fill="#ffffff" stroke="none" x="328" y="848" width="130.361328125" height="60"/></g><g transform="translate(-318,-158) scale(1,1)"><path fill="none" stroke="#000000" d="M 328 848 L 458.361328125 848 L 458.361328125 908 L 328 908 L 328 848 Z Z" stroke-miterlimit="10"/></g><g transform="translate(-318,-158) scale(1,1)"><path fill="none" stroke="#000000" d="M 328 886 L 458.361328125 886" stroke-miterlimit="10"/></g><g transform="translate(-318,-158) scale(1,1)"><g><path fill="none" stroke="none"/><text fill="#000000" stroke="none" font-family="Arial" font-size="13px" font-style="normal" font-weight="normal" text-decoration="none" x="359.1806640625" y="865.5">«dataType»</text></g></g><g transform="translate(-318,-158) scale(1,1)"><g><path fill="none" stroke="none"/><text fill="#000000" stroke="none" font-family="Arial" font-size="13px" font-style="normal" font-weight="bold" text-decoration="none" x="342.1806640625" y="880.5">gradients_impl.py</text></g></g><g transform="translate(-318,-158) scale(1,1)"><g><path fill="none" stroke="none"/><text fill="#000000" stroke="none" font-family="Arial" font-size="13px" font-style="normal" font-weight="normal" text-decoration="none" x="333" y="903.5">+gradients()</text></g></g><g transform="translate(-318,-158) scale(1,1)"><path fill="none" stroke="#000000" d="M 555 662 L 647 839" stroke-miterlimit="10"/></g><g transform="translate(-318,-158) scale(1,1)"><path fill="none" stroke="#000000" d="M 638.5779259681228 831.9240782224801 L 647 839 L 646.0481266124344 828.0412620683746" stroke-miterlimit="10"/></g><g transform="translate(-318,-158) scale(1,1)"><path fill="none" stroke="#000000" d="M 508 662 L 410 847" stroke-miterlimit="10"/></g><g transform="translate(-318,-158) scale(1,1)"><path fill="none" stroke="#000000" d="M 411.03738926552194 836.049026366949 L 410 847 L 418.4770527009062 839.9900372678552" stroke-miterlimit="10"/></g></g></svg>