<svg version="1.1" xmlns="http://www.w3.org/2000/svg" xmlns:xlink="http://www.w3.org/1999/xlink" width="2323" height="1952"><defs/><g><g transform="translate(-454,-326) scale(1,1)"><rect fill="#C0C0C0" stroke="none" x="1615" y="343" width="145" height="72" opacity="0.2"/></g><g transform="translate(-454,-326) scale(1,1)"><rect fill="#ffffff" stroke="none" x="1608" y="336" width="145" height="72"/></g><g transform="translate(-454,-326) scale(1,1)"><path fill="none" stroke="#000000" d="M 1608 336 L 1753 336 L 1753 408 L 1608 408 L 1608 336 Z Z" stroke-miterlimit="10"/></g><g transform="translate(-454,-326) scale(1,1)"><path fill="none" stroke="#000000" d="M 1608 361 L 1753 361" stroke-miterlimit="10"/></g><g transform="translate(-454,-326) scale(1,1)"><path fill="none" stroke="#000000" d="M 1608 371 L 1753 371" stroke-miterlimit="10"/></g><g transform="translate(-454,-326) scale(1,1)"><g><path fill="none" stroke="none"/><text fill="#000000" stroke="none" font-family="Arial" font-size="13px" font-style="normal" font-weight="bold" text-decoration="none" x="1632" y="355.5">RegisterGradient</text></g></g><g transform="translate(-454,-326) scale(1,1)"><g><path fill="none" stroke="none"/><text fill="#000000" stroke="none" font-family="Arial" font-size="13px" font-style="normal" font-weight="normal" text-decoration="none" x="1613" y="388.5">+__init__(op_type)</text></g></g><g transform="translate(-454,-326) scale(1,1)"><g><path fill="none" stroke="none"/><text fill="#000000" stroke="none" font-family="Arial" font-size="13px" font-style="normal" font-weight="normal" text-decoration="none" x="1613" y="403.5">+__call(f)</text></g></g><g transform="translate(-454,-326) scale(1,1)"><rect fill="#C0C0C0" stroke="none" x="1623" y="551" width="132.83056640625" height="56" opacity="0.2"/></g><g transform="translate(-454,-326) scale(1,1)"><rect fill="#ffffff" stroke="none" x="1616" y="544" width="132.83056640625" height="56"/></g><g transform="translate(-454,-326) scale(1,1)"><path fill="none" stroke="#000000" d="M 1616 544 L 1748.83056640625 544 L 1748.83056640625 600 L 1616 600 L 1616 544 Z Z" stroke-miterlimit="10"/></g><g transform="translate(-454,-326) scale(1,1)"><path fill="none" stroke="#000000" d="M 1616 582 L 1748.83056640625 582" stroke-miterlimit="10"/></g><g transform="translate(-454,-326) scale(1,1)"><g><path fill="none" stroke="none"/><text fill="#000000" stroke="none" font-family="Arial" font-size="13px" font-style="normal" font-weight="normal" text-decoration="none" x="1648.415283203125" y="561.5">«dataType»</text></g></g><g transform="translate(-454,-326) scale(1,1)"><g><path fill="none" stroke="none"/><text fill="#000000" stroke="none" font-family="Arial" font-size="13px" font-style="normal" font-weight="bold" text-decoration="none" x="1630.915283203125" y="576.5">_gradient_registry</text></g></g><g transform="translate(-454,-326) scale(1,1)"><rect fill="#C0C0C0" stroke="none" x="1607" y="727" width="175.70849609375" height="115" opacity="0.2"/></g><g transform="translate(-454,-326) scale(1,1)"><rect fill="#ffffff" stroke="none" x="1600" y="720" width="175.70849609375" height="115"/></g><g transform="translate(-454,-326) scale(1,1)"><path fill="none" stroke="#000000" d="M 1600 720 L 1775.70849609375 720 L 1775.70849609375 835 L 1600 835 L 1600 720 Z Z" stroke-miterlimit="10"/></g><g transform="translate(-454,-326) scale(1,1)"><path fill="none" stroke="#000000" d="M 1600 745 L 1775.70849609375 745" stroke-miterlimit="10"/></g><g transform="translate(-454,-326) scale(1,1)"><path fill="none" stroke="#000000" d="M 1600 783 L 1775.70849609375 783" stroke-miterlimit="10"/></g><g transform="translate(-454,-326) scale(1,1)"><g><path fill="none" stroke="none"/><text fill="#000000" stroke="none" font-family="Arial" font-size="13px" font-style="normal" font-weight="bold" text-decoration="none" x="1663.854248046875" y="739.5">Registry</text></g></g><g transform="translate(-454,-326) scale(1,1)"><g><path fill="none" stroke="none"/><text fill="#000000" stroke="none" font-family="Arial" font-size="13px" font-style="normal" font-weight="normal" text-decoration="none" x="1605" y="762.5">+_name</text></g></g><g transform="translate(-454,-326) scale(1,1)"><g><path fill="none" stroke="none"/><text fill="#000000" stroke="none" font-family="Arial" font-size="13px" font-style="normal" font-weight="normal" text-decoration="none" x="1605" y="777.5">+_registry</text></g></g><g transform="translate(-454,-326) scale(1,1)"><g><path fill="none" stroke="none"/><text fill="#000000" stroke="none" font-family="Arial" font-size="13px" font-style="normal" font-weight="normal" text-decoration="none" x="1605" y="800.5">+register(candidate, name)</text></g></g><g transform="translate(-454,-326) scale(1,1)"><g><path fill="none" stroke="none"/><text fill="#000000" stroke="none" font-family="Arial" font-size="13px" font-style="normal" font-weight="normal" text-decoration="none" x="1605" y="815.5">+list()</text></g></g><g transform="translate(-454,-326) scale(1,1)"><g><path fill="none" stroke="none"/><text fill="#000000" stroke="none" font-family="Arial" font-size="13px" font-style="normal" font-weight="normal" text-decoration="none" x="1605" y="830.5">+lookup(name)</text></g></g><g transform="translate(-454,-326) scale(1,1)"><path fill="none" stroke="#000000" d="M 1680 409 L 1682 543" stroke-miterlimit="10"/></g><g transform="translate(-454,-326) scale(1,1)"><path fill="none" stroke="#000000" d="M 1677.6392862136918 532.9012785327101 L 1682 543 L 1686.0573841417227 532.7756352800529" stroke-miterlimit="10"/></g><g transform="translate(-454,-326) scale(1,1)"><path fill="none" stroke="#000000" d="M 1683 601 L 1686 719" stroke-miterlimit="10"/></g><g transform="translate(-454,-326) scale(1,1)"><path fill="none" stroke="#000000" d="M 1681.5335524011095 708.9475950217688 L 1686 719 L 1689.9498683423508 708.7336208876695" stroke-miterlimit="10"/></g><g transform="translate(-454,-326) scale(1,1)"><rect fill="#C0C0C0" stroke="none" x="471" y="1111" width="342.43603515625" height="87" opacity="0.2"/></g><g transform="translate(-454,-326) scale(1,1)"><rect fill="#ffffff" stroke="none" x="464" y="1104" width="342.43603515625" height="87"/></g><g transform="translate(-454,-326) scale(1,1)"><path fill="none" stroke="#000000" d="M 464 1104 L 806.43603515625 1104 L 806.43603515625 1191 L 464 1191 L 464 1104 Z Z" stroke-miterlimit="10"/></g><g transform="translate(-454,-326) scale(1,1)"><path fill="none" stroke="#000000" d="M 464 1129 L 806.43603515625 1129" stroke-miterlimit="10"/></g><g transform="translate(-454,-326) scale(1,1)"><path fill="none" stroke="#000000" d="M 464 1139 L 806.43603515625 1139" stroke-miterlimit="10"/></g><g transform="translate(-454,-326) scale(1,1)"><g><path fill="none" stroke="none"/><text fill="#000000" stroke="none" font-family="Arial" font-size="13px" font-style="normal" font-weight="bold" text-decoration="none" x="607.218017578125" y="1123.5">Optimizer</text></g></g><g transform="translate(-454,-326) scale(1,1)"><g><path fill="none" stroke="none"/><text fill="#000000" stroke="none" font-family="Arial" font-size="13px" font-style="normal" font-weight="normal" text-decoration="none" x="469" y="1156.5">+minimize(loss, var_list, global_step)</text></g></g><g transform="translate(-454,-326) scale(1,1)"><g><path fill="none" stroke="none"/><text fill="#000000" stroke="none" font-family="Arial" font-size="13px" font-style="normal" font-weight="normal" text-decoration="none" x="469" y="1171.5">+compute_gradients(loss, var_list)</text></g></g><g transform="translate(-454,-326) scale(1,1)"><g><path fill="none" stroke="none"/><text fill="#000000" stroke="none" font-family="Arial" font-size="13px" font-style="normal" font-weight="normal" text-decoration="none" x="469" y="1186.5">+apply_gradients(grads_and_vars, global_step, name)</text></g></g><g transform="translate(-454,-326) scale(1,1)"><rect fill="#C0C0C0" stroke="none" x="991" y="1111" width="177.91162109375" height="90" opacity="0.2"/></g><g transform="translate(-454,-326) scale(1,1)"><rect fill="#ffffff" stroke="none" x="984" y="1104" width="177.91162109375" height="90"/></g><g transform="translate(-454,-326) scale(1,1)"><path fill="none" stroke="#000000" d="M 984 1104 L 1161.91162109375 1104 L 1161.91162109375 1194 L 984 1194 L 984 1104 Z Z" stroke-miterlimit="10"/></g><g transform="translate(-454,-326) scale(1,1)"><path fill="none" stroke="#000000" d="M 984 1142 L 1161.91162109375 1142" stroke-miterlimit="10"/></g><g transform="translate(-454,-326) scale(1,1)"><g><path fill="none" stroke="none"/><text fill="#000000" stroke="none" font-family="Arial" font-size="13px" font-style="normal" font-weight="normal" text-decoration="none" x="1038.955810546875" y="1121.5">«dataType»</text></g></g><g transform="translate(-454,-326) scale(1,1)"><g><path fill="none" stroke="none"/><text fill="#000000" stroke="none" font-family="Arial" font-size="13px" font-style="normal" font-weight="bold" text-decoration="none" x="1030.955810546875" y="1136.5">gradients_impl</text></g></g><g transform="translate(-454,-326) scale(1,1)"><g><path fill="none" stroke="none"/><text fill="#000000" stroke="none" font-family="Arial" font-size="13px" font-style="normal" font-weight="normal" text-decoration="none" x="989" y="1159.5">+gradients()</text></g></g><g transform="translate(-454,-326) scale(1,1)"><g><path fill="none" stroke="none"/><text fill="#000000" stroke="none" font-family="Arial" font-size="13px" font-style="normal" font-weight="normal" text-decoration="none" x="989" y="1174.5">+_GradientsHelper()</text></g></g><g transform="translate(-454,-326) scale(1,1)"><g><path fill="none" stroke="none"/><text fill="#000000" stroke="none" font-family="Arial" font-size="13px" font-style="normal" font-weight="normal" text-decoration="none" x="989" y="1189.5">+_SymGrad()</text></g></g><g transform="translate(-454,-326) scale(1,1)"><rect fill="#C0C0C0" stroke="none" x="1319" y="959" width="179.13623046875" height="60" opacity="0.2"/></g><g transform="translate(-454,-326) scale(1,1)"><rect fill="#ffffff" stroke="none" x="1312" y="952" width="179.13623046875" height="60"/></g><g transform="translate(-454,-326) scale(1,1)"><path fill="none" stroke="#000000" d="M 1312 952 L 1491.13623046875 952 L 1491.13623046875 1012 L 1312 1012 L 1312 952 Z Z" stroke-miterlimit="10"/></g><g transform="translate(-454,-326) scale(1,1)"><path fill="none" stroke="#000000" d="M 1312 990 L 1491.13623046875 990" stroke-miterlimit="10"/></g><g transform="translate(-454,-326) scale(1,1)"><g><path fill="none" stroke="none"/><text fill="#000000" stroke="none" font-family="Arial" font-size="13px" font-style="normal" font-weight="normal" text-decoration="none" x="1367.568115234375" y="969.5">«dataType»</text></g></g><g transform="translate(-454,-326) scale(1,1)"><g><path fill="none" stroke="none"/><text fill="#000000" stroke="none" font-family="Arial" font-size="13px" font-style="normal" font-weight="bold" text-decoration="none" x="1391.068115234375" y="984.5">ops</text></g></g><g transform="translate(-454,-326) scale(1,1)"><g><path fill="none" stroke="none"/><text fill="#000000" stroke="none" font-family="Arial" font-size="13px" font-style="normal" font-weight="normal" text-decoration="none" x="1317" y="1007.5">+get_gradient_function(op)</text></g></g><g transform="translate(-454,-326) scale(1,1)"><rect fill="#C0C0C0" stroke="none" x="1079" y="343" width="136.6005859375" height="60" opacity="0.2"/></g><g transform="translate(-454,-326) scale(1,1)"><rect fill="#ffffff" stroke="none" x="1072" y="336" width="136.6005859375" height="60"/></g><g transform="translate(-454,-326) scale(1,1)"><path fill="none" stroke="#000000" d="M 1072 336 L 1208.6005859375 336 L 1208.6005859375 396 L 1072 396 L 1072 336 Z Z" stroke-miterlimit="10"/></g><g transform="translate(-454,-326) scale(1,1)"><path fill="none" stroke="#000000" d="M 1072 374 L 1208.6005859375 374" stroke-miterlimit="10"/></g><g transform="translate(-454,-326) scale(1,1)"><g><path fill="none" stroke="none"/><text fill="#000000" stroke="none" font-family="Arial" font-size="13px" font-style="normal" font-weight="normal" text-decoration="none" x="1106.30029296875" y="353.5">«dataType»</text></g></g><g transform="translate(-454,-326) scale(1,1)"><g><path fill="none" stroke="none"/><text fill="#000000" stroke="none" font-family="Arial" font-size="13px" font-style="normal" font-weight="bold" text-decoration="none" x="1100.80029296875" y="368.5">math_grad.py</text></g></g><g transform="translate(-454,-326) scale(1,1)"><g><path fill="none" stroke="none"/><text fill="#000000" stroke="none" font-family="Arial" font-size="13px" font-style="normal" font-weight="normal" text-decoration="none" x="1077" y="391.5">+_AbsGrad(op, grad)</text></g></g><g transform="translate(-454,-326) scale(1,1)"><rect fill="#C0C0C0" stroke="none" x="959" y="2199" width="309.802734375" height="60" opacity="0.2"/></g><g transform="translate(-454,-326) scale(1,1)"><rect fill="#ffffff" stroke="none" x="952" y="2192" width="309.802734375" height="60"/></g><g transform="translate(-454,-326) scale(1,1)"><path fill="none" stroke="#000000" d="M 952 2192 L 1261.802734375 2192 L 1261.802734375 2252 L 952 2252 L 952 2192 Z Z" stroke-miterlimit="10"/></g><g transform="translate(-454,-326) scale(1,1)"><path fill="none" stroke="#000000" d="M 952 2230 L 1261.802734375 2230" stroke-miterlimit="10"/></g><g transform="translate(-454,-326) scale(1,1)"><g><path fill="none" stroke="none"/><text fill="#000000" stroke="none" font-family="Arial" font-size="13px" font-style="normal" font-weight="normal" text-decoration="none" x="1072.9013671875" y="2209.5">«dataType»</text></g></g><g transform="translate(-454,-326) scale(1,1)"><g><path fill="none" stroke="none"/><text fill="#000000" stroke="none" font-family="Arial" font-size="13px" font-style="normal" font-weight="bold" text-decoration="none" x="1058.4013671875" y="2224.5">cc math_grad.cc</text></g></g><g transform="translate(-454,-326) scale(1,1)"><g><path fill="none" stroke="none"/><text fill="#000000" stroke="none" font-family="Arial" font-size="13px" font-style="normal" font-weight="normal" text-decoration="none" x="957" y="2247.5">+AbsGrad(scope, op, grad_inputs, grad_outputs)</text></g></g><g transform="translate(-454,-326) scale(1,1)"><rect fill="#C0C0C0" stroke="none" x="1543" y="2175" width="364" height="100" opacity="0.2"/></g><g transform="translate(-454,-326) scale(1,1)"><rect fill="#ffffff" stroke="none" x="1536" y="2168" width="364" height="100"/></g><g transform="translate(-454,-326) scale(1,1)"><path fill="none" stroke="#000000" d="M 1536 2168 L 1900 2168 L 1900 2268 L 1536 2268 L 1536 2168 Z Z" stroke-miterlimit="10"/></g><g transform="translate(-454,-326) scale(1,1)"><path fill="none" stroke="#000000" d="M 1536 2206 L 1900 2206" stroke-miterlimit="10"/></g><g transform="translate(-454,-326) scale(1,1)"><path fill="none" stroke="#000000" d="M 1536 2216 L 1900 2216" stroke-miterlimit="10"/></g><g transform="translate(-454,-326) scale(1,1)"><g><path fill="none" stroke="none"/><text fill="#000000" stroke="none" font-family="Arial" font-size="13px" font-style="normal" font-weight="normal" text-decoration="none" x="1684" y="2185.5">«dataType»</text></g></g><g transform="translate(-454,-326) scale(1,1)"><g><path fill="none" stroke="none"/><text fill="#000000" stroke="none" font-family="Arial" font-size="13px" font-style="normal" font-weight="bold" text-decoration="none" x="1664.5" y="2200.5">grad_op_registry.h</text></g></g><g transform="translate(-454,-326) scale(1,1)"><g><path fill="none" stroke="none"/><text fill="#000000" stroke="none" font-family="Arial" font-size="13px" font-style="normal" font-weight="normal" text-decoration="none" x="1541" y="2233.5">+REGISTER_GRADIENT_OP(name, fn)</text></g></g><g transform="translate(-454,-326) scale(1,1)"><g><path fill="none" stroke="none"/><text fill="#000000" stroke="none" font-family="Arial" font-size="13px" font-style="normal" font-weight="normal" text-decoration="none" x="1541" y="2248.5">+REGISTER_GRADIENT_OP_UNIQ_HELPER(ctr, name, fn)</text></g></g><g transform="translate(-454,-326) scale(1,1)"><g><path fill="none" stroke="none"/><text fill="#000000" stroke="none" font-family="Arial" font-size="13px" font-style="normal" font-weight="normal" text-decoration="none" x="1541" y="2263.5">+REGISTER_GRADIENT_OP_UNIQ(ctr, name, fn)</text></g></g><g transform="translate(-454,-326) scale(1,1)"><rect fill="#C0C0C0" stroke="none" x="1351" y="1119" width="135.953125" height="72" opacity="0.2"/></g><g transform="translate(-454,-326) scale(1,1)"><rect fill="#ffffff" stroke="none" x="1344" y="1112" width="135.953125" height="72"/></g><g transform="translate(-454,-326) scale(1,1)"><path fill="none" stroke="#000000" d="M 1344 1112 L 1479.953125 1112 L 1479.953125 1184 L 1344 1184 L 1344 1112 Z Z" stroke-miterlimit="10"/></g><g transform="translate(-454,-326) scale(1,1)"><path fill="none" stroke="#000000" d="M 1344 1137 L 1479.953125 1137" stroke-miterlimit="10"/></g><g transform="translate(-454,-326) scale(1,1)"><path fill="none" stroke="#000000" d="M 1344 1175 L 1479.953125 1175" stroke-miterlimit="10"/></g><g transform="translate(-454,-326) scale(1,1)"><g><path fill="none" stroke="none"/><text fill="#000000" stroke="none" font-family="Arial" font-size="13px" font-style="normal" font-weight="bold" text-decoration="none" x="1394.9765625" y="1131.5">Defun</text></g></g><g transform="translate(-454,-326) scale(1,1)"><g><path fill="none" stroke="none"/><text fill="#000000" stroke="none" font-family="Arial" font-size="13px" font-style="normal" font-weight="normal" text-decoration="none" x="1349" y="1154.5">+_grad_func</text></g></g><g transform="translate(-454,-326) scale(1,1)"><g><path fill="none" stroke="none"/><text fill="#000000" stroke="none" font-family="Arial" font-size="13px" font-style="normal" font-weight="normal" text-decoration="none" x="1349" y="1169.5">+_python_grad_func</text></g></g><g transform="translate(-454,-326) scale(1,1)"><path fill="none" stroke="#000000" d="M 1444 951 L 1605 836" stroke-miterlimit="10"/></g><g transform="translate(-454,-326) scale(1,1)"><path fill="none" stroke="#000000" d="M 1599.1770238082952 845.3323602733092 L 1605 836 L 1594.2835588144249 838.4815092818907" stroke-miterlimit="10"/></g><g transform="translate(-454,-326) scale(1,1)"><rect fill="#C0C0C0" stroke="none" x="1351" y="1295" width="140.58740234375" height="60" opacity="0.2"/></g><g transform="translate(-454,-326) scale(1,1)"><rect fill="#ffffff" stroke="none" x="1344" y="1288" width="140.58740234375" height="60"/></g><g transform="translate(-454,-326) scale(1,1)"><path fill="none" stroke="#000000" d="M 1344 1288 L 1484.58740234375 1288 L 1484.58740234375 1348 L 1344 1348 L 1344 1288 Z Z" stroke-miterlimit="10"/></g><g transform="translate(-454,-326) scale(1,1)"><path fill="none" stroke="#000000" d="M 1344 1326 L 1484.58740234375 1326" stroke-miterlimit="10"/></g><g transform="translate(-454,-326) scale(1,1)"><g><path fill="none" stroke="none"/><text fill="#000000" stroke="none" font-family="Arial" font-size="13px" font-style="normal" font-weight="normal" text-decoration="none" x="1380.293701171875" y="1305.5">«dataType»</text></g></g><g transform="translate(-454,-326) scale(1,1)"><g><path fill="none" stroke="none"/><text fill="#000000" stroke="none" font-family="Arial" font-size="13px" font-style="normal" font-weight="bold" text-decoration="none" x="1358.293701171875" y="1320.5">gen_functional_ops</text></g></g><g transform="translate(-454,-326) scale(1,1)"><g><path fill="none" stroke="none"/><text fill="#000000" stroke="none" font-family="Arial" font-size="13px" font-style="normal" font-weight="normal" text-decoration="none" x="1349" y="1343.5">+symbolic_gradient()</text></g></g><g transform="translate(-454,-326) scale(1,1)"><rect fill="#C0C0C0" stroke="none" x="1671" y="1295" width="126.44482421875" height="60" opacity="0.2"/></g><g transform="translate(-454,-326) scale(1,1)"><rect fill="#ffffff" stroke="none" x="1664" y="1288" width="126.44482421875" height="60"/></g><g transform="translate(-454,-326) scale(1,1)"><path fill="none" stroke="#000000" d="M 1664 1288 L 1790.44482421875 1288 L 1790.44482421875 1348 L 1664 1348 L 1664 1288 Z Z" stroke-miterlimit="10"/></g><g transform="translate(-454,-326) scale(1,1)"><path fill="none" stroke="#000000" d="M 1664 1326 L 1790.44482421875 1326" stroke-miterlimit="10"/></g><g transform="translate(-454,-326) scale(1,1)"><g><path fill="none" stroke="none"/><text fill="#000000" stroke="none" font-family="Arial" font-size="13px" font-style="normal" font-weight="normal" text-decoration="none" x="1693.222412109375" y="1305.5">«dataType»</text></g></g><g transform="translate(-454,-326) scale(1,1)"><g><path fill="none" stroke="none"/><text fill="#000000" stroke="none" font-family="Arial" font-size="13px" font-style="normal" font-weight="bold" text-decoration="none" x="1676.222412109375" y="1320.5">functional_ops.cc</text></g></g><g transform="translate(-454,-326) scale(1,1)"><g><path fill="none" stroke="none"/><text fill="#000000" stroke="none" font-family="Arial" font-size="13px" font-style="normal" font-weight="normal" text-decoration="none" x="1669" y="1343.5">+SymbolicGradient</text></g></g><g transform="translate(-454,-326) scale(1,1)"><rect fill="#C0C0C0" stroke="none" x="1567" y="1911" width="320.95556640625" height="72" opacity="0.2"/></g><g transform="translate(-454,-326) scale(1,1)"><rect fill="#ffffff" stroke="none" x="1560" y="1904" width="320.95556640625" height="72"/></g><g transform="translate(-454,-326) scale(1,1)"><path fill="none" stroke="#000000" d="M 1560 1904 L 1880.95556640625 1904 L 1880.95556640625 1976 L 1560 1976 L 1560 1904 Z Z" stroke-miterlimit="10"/></g><g transform="translate(-454,-326) scale(1,1)"><path fill="none" stroke="#000000" d="M 1560 1929 L 1880.95556640625 1929" stroke-miterlimit="10"/></g><g transform="translate(-454,-326) scale(1,1)"><path fill="none" stroke="#000000" d="M 1560 1939 L 1880.95556640625 1939" stroke-miterlimit="10"/></g><g transform="translate(-454,-326) scale(1,1)"><g><path fill="none" stroke="none"/><text fill="#000000" stroke="none" font-family="Arial" font-size="13px" font-style="normal" font-weight="bold" text-decoration="none" x="1648.977783203125" y="1923.5">SymbolicGradientBuilder</text></g></g><g transform="translate(-454,-326) scale(1,1)"><g><path fill="none" stroke="none"/><text fill="#000000" stroke="none" font-family="Arial" font-size="13px" font-style="normal" font-weight="normal" text-decoration="none" x="1565" y="1956.5">+AddGradients()</text></g></g><g transform="translate(-454,-326) scale(1,1)"><g><path fill="none" stroke="none"/><text fill="#000000" stroke="none" font-family="Arial" font-size="13px" font-style="normal" font-weight="normal" text-decoration="none" x="1565" y="1971.5">+CallGradFunction(op, grad_inputs, grad_outputs)</text></g></g><g transform="translate(-454,-326) scale(1,1)"><path fill="none" stroke="#000000" d="M 1263 2221 L 1535 2219" stroke-miterlimit="10"/></g><g transform="translate(-454,-326) scale(1,1)"><path fill="#000000" stroke="none" d="M 1524.8685513572693 2223.284127495735 L 1535 2219 L 1524.80664835778 2214.8653195651837 L 1513.0005946990689 2219.161760333095"/></g><g transform="translate(-454,-326) scale(1,1)"><path fill="none" stroke="#000000" d="M 1524.8685513572693 2223.284127495735 L 1535 2219 L 1524.80664835778 2214.8653195651837 L 1513.0005946990689 2219.161760333095 L 1524.8685513572693 2223.284127495735" stroke-miterlimit="10"/></g><g transform="translate(-454,-326) scale(1,1)"><path fill="none" stroke="#000000" d="M 1720 1977 L 1718 2167" stroke-miterlimit="10"/></g><g transform="translate(-454,-326) scale(1,1)"><path fill="none" stroke="#000000" d="M 1713.897685037573 2156.793579866131 L 1718 2167 L 1722.3162541598024 2156.882196383207" stroke-miterlimit="10"/></g><g transform="translate(-454,-326) scale(1,1)"><path fill="none" stroke="#000000" d="M 1486 1318 L 1663 1318" stroke-miterlimit="10"/></g><g transform="translate(-454,-326) scale(1,1)"><path fill="none" stroke="#000000" d="M 1652.837325142376 1322.2095177560159 L 1663 1318 L 1652.837325142376 1313.7904822439841" stroke-miterlimit="10"/></g><g transform="translate(-454,-326) scale(1,1)"><path fill="none" stroke="#000000" d="M 807 1148 L 983 1149" stroke-miterlimit="10"/></g><g transform="translate(-454,-326) scale(1,1)"><path fill="none" stroke="#000000" d="M 972.8135718510506 1153.1517082708558 L 983 1149 L 972.861406507978 1144.7328086516388" stroke-miterlimit="10"/></g><g transform="translate(-454,-326) scale(1,1)"><path fill="none" stroke="#000000" d="M 1163 1103 L 1340 1013" stroke-miterlimit="10"/></g><g transform="translate(-454,-326) scale(1,1)"><path fill="none" stroke="#000000" d="M 1332.8490926808488 1021.3585001353657 L 1340 1013 L 1329.033192816726 1013.8538970692574" stroke-miterlimit="10"/></g><g transform="translate(-454,-326) scale(1,1)"><path fill="none" stroke="#000000" d="M 1163 1149 L 1343 1148" stroke-miterlimit="10"/></g><g transform="translate(-454,-326) scale(1,1)"><path fill="none" stroke="#000000" d="M 1332.8608678190135 1152.2659112293252 L 1343 1148 L 1332.814096121282 1143.8470056376732" stroke-miterlimit="10"/></g><g transform="translate(-454,-326) scale(1,1)"><path fill="none" stroke="#000000" d="M 1163 1194 L 1351 1287" stroke-miterlimit="10"/></g><g transform="translate(-454,-326) scale(1,1)"><path fill="none" stroke="#000000" d="M 1340.0244482135172 1286.2670177476668 L 1351 1287 L 1343.757409625628 1278.7208161833998" stroke-miterlimit="10"/></g><g transform="translate(-454,-326) scale(1,1)"><path fill="none" stroke="#000000" d="M 1210 367 L 1607 371" stroke-miterlimit="10"/></g><g transform="translate(-454,-326) scale(1,1)"><path fill="none" stroke="#000000" d="M 1596.7954298209988 375.106914591496 L 1607 371 L 1596.8802520699335 366.6883063847351" stroke-miterlimit="10"/></g><g transform="translate(-454,-326) scale(1,1)"><rect fill="#C0C0C0" stroke="none" x="2087" y="1919" width="166" height="60" opacity="0.2"/></g><g transform="translate(-454,-326) scale(1,1)"><rect fill="#ffffff" stroke="none" x="2080" y="1912" width="166" height="60"/></g><g transform="translate(-454,-326) scale(1,1)"><path fill="none" stroke="#000000" d="M 2080 1912 L 2246 1912 L 2246 1972 L 2080 1972 L 2080 1912 Z Z" stroke-miterlimit="10"/></g><g transform="translate(-454,-326) scale(1,1)"><path fill="none" stroke="#000000" d="M 2080 1950 L 2246 1950" stroke-miterlimit="10"/></g><g transform="translate(-454,-326) scale(1,1)"><g><path fill="none" stroke="none"/><text fill="#000000" stroke="none" font-family="Arial" font-size="13px" font-style="normal" font-weight="normal" text-decoration="none" x="2129" y="1929.5">«dataType»</text></g></g><g transform="translate(-454,-326) scale(1,1)"><g><path fill="none" stroke="none"/><text fill="#000000" stroke="none" font-family="Arial" font-size="13px" font-style="normal" font-weight="bold" text-decoration="none" x="2090" y="1944.5">cc framework gradients.h</text></g></g><g transform="translate(-454,-326) scale(1,1)"><g><path fill="none" stroke="none"/><text fill="#000000" stroke="none" font-family="Arial" font-size="13px" font-style="normal" font-weight="normal" text-decoration="none" x="2085" y="1967.5">+AddSymbolicGradients()</text></g></g><g transform="translate(-454,-326) scale(1,1)"><rect fill="#C0C0C0" stroke="none" x="2071" y="1519" width="195" height="85" opacity="0.2"/></g><g transform="translate(-454,-326) scale(1,1)"><rect fill="#ffffff" stroke="none" x="2064" y="1512" width="195" height="85"/></g><g transform="translate(-454,-326) scale(1,1)"><path fill="none" stroke="#000000" d="M 2064 1512 L 2259 1512 L 2259 1597 L 2064 1597 L 2064 1512 Z Z" stroke-miterlimit="10"/></g><g transform="translate(-454,-326) scale(1,1)"><path fill="none" stroke="#000000" d="M 2064 1537 L 2259 1537" stroke-miterlimit="10"/></g><g transform="translate(-454,-326) scale(1,1)"><path fill="none" stroke="#000000" d="M 2064 1560 L 2259 1560" stroke-miterlimit="10"/></g><g transform="translate(-454,-326) scale(1,1)"><g><path fill="none" stroke="none"/><text fill="#000000" stroke="none" font-family="Arial" font-size="13px" font-style="normal" font-weight="bold" text-decoration="none" x="2079" y="1531.5">comment_runtime function.h</text></g></g><g transform="translate(-454,-326) scale(1,1)"><g><path fill="none" stroke="none"/><text fill="#000000" stroke="none" font-family="Arial" font-size="13px" font-style="normal" font-weight="normal" text-decoration="none" x="2069" y="1554.5">+FunctionLibraryRuntime</text></g></g><g transform="translate(-454,-326) scale(1,1)"><g><path fill="none" stroke="none"/><text fill="#000000" stroke="none" font-family="Arial" font-size="13px" font-style="normal" font-weight="normal" text-decoration="none" x="2069" y="1577.5">+SymbolicGradient()</text></g></g><g transform="translate(-454,-326) scale(1,1)"><g><path fill="none" stroke="none"/><text fill="#000000" stroke="none" font-family="Arial" font-size="13px" font-style="normal" font-weight="normal" text-decoration="none" x="2069" y="1592.5">+NewFunctionLibraryRuntime()</text></g></g><g transform="translate(-454,-326) scale(1,1)"><rect fill="#C0C0C0" stroke="none" x="2087" y="1735" width="161" height="57" opacity="0.2"/></g><g transform="translate(-454,-326) scale(1,1)"><rect fill="#ffffff" stroke="none" x="2080" y="1728" width="161" height="57"/></g><g transform="translate(-454,-326) scale(1,1)"><path fill="none" stroke="#000000" d="M 2080 1728 L 2241 1728 L 2241 1785 L 2080 1785 L 2080 1728 Z Z" stroke-miterlimit="10"/></g><g transform="translate(-454,-326) scale(1,1)"><path fill="none" stroke="#000000" d="M 2080 1753 L 2241 1753" stroke-miterlimit="10"/></g><g transform="translate(-454,-326) scale(1,1)"><path fill="none" stroke="#000000" d="M 2080 1763 L 2241 1763" stroke-miterlimit="10"/></g><g transform="translate(-454,-326) scale(1,1)"><g><path fill="none" stroke="none"/><text fill="#000000" stroke="none" font-family="Arial" font-size="13px" font-style="normal" font-weight="bold" text-decoration="none" x="2090.5" y="1747.5">SymbolicGradientHelper</text></g></g><g transform="translate(-454,-326) scale(1,1)"><g><path fill="none" stroke="none"/><text fill="#000000" stroke="none" font-family="Arial" font-size="13px" font-style="normal" font-weight="normal" text-decoration="none" x="2085" y="1780.5">+Compute()</text></g></g><g transform="translate(-454,-326) scale(1,1)"><rect fill="#C0C0C0" stroke="none" x="2071" y="1263" width="192" height="128" opacity="0.2"/></g><g transform="translate(-454,-326) scale(1,1)"><rect fill="#ffffff" stroke="none" x="2064" y="1256" width="192" height="128"/></g><g transform="translate(-454,-326) scale(1,1)"><path fill="none" stroke="#000000" d="M 2064 1256 L 2256 1256 L 2256 1384 L 2064 1384 L 2064 1256 Z Z" stroke-miterlimit="10"/></g><g transform="translate(-454,-326) scale(1,1)"><path fill="none" stroke="#000000" d="M 2064 1294 L 2256 1294" stroke-miterlimit="10"/></g><g transform="translate(-454,-326) scale(1,1)"><path fill="none" stroke="#000000" d="M 2064 1347 L 2256 1347" stroke-miterlimit="10"/></g><g transform="translate(-454,-326) scale(1,1)"><g><path fill="none" stroke="none"/><text fill="#000000" stroke="none" font-family="Arial" font-size="13px" font-style="normal" font-weight="normal" text-decoration="none" x="2126" y="1273.5">«dataType»</text></g></g><g transform="translate(-454,-326) scale(1,1)"><g><path fill="none" stroke="none"/><text fill="#000000" stroke="none" font-family="Arial" font-size="13px" font-style="normal" font-weight="bold" text-decoration="none" x="2096" y="1288.5">framework function.cc</text></g></g><g transform="translate(-454,-326) scale(1,1)"><g><path fill="none" stroke="none"/><text fill="#000000" stroke="none" font-family="Arial" font-size="13px" font-style="normal" font-weight="normal" text-decoration="none" x="2069" y="1311.5">+OpGradFactory</text></g></g><g transform="translate(-454,-326) scale(1,1)"><g><path fill="none" stroke="none"/><text fill="#000000" stroke="none" font-family="Arial" font-size="13px" font-style="normal" font-weight="normal" text-decoration="none" x="2069" y="1326.5">+FunctionLibraryRuntime</text></g></g><g transform="translate(-454,-326) scale(1,1)"><g><path fill="none" stroke="none"/><text fill="#000000" stroke="none" font-family="Arial" font-size="13px" font-style="normal" font-weight="normal" text-decoration="none" x="2069" y="1341.5">+FunctionLibraryDefinition</text></g></g><g transform="translate(-454,-326) scale(1,1)"><g><path fill="none" stroke="none"/><text fill="#000000" stroke="none" font-family="Arial" font-size="13px" font-style="normal" font-weight="normal" text-decoration="none" x="2069" y="1364.5">+REGISTER_OP_GRADIENT()</text></g></g><g transform="translate(-454,-326) scale(1,1)"><g><path fill="none" stroke="none"/><text fill="#000000" stroke="none" font-family="Arial" font-size="13px" font-style="normal" font-weight="normal" text-decoration="none" x="2069" y="1379.5">+GetOpGradientCreator()</text></g></g><g transform="translate(-454,-326) scale(1,1)"><rect fill="#C0C0C0" stroke="none" x="2623" y="1559" width="151" height="44" opacity="0.2"/></g><g transform="translate(-454,-326) scale(1,1)"><rect fill="#ffffff" stroke="none" x="2616" y="1552" width="151" height="44"/></g><g transform="translate(-454,-326) scale(1,1)"><path fill="none" stroke="#000000" d="M 2616 1552 L 2767 1552 L 2767 1596 L 2616 1596 L 2616 1552 Z Z" stroke-miterlimit="10"/></g><g transform="translate(-454,-326) scale(1,1)"><path fill="none" stroke="#000000" d="M 2616 1577 L 2767 1577" stroke-miterlimit="10"/></g><g transform="translate(-454,-326) scale(1,1)"><path fill="none" stroke="#000000" d="M 2616 1587 L 2767 1587" stroke-miterlimit="10"/></g><g transform="translate(-454,-326) scale(1,1)"><g><path fill="none" stroke="none"/><text fill="#000000" stroke="none" font-family="Arial" font-size="13px" font-style="normal" font-weight="bold" text-decoration="none" x="2625" y="1571.5">core ops math_grad.cc</text></g></g><g transform="translate(-454,-326) scale(1,1)"><path fill="none" stroke="#000000" d="M 2079 1942 L 1882 1941" stroke-miterlimit="10"/></g><g transform="translate(-454,-326) scale(1,1)"><path fill="none" stroke="#000000" d="M 1892.183911763364 1936.842122994121 L 1882 1941 L 1892.1411760930769 1945.2610500406834" stroke-miterlimit="10"/></g><g transform="translate(-454,-326) scale(1,1)"><path fill="none" stroke="#000000" d="M 2160 1786 L 2163 1911" stroke-miterlimit="10"/></g><g transform="translate(-454,-326) scale(1,1)"><path fill="none" stroke="#000000" d="M 2158.547860079112 1900.9412500714632 L 2163 1911 L 2166.964471955877 1900.7392513864208" stroke-miterlimit="10"/></g><g transform="translate(-454,-326) scale(1,1)"><path fill="none" stroke="#000000" d="M 2643 1551 L 2257 1366" stroke-miterlimit="10"/></g><g transform="translate(-454,-326) scale(1,1)"><path fill="none" stroke="#000000" d="M 2267.9838283541953 1366.5962505224968 L 2257 1366 L 2264.345126724897 1374.1883523003842" stroke-miterlimit="10"/></g><g transform="translate(-454,-326) scale(1,1)"><path fill="none" stroke="#000000" d="M 2161 1598 L 2160 1727" stroke-miterlimit="10"/></g><g transform="translate(-454,-326) scale(1,1)"><path fill="none" stroke="#000000" d="M 2155.869386776898 1716.8049995389342 L 2160 1727 L 2164.2881693397053 1716.870261419266" stroke-miterlimit="10"/></g><g transform="translate(-454,-326) scale(1,1)"><path fill="none" stroke="#000000" d="M 2160 1385 L 2161 1511" stroke-miterlimit="10"/></g><g transform="translate(-454,-326) scale(1,1)"><path fill="none" stroke="#000000" d="M 2156.7099612030142 1500.87105301029 L 2161 1511 L 2165.128731577801 1500.804237372395" stroke-miterlimit="10"/></g><g transform="translate(-454,-326) scale(1,1)"><path fill="none" stroke="#000000" d="M 1791 1318 L 2063 1320" stroke-miterlimit="10"/></g><g transform="translate(-454,-326) scale(1,1)"><path fill="none" stroke="#000000" d="M 2052.80664835778 1324.1346804348161 L 2063 1320 L 2052.8685513572696 1315.715872504265" stroke-miterlimit="10"/></g></g></svg>