<svg version="1.1" xmlns="http://www.w3.org/2000/svg" xmlns:xlink="http://www.w3.org/1999/xlink" width="1076.4111328125" height="492"><defs/><g><g transform="translate(-230,-166) scale(1,1)"><rect fill="#C0C0C0" stroke="none" x="1119" y="183" width="184.4111328125" height="150" opacity="0.2"/></g><g transform="translate(-230,-166) scale(1,1)"><rect fill="#ffffff" stroke="none" x="1112" y="176" width="184.4111328125" height="150"/></g><g transform="translate(-230,-166) scale(1,1)"><path fill="none" stroke="#000000" d="M 1112 176 L 1296.4111328125 176 L 1296.4111328125 326 L 1112 326 L 1112 176 Z Z" stroke-miterlimit="10"/></g><g transform="translate(-230,-166) scale(1,1)"><path fill="none" stroke="#000000" d="M 1112 214 L 1296.4111328125 214" stroke-miterlimit="10"/></g><g transform="translate(-230,-166) scale(1,1)"><g><path fill="none" stroke="none"/><text fill="#000000" stroke="none" font-family="Arial" font-size="13px" font-style="normal" font-weight="normal" text-decoration="none" x="1170.20556640625" y="193.5">«dataType»</text></g></g><g transform="translate(-230,-166) scale(1,1)"><g><path fill="none" stroke="none"/><text fill="#000000" stroke="none" font-family="Arial" font-size="13px" font-style="normal" font-weight="bold" text-decoration="none" x="1189.20556640625" y="208.5">Node</text></g></g><g transform="translate(-230,-166) scale(1,1)"><g><path fill="none" stroke="none"/><text fill="#000000" stroke="none" font-family="Arial" font-size="13px" font-style="normal" font-weight="normal" text-decoration="none" x="1117" y="231.5">+left_child</text></g></g><g transform="translate(-230,-166) scale(1,1)"><g><path fill="none" stroke="none"/><text fill="#000000" stroke="none" font-family="Arial" font-size="13px" font-style="normal" font-weight="normal" text-decoration="none" x="1117" y="246.5">+right_child</text></g></g><g transform="translate(-230,-166) scale(1,1)"><g><path fill="none" stroke="none"/><text fill="#000000" stroke="none" font-family="Arial" font-size="13px" font-style="normal" font-weight="normal" text-decoration="none" x="1117" y="261.5">+feature</text></g></g><g transform="translate(-230,-166) scale(1,1)"><g><path fill="none" stroke="none"/><text fill="#000000" stroke="none" font-family="Arial" font-size="13px" font-style="normal" font-weight="normal" text-decoration="none" x="1117" y="276.5">+threshold</text></g></g><g transform="translate(-230,-166) scale(1,1)"><g><path fill="none" stroke="none"/><text fill="#000000" stroke="none" font-family="Arial" font-size="13px" font-style="normal" font-weight="normal" text-decoration="none" x="1117" y="291.5">+impurity</text></g></g><g transform="translate(-230,-166) scale(1,1)"><g><path fill="none" stroke="none"/><text fill="#000000" stroke="none" font-family="Arial" font-size="13px" font-style="normal" font-weight="normal" text-decoration="none" x="1117" y="306.5">+n_node_samples</text></g></g><g transform="translate(-230,-166) scale(1,1)"><g><path fill="none" stroke="none"/><text fill="#000000" stroke="none" font-family="Arial" font-size="13px" font-style="normal" font-weight="normal" text-decoration="none" x="1117" y="321.5">+weighted_n_node_samples</text></g></g><g transform="translate(-230,-166) scale(1,1)"><rect fill="#C0C0C0" stroke="none" x="711" y="191" width="215.6416015625" height="132" opacity="0.2"/></g><g transform="translate(-230,-166) scale(1,1)"><rect fill="#ffffff" stroke="none" x="704" y="184" width="215.6416015625" height="132"/></g><g transform="translate(-230,-166) scale(1,1)"><path fill="none" stroke="#000000" d="M 704 184 L 919.6416015625 184 L 919.6416015625 316 L 704 316 L 704 184 Z Z" stroke-miterlimit="10"/></g><g transform="translate(-230,-166) scale(1,1)"><path fill="none" stroke="#000000" d="M 704 209 L 919.6416015625 209" stroke-miterlimit="10"/></g><g transform="translate(-230,-166) scale(1,1)"><path fill="none" stroke="#000000" d="M 704 219 L 919.6416015625 219" stroke-miterlimit="10"/></g><g transform="translate(-230,-166) scale(1,1)"><g><path fill="none" stroke="none"/><text fill="#000000" stroke="none" font-family="Arial" font-size="13px" font-style="normal" font-weight="bold" text-decoration="none" x="798.82080078125" y="203.5">Tree</text></g></g><g transform="translate(-230,-166) scale(1,1)"><g><path fill="none" stroke="none"/><text fill="#000000" stroke="none" font-family="Arial" font-size="13px" font-style="normal" font-weight="normal" text-decoration="none" x="709" y="236.5">+_add_note()</text></g></g><g transform="translate(-230,-166) scale(1,1)"><g><path fill="none" stroke="none"/><text fill="#000000" stroke="none" font-family="Arial" font-size="13px" font-style="normal" font-weight="normal" text-decoration="none" x="709" y="251.5">+_resize()</text></g></g><g transform="translate(-230,-166) scale(1,1)"><g><path fill="none" stroke="none"/><text fill="#000000" stroke="none" font-family="Arial" font-size="13px" font-style="normal" font-weight="normal" text-decoration="none" x="709" y="266.5">+predict()</text></g></g><g transform="translate(-230,-166) scale(1,1)"><g><path fill="none" stroke="none"/><text fill="#000000" stroke="none" font-family="Arial" font-size="13px" font-style="normal" font-weight="normal" text-decoration="none" x="709" y="281.5">+apply()</text></g></g><g transform="translate(-230,-166) scale(1,1)"><g><path fill="none" stroke="none"/><text fill="#000000" stroke="none" font-family="Arial" font-size="13px" font-style="normal" font-weight="normal" text-decoration="none" x="709" y="296.5">+decision_path()</text></g></g><g transform="translate(-230,-166) scale(1,1)"><g><path fill="none" stroke="none"/><text fill="#000000" stroke="none" font-family="Arial" font-size="13px" font-style="normal" font-weight="normal" text-decoration="none" x="709" y="311.5">+compute_feature_importances()</text></g></g><g transform="translate(-230,-166) scale(1,1)"><rect fill="#C0C0C0" stroke="none" x="407" y="183" width="125" height="145" opacity="0.2"/></g><g transform="translate(-230,-166) scale(1,1)"><rect fill="#ffffff" stroke="none" x="400" y="176" width="125" height="145"/></g><g transform="translate(-230,-166) scale(1,1)"><path fill="none" stroke="#000000" d="M 400 176 L 525 176 L 525 321 L 400 321 L 400 176 Z Z" stroke-miterlimit="10"/></g><g transform="translate(-230,-166) scale(1,1)"><path fill="none" stroke="#000000" d="M 400 201 L 525 201" stroke-miterlimit="10"/></g><g transform="translate(-230,-166) scale(1,1)"><path fill="none" stroke="#000000" d="M 400 284 L 525 284" stroke-miterlimit="10"/></g><g transform="translate(-230,-166) scale(1,1)"><g><path fill="none" stroke="none"/><text fill="#000000" stroke="none" font-family="Arial" font-size="13px" font-style="normal" font-weight="bold" text-decoration="none" x="429.5" y="195.5">TreeBuilder</text></g></g><g transform="translate(-230,-166) scale(1,1)"><g><path fill="none" stroke="none"/><text fill="#000000" stroke="none" font-family="Arial" font-size="13px" font-style="normal" font-weight="normal" text-decoration="none" x="405" y="218.5">+splitter</text></g></g><g transform="translate(-230,-166) scale(1,1)"><g><path fill="none" stroke="none"/><text fill="#000000" stroke="none" font-family="Arial" font-size="13px" font-style="normal" font-weight="normal" text-decoration="none" x="405" y="233.5">+min_samples_split</text></g></g><g transform="translate(-230,-166) scale(1,1)"><g><path fill="none" stroke="none"/><text fill="#000000" stroke="none" font-family="Arial" font-size="13px" font-style="normal" font-weight="normal" text-decoration="none" x="405" y="248.5">+min_samples_leaf</text></g></g><g transform="translate(-230,-166) scale(1,1)"><g><path fill="none" stroke="none"/><text fill="#000000" stroke="none" font-family="Arial" font-size="13px" font-style="normal" font-weight="normal" text-decoration="none" x="405" y="263.5">+min_weight_leaf</text></g></g><g transform="translate(-230,-166) scale(1,1)"><g><path fill="none" stroke="none"/><text fill="#000000" stroke="none" font-family="Arial" font-size="13px" font-style="normal" font-weight="normal" text-decoration="none" x="405" y="278.5">+max_depth</text></g></g><g transform="translate(-230,-166) scale(1,1)"><g><path fill="none" stroke="none"/><text fill="#000000" stroke="none" font-family="Arial" font-size="13px" font-style="normal" font-weight="normal" text-decoration="none" x="405" y="301.5">+build()</text></g></g><g transform="translate(-230,-166) scale(1,1)"><g><path fill="none" stroke="none"/><text fill="#000000" stroke="none" font-family="Arial" font-size="13px" font-style="normal" font-weight="normal" text-decoration="none" x="405" y="316.5">+_check_input()</text></g></g><g transform="translate(-230,-166) scale(1,1)"><path fill="none" stroke="#000000" d="M 526 248 L 703 249" stroke-miterlimit="10"/></g><g transform="translate(-230,-166) scale(1,1)"><path fill="#000000" stroke="none" d="M 692.8137051246281 253.15203524936533 L 703 249 L 692.861269537907 244.73313409901056 L 681.0003511039827 248.87570819832757"/></g><g transform="translate(-230,-166) scale(1,1)"><path fill="none" stroke="#000000" d="M 692.8137051246281 253.15203524936533 L 703 249 L 692.861269537907 244.73313409901056 L 681.0003511039827 248.87570819832757 L 692.8137051246281 253.15203524936533" stroke-miterlimit="10"/></g><g transform="translate(-230,-166) scale(1,1)"><g><path fill="none" stroke="none"/><text fill="#000000" stroke="none" font-family="Arial" font-size="13px" font-style="normal" font-weight="normal" text-decoration="none" x="599" y="240">+1..1</text></g></g><g transform="translate(-230,-166) scale(1,1)"><path fill="none" stroke="#000000" d="M 921 250 L 1111 251" stroke-miterlimit="10"/></g><g transform="translate(-230,-166) scale(1,1)"><path fill="#000000" stroke="none" d="M 1100.815310846965 255.15597243206102 L 1111 251 L 1100.8596209464772 246.73705352474659 L 1089.0003047028108 250.8842121300148"/></g><g transform="translate(-230,-166) scale(1,1)"><path fill="none" stroke="#000000" d="M 1100.815310846965 255.15597243206102 L 1111 251 L 1100.8596209464772 246.73705352474659 L 1089.0003047028108 250.8842121300148 L 1100.815310846965 255.15597243206102" stroke-miterlimit="10"/></g><g transform="translate(-230,-166) scale(1,1)"><g><path fill="none" stroke="none"/><text fill="#000000" stroke="none" font-family="Arial" font-size="13px" font-style="normal" font-weight="normal" text-decoration="none" x="1002" y="242">+1..*</text></g></g><g transform="translate(-230,-166) scale(1,1)"><rect fill="#C0C0C0" stroke="none" x="247" y="431" width="145" height="57" opacity="0.2"/></g><g transform="translate(-230,-166) scale(1,1)"><rect fill="#ffffff" stroke="none" x="240" y="424" width="145" height="57"/></g><g transform="translate(-230,-166) scale(1,1)"><path fill="none" stroke="#000000" d="M 240 424 L 385 424 L 385 481 L 240 481 L 240 424 Z Z" stroke-miterlimit="10"/></g><g transform="translate(-230,-166) scale(1,1)"><path fill="none" stroke="#000000" d="M 240 449 L 385 449" stroke-miterlimit="10"/></g><g transform="translate(-230,-166) scale(1,1)"><path fill="none" stroke="#000000" d="M 240 459 L 385 459" stroke-miterlimit="10"/></g><g transform="translate(-230,-166) scale(1,1)"><g><path fill="none" stroke="none"/><text fill="#000000" stroke="none" font-family="Arial" font-size="13px" font-style="normal" font-weight="bold" text-decoration="none" x="249.5" y="443.5">DepthFirstTreeBuilder</text></g></g><g transform="translate(-230,-166) scale(1,1)"><g><path fill="none" stroke="none"/><text fill="#000000" stroke="none" font-family="Arial" font-size="13px" font-style="normal" font-weight="normal" text-decoration="none" x="245" y="476.5">+build()</text></g></g><g transform="translate(-230,-166) scale(1,1)"><rect fill="#C0C0C0" stroke="none" x="271" y="583" width="88" height="72" opacity="0.2"/></g><g transform="translate(-230,-166) scale(1,1)"><rect fill="#ffffff" stroke="none" x="264" y="576" width="88" height="72"/></g><g transform="translate(-230,-166) scale(1,1)"><path fill="none" stroke="#000000" d="M 264 576 L 352 576 L 352 648 L 264 648 L 264 576 Z Z" stroke-miterlimit="10"/></g><g transform="translate(-230,-166) scale(1,1)"><path fill="none" stroke="#000000" d="M 264 601 L 352 601" stroke-miterlimit="10"/></g><g transform="translate(-230,-166) scale(1,1)"><path fill="none" stroke="#000000" d="M 264 611 L 352 611" stroke-miterlimit="10"/></g><g transform="translate(-230,-166) scale(1,1)"><g><path fill="none" stroke="none"/><text fill="#000000" stroke="none" font-family="Arial" font-size="13px" font-style="normal" font-weight="bold" text-decoration="none" x="273.5" y="595.5">_utils.Stack</text></g></g><g transform="translate(-230,-166) scale(1,1)"><g><path fill="none" stroke="none"/><text fill="#000000" stroke="none" font-family="Arial" font-size="13px" font-style="normal" font-weight="normal" text-decoration="none" x="269" y="628.5">+push()</text></g></g><g transform="translate(-230,-166) scale(1,1)"><g><path fill="none" stroke="none"/><text fill="#000000" stroke="none" font-family="Arial" font-size="13px" font-style="normal" font-weight="normal" text-decoration="none" x="269" y="643.5">+pop()</text></g></g><g transform="translate(-230,-166) scale(1,1)"><path fill="none" stroke="#000000" d="M 333 423 L 408 322" stroke-miterlimit="10"/></g><g transform="translate(-230,-166) scale(1,1)"><path fill="#FFFFFF" stroke="none" d="M 402.64172515799646 343.33749963602935 L 408 322 L 389.1232368375562 333.29901820995985"/></g><g transform="translate(-230,-166) scale(1,1)"><path fill="none" stroke="#000000" d="M 402.64172515799646 343.33749963602935 L 408 322 L 389.1232368375562 333.29901820995985 L 402.64172515799646 343.33749963602935" stroke-miterlimit="10"/></g><g transform="translate(-230,-166) scale(1,1)"><path fill="none" stroke="#000000" d="M 311 482 L 309 575" stroke-miterlimit="10"/></g><g transform="translate(-230,-166) scale(1,1)"><path fill="none" stroke="#000000" d="M 305.0099569447797 564.7491680134007 L 309 575 L 313.4270463089558 564.9301806878991" stroke-miterlimit="10"/></g><g transform="translate(-230,-166) scale(1,1)"><g><path fill="none" stroke="none"/><text fill="#000000" stroke="none" font-family="Arial" font-size="13px" font-style="normal" font-weight="normal" text-decoration="none" x="309" y="535">+1..1</text></g></g><g transform="translate(-230,-166) scale(1,1)"><rect fill="#C0C0C0" stroke="none" x="535" y="431" width="136" height="57" opacity="0.2"/></g><g transform="translate(-230,-166) scale(1,1)"><rect fill="#ffffff" stroke="none" x="528" y="424" width="136" height="57"/></g><g transform="translate(-230,-166) scale(1,1)"><path fill="none" stroke="#000000" d="M 528 424 L 664 424 L 664 481 L 528 481 L 528 424 Z Z" stroke-miterlimit="10"/></g><g transform="translate(-230,-166) scale(1,1)"><path fill="none" stroke="#000000" d="M 528 449 L 664 449" stroke-miterlimit="10"/></g><g transform="translate(-230,-166) scale(1,1)"><path fill="none" stroke="#000000" d="M 528 459 L 664 459" stroke-miterlimit="10"/></g><g transform="translate(-230,-166) scale(1,1)"><g><path fill="none" stroke="none"/><text fill="#000000" stroke="none" font-family="Arial" font-size="13px" font-style="normal" font-weight="bold" text-decoration="none" x="536.5" y="443.5">BestFirstTreeBuilder</text></g></g><g transform="translate(-230,-166) scale(1,1)"><g><path fill="none" stroke="none"/><text fill="#000000" stroke="none" font-family="Arial" font-size="13px" font-style="normal" font-weight="normal" text-decoration="none" x="533" y="476.5">+build()</text></g></g><g transform="translate(-230,-166) scale(1,1)"><path fill="none" stroke="#000000" d="M 577 423 L 511 322" stroke-miterlimit="10"/></g><g transform="translate(-230,-166) scale(1,1)"><path fill="#FFFFFF" stroke="none" d="M 529.1662013380095 334.40923563104917 L 511 322 L 515.0707894904501 343.6200988185633"/></g><g transform="translate(-230,-166) scale(1,1)"><path fill="none" stroke="#000000" d="M 529.1662013380095 334.40923563104917 L 511 322 L 515.0707894904501 343.6200988185633 L 529.1662013380095 334.40923563104917" stroke-miterlimit="10"/></g><g transform="translate(-230,-166) scale(1,1)"><rect fill="#C0C0C0" stroke="none" x="543" y="583" width="124" height="72" opacity="0.2"/></g><g transform="translate(-230,-166) scale(1,1)"><rect fill="#ffffff" stroke="none" x="536" y="576" width="124" height="72"/></g><g transform="translate(-230,-166) scale(1,1)"><path fill="none" stroke="#000000" d="M 536 576 L 660 576 L 660 648 L 536 648 L 536 576 Z Z" stroke-miterlimit="10"/></g><g transform="translate(-230,-166) scale(1,1)"><path fill="none" stroke="#000000" d="M 536 601 L 660 601" stroke-miterlimit="10"/></g><g transform="translate(-230,-166) scale(1,1)"><path fill="none" stroke="#000000" d="M 536 611 L 660 611" stroke-miterlimit="10"/></g><g transform="translate(-230,-166) scale(1,1)"><g><path fill="none" stroke="none"/><text fill="#000000" stroke="none" font-family="Arial" font-size="13px" font-style="normal" font-weight="bold" text-decoration="none" x="545" y="595.5">_utils.PriorityHeap</text></g></g><g transform="translate(-230,-166) scale(1,1)"><g><path fill="none" stroke="none"/><text fill="#000000" stroke="none" font-family="Arial" font-size="13px" font-style="normal" font-weight="normal" text-decoration="none" x="541" y="628.5">+push()</text></g></g><g transform="translate(-230,-166) scale(1,1)"><g><path fill="none" stroke="none"/><text fill="#000000" stroke="none" font-family="Arial" font-size="13px" font-style="normal" font-weight="normal" text-decoration="none" x="541" y="643.5">+pop()</text></g></g><g transform="translate(-230,-166) scale(1,1)"><path fill="none" stroke="#000000" d="M 596 482 L 598 575" stroke-miterlimit="10"/></g><g transform="translate(-230,-166) scale(1,1)"><path fill="none" stroke="#000000" d="M 593.5729536910442 564.9301806878991 L 598 575 L 601.9900430552203 564.7491680134007" stroke-miterlimit="10"/></g><g transform="translate(-230,-166) scale(1,1)"><g><path fill="none" stroke="none"/><text fill="#000000" stroke="none" font-family="Arial" font-size="13px" font-style="normal" font-weight="normal" text-decoration="none" x="596" y="534">+1..1</text></g></g></g></svg>