<svg version="1.1" xmlns="http://www.w3.org/2000/svg" xmlns:xlink="http://www.w3.org/1999/xlink" width="590.58251953125" height="668"><defs/><g><g transform="translate(-246,-100) scale(1,1)"><rect fill="#C0C0C0" stroke="none" x="391" y="117" width="210.58251953125" height="72" opacity="0.2"/></g><g transform="translate(-246,-100) scale(1,1)"><rect fill="#ffffff" stroke="none" x="384" y="110" width="210.58251953125" height="72"/></g><g transform="translate(-246,-100) scale(1,1)"><path fill="none" stroke="#000000" d="M 384 110 L 594.58251953125 110 L 594.58251953125 182 L 384 182 L 384 110 Z Z" stroke-miterlimit="10"/></g><g transform="translate(-246,-100) scale(1,1)"><path fill="none" stroke="#000000" d="M 384 135 L 594.58251953125 135" stroke-miterlimit="10"/></g><g transform="translate(-246,-100) scale(1,1)"><path fill="none" stroke="#000000" d="M 384 145 L 594.58251953125 145" stroke-miterlimit="10"/></g><g transform="translate(-246,-100) scale(1,1)"><g><path fill="none" stroke="none"/><text fill="#000000" stroke="none" font-family="Arial" font-size="13px" font-style="normal" font-weight="bold" text-decoration="none" x="465.291259765625" y="129.5">Criterion</text></g></g><g transform="translate(-246,-100) scale(1,1)"><g><path fill="none" stroke="none"/><text fill="#000000" stroke="none" font-family="Arial" font-size="13px" font-style="normal" font-weight="normal" text-decoration="none" x="389" y="162.5">+proxy_impurity_improvement()</text></g></g><g transform="translate(-246,-100) scale(1,1)"><g><path fill="none" stroke="none"/><text fill="#000000" stroke="none" font-family="Arial" font-size="13px" font-style="normal" font-weight="normal" text-decoration="none" x="389" y="177.5">+impurity_improvement()</text></g></g><g transform="translate(-246,-100) scale(1,1)"><rect fill="#C0C0C0" stroke="none" x="359" y="285" width="158.83642578125" height="117" opacity="0.2"/></g><g transform="translate(-246,-100) scale(1,1)"><rect fill="#ffffff" stroke="none" x="352" y="278" width="158.83642578125" height="117"/></g><g transform="translate(-246,-100) scale(1,1)"><path fill="none" stroke="#000000" d="M 352 278 L 510.83642578125 278 L 510.83642578125 395 L 352 395 L 352 278 Z Z" stroke-miterlimit="10"/></g><g transform="translate(-246,-100) scale(1,1)"><path fill="none" stroke="#000000" d="M 352 303 L 510.83642578125 303" stroke-miterlimit="10"/></g><g transform="translate(-246,-100) scale(1,1)"><path fill="none" stroke="#000000" d="M 352 313 L 510.83642578125 313" stroke-miterlimit="10"/></g><g transform="translate(-246,-100) scale(1,1)"><g><path fill="none" stroke="none"/><text fill="#000000" stroke="none" font-family="Arial" font-size="13px" font-style="normal" font-weight="bold" text-decoration="none" x="368.418212890625" y="297.5">ClassificationCriterion</text></g></g><g transform="translate(-246,-100) scale(1,1)"><g><path fill="none" stroke="none"/><text fill="#000000" stroke="none" font-family="Arial" font-size="13px" font-style="normal" font-weight="normal" text-decoration="none" x="357" y="330.5">+init()</text></g></g><g transform="translate(-246,-100) scale(1,1)"><g><path fill="none" stroke="none"/><text fill="#000000" stroke="none" font-family="Arial" font-size="13px" font-style="normal" font-weight="normal" text-decoration="none" x="357" y="345.5">+reset()</text></g></g><g transform="translate(-246,-100) scale(1,1)"><g><path fill="none" stroke="none"/><text fill="#000000" stroke="none" font-family="Arial" font-size="13px" font-style="normal" font-weight="normal" text-decoration="none" x="357" y="360.5">+reverse_reset()</text></g></g><g transform="translate(-246,-100) scale(1,1)"><g><path fill="none" stroke="none"/><text fill="#000000" stroke="none" font-family="Arial" font-size="13px" font-style="normal" font-weight="normal" text-decoration="none" x="357" y="375.5">+update()</text></g></g><g transform="translate(-246,-100) scale(1,1)"><g><path fill="none" stroke="none"/><text fill="#000000" stroke="none" font-family="Arial" font-size="13px" font-style="normal" font-weight="normal" text-decoration="none" x="357" y="390.5">+node_value()</text></g></g><g transform="translate(-246,-100) scale(1,1)"><rect fill="#C0C0C0" stroke="none" x="655" y="285" width="142.7197265625" height="117" opacity="0.2"/></g><g transform="translate(-246,-100) scale(1,1)"><rect fill="#ffffff" stroke="none" x="648" y="278" width="142.7197265625" height="117"/></g><g transform="translate(-246,-100) scale(1,1)"><path fill="none" stroke="#000000" d="M 648 278 L 790.7197265625 278 L 790.7197265625 395 L 648 395 L 648 278 Z Z" stroke-miterlimit="10"/></g><g transform="translate(-246,-100) scale(1,1)"><path fill="none" stroke="#000000" d="M 648 303 L 790.7197265625 303" stroke-miterlimit="10"/></g><g transform="translate(-246,-100) scale(1,1)"><path fill="none" stroke="#000000" d="M 648 313 L 790.7197265625 313" stroke-miterlimit="10"/></g><g transform="translate(-246,-100) scale(1,1)"><g><path fill="none" stroke="none"/><text fill="#000000" stroke="none" font-family="Arial" font-size="13px" font-style="normal" font-weight="bold" text-decoration="none" x="662.85986328125" y="297.5">RegressionCriterion</text></g></g><g transform="translate(-246,-100) scale(1,1)"><g><path fill="none" stroke="none"/><text fill="#000000" stroke="none" font-family="Arial" font-size="13px" font-style="normal" font-weight="normal" text-decoration="none" x="653" y="330.5">+init()</text></g></g><g transform="translate(-246,-100) scale(1,1)"><g><path fill="none" stroke="none"/><text fill="#000000" stroke="none" font-family="Arial" font-size="13px" font-style="normal" font-weight="normal" text-decoration="none" x="653" y="345.5">+reset()</text></g></g><g transform="translate(-246,-100) scale(1,1)"><g><path fill="none" stroke="none"/><text fill="#000000" stroke="none" font-family="Arial" font-size="13px" font-style="normal" font-weight="normal" text-decoration="none" x="653" y="360.5">+reverse_reset()</text></g></g><g transform="translate(-246,-100) scale(1,1)"><g><path fill="none" stroke="none"/><text fill="#000000" stroke="none" font-family="Arial" font-size="13px" font-style="normal" font-weight="normal" text-decoration="none" x="653" y="375.5">+update()</text></g></g><g transform="translate(-246,-100) scale(1,1)"><g><path fill="none" stroke="none"/><text fill="#000000" stroke="none" font-family="Arial" font-size="13px" font-style="normal" font-weight="normal" text-decoration="none" x="653" y="390.5">+node_value()</text></g></g><g transform="translate(-246,-100) scale(1,1)"><path fill="none" stroke="#000000" d="M 449 277 L 478 183" stroke-miterlimit="10"/></g><g transform="translate(-246,-100) scale(1,1)"><path fill="#FFFFFF" stroke="none" d="M 480.052969565859 204.90400228181272 L 478 183 L 463.9632001529931 199.94013725018388"/></g><g transform="translate(-246,-100) scale(1,1)"><path fill="none" stroke="#000000" d="M 480.052969565859 204.90400228181272 L 478 183 L 463.9632001529931 199.94013725018388 L 480.052969565859 204.90400228181272" stroke-miterlimit="10"/></g><g transform="translate(-246,-100) scale(1,1)"><path fill="none" stroke="#000000" d="M 648 277 L 534 183" stroke-miterlimit="10"/></g><g transform="translate(-246,-100) scale(1,1)"><path fill="#FFFFFF" stroke="none" d="M 555.0378427766591 189.43499582785995 L 534 183 L 544.3257721021251 202.42623047569893"/></g><g transform="translate(-246,-100) scale(1,1)"><path fill="none" stroke="#000000" d="M 555.0378427766591 189.43499582785995 L 534 183 L 544.3257721021251 202.42623047569893 L 555.0378427766591 189.43499582785995" stroke-miterlimit="10"/></g><g transform="translate(-246,-100) scale(1,1)"><rect fill="#C0C0C0" stroke="none" x="263" y="509" width="135.22314453125" height="72" opacity="0.2"/></g><g transform="translate(-246,-100) scale(1,1)"><rect fill="#ffffff" stroke="none" x="256" y="502" width="135.22314453125" height="72"/></g><g transform="translate(-246,-100) scale(1,1)"><path fill="none" stroke="#000000" d="M 256 502 L 391.22314453125 502 L 391.22314453125 574 L 256 574 L 256 502 Z Z" stroke-miterlimit="10"/></g><g transform="translate(-246,-100) scale(1,1)"><path fill="none" stroke="#000000" d="M 256 527 L 391.22314453125 527" stroke-miterlimit="10"/></g><g transform="translate(-246,-100) scale(1,1)"><path fill="none" stroke="#000000" d="M 256 537 L 391.22314453125 537" stroke-miterlimit="10"/></g><g transform="translate(-246,-100) scale(1,1)"><g><path fill="none" stroke="none"/><text fill="#000000" stroke="none" font-family="Arial" font-size="13px" font-style="normal" font-weight="bold" text-decoration="none" x="301.111572265625" y="521.5">Entropy</text></g></g><g transform="translate(-246,-100) scale(1,1)"><g><path fill="none" stroke="none"/><text fill="#000000" stroke="none" font-family="Arial" font-size="13px" font-style="normal" font-weight="normal" text-decoration="none" x="261" y="554.5">+node_impurity()</text></g></g><g transform="translate(-246,-100) scale(1,1)"><g><path fill="none" stroke="none"/><text fill="#000000" stroke="none" font-family="Arial" font-size="13px" font-style="normal" font-weight="normal" text-decoration="none" x="261" y="569.5">+children_impurity()</text></g></g><g transform="translate(-246,-100) scale(1,1)"><rect fill="#C0C0C0" stroke="none" x="447" y="509" width="135.22314453125" height="72" opacity="0.2"/></g><g transform="translate(-246,-100) scale(1,1)"><rect fill="#ffffff" stroke="none" x="440" y="502" width="135.22314453125" height="72"/></g><g transform="translate(-246,-100) scale(1,1)"><path fill="none" stroke="#000000" d="M 440 502 L 575.22314453125 502 L 575.22314453125 574 L 440 574 L 440 502 Z Z" stroke-miterlimit="10"/></g><g transform="translate(-246,-100) scale(1,1)"><path fill="none" stroke="#000000" d="M 440 527 L 575.22314453125 527" stroke-miterlimit="10"/></g><g transform="translate(-246,-100) scale(1,1)"><path fill="none" stroke="#000000" d="M 440 537 L 575.22314453125 537" stroke-miterlimit="10"/></g><g transform="translate(-246,-100) scale(1,1)"><g><path fill="none" stroke="none"/><text fill="#000000" stroke="none" font-family="Arial" font-size="13px" font-style="normal" font-weight="bold" text-decoration="none" x="496.111572265625" y="521.5">Gini</text></g></g><g transform="translate(-246,-100) scale(1,1)"><g><path fill="none" stroke="none"/><text fill="#000000" stroke="none" font-family="Arial" font-size="13px" font-style="normal" font-weight="normal" text-decoration="none" x="445" y="554.5">+node_impurity()</text></g></g><g transform="translate(-246,-100) scale(1,1)"><g><path fill="none" stroke="none"/><text fill="#000000" stroke="none" font-family="Arial" font-size="13px" font-style="normal" font-weight="normal" text-decoration="none" x="445" y="569.5">+children_impurity()</text></g></g><g transform="translate(-246,-100) scale(1,1)"><rect fill="#C0C0C0" stroke="none" x="623" y="509" width="210.58251953125" height="87" opacity="0.2"/></g><g transform="translate(-246,-100) scale(1,1)"><rect fill="#ffffff" stroke="none" x="616" y="502" width="210.58251953125" height="87"/></g><g transform="translate(-246,-100) scale(1,1)"><path fill="none" stroke="#000000" d="M 616 502 L 826.58251953125 502 L 826.58251953125 589 L 616 589 L 616 502 Z Z" stroke-miterlimit="10"/></g><g transform="translate(-246,-100) scale(1,1)"><path fill="none" stroke="#000000" d="M 616 527 L 826.58251953125 527" stroke-miterlimit="10"/></g><g transform="translate(-246,-100) scale(1,1)"><path fill="none" stroke="#000000" d="M 616 537 L 826.58251953125 537" stroke-miterlimit="10"/></g><g transform="translate(-246,-100) scale(1,1)"><g><path fill="none" stroke="none"/><text fill="#000000" stroke="none" font-family="Arial" font-size="13px" font-style="normal" font-weight="bold" text-decoration="none" x="706.791259765625" y="521.5">MSE</text></g></g><g transform="translate(-246,-100) scale(1,1)"><g><path fill="none" stroke="none"/><text fill="#000000" stroke="none" font-family="Arial" font-size="13px" font-style="normal" font-weight="normal" text-decoration="none" x="621" y="554.5">+node_impurity()</text></g></g><g transform="translate(-246,-100) scale(1,1)"><g><path fill="none" stroke="none"/><text fill="#000000" stroke="none" font-family="Arial" font-size="13px" font-style="normal" font-weight="normal" text-decoration="none" x="621" y="569.5">+children_impurity()</text></g></g><g transform="translate(-246,-100) scale(1,1)"><g><path fill="none" stroke="none"/><text fill="#000000" stroke="none" font-family="Arial" font-size="13px" font-style="normal" font-weight="normal" text-decoration="none" x="621" y="584.5">+proxy_impurity_improvement()</text></g></g><g transform="translate(-246,-100) scale(1,1)"><rect fill="#C0C0C0" stroke="none" x="623" y="693" width="210.58251953125" height="72" opacity="0.2"/></g><g transform="translate(-246,-100) scale(1,1)"><rect fill="#ffffff" stroke="none" x="616" y="686" width="210.58251953125" height="72"/></g><g transform="translate(-246,-100) scale(1,1)"><path fill="none" stroke="#000000" d="M 616 686 L 826.58251953125 686 L 826.58251953125 758 L 616 758 L 616 686 Z Z" stroke-miterlimit="10"/></g><g transform="translate(-246,-100) scale(1,1)"><path fill="none" stroke="#000000" d="M 616 711 L 826.58251953125 711" stroke-miterlimit="10"/></g><g transform="translate(-246,-100) scale(1,1)"><path fill="none" stroke="#000000" d="M 616 721 L 826.58251953125 721" stroke-miterlimit="10"/></g><g transform="translate(-246,-100) scale(1,1)"><g><path fill="none" stroke="none"/><text fill="#000000" stroke="none" font-family="Arial" font-size="13px" font-style="normal" font-weight="bold" text-decoration="none" x="679.791259765625" y="705.5">FriedmanMSE</text></g></g><g transform="translate(-246,-100) scale(1,1)"><g><path fill="none" stroke="none"/><text fill="#000000" stroke="none" font-family="Arial" font-size="13px" font-style="normal" font-weight="normal" text-decoration="none" x="621" y="738.5">+proxy_impurity_improvement()</text></g></g><g transform="translate(-246,-100) scale(1,1)"><g><path fill="none" stroke="none"/><text fill="#000000" stroke="none" font-family="Arial" font-size="13px" font-style="normal" font-weight="normal" text-decoration="none" x="621" y="753.5">+impurity_improvement()</text></g></g><g transform="translate(-246,-100) scale(1,1)"><path fill="none" stroke="#000000" d="M 343 501 L 399 396" stroke-miterlimit="10"/></g><g transform="translate(-246,-100) scale(1,1)"><path fill="#FFFFFF" stroke="none" d="M 396.86369029167605 417.8960311661753 L 399 396 L 382.00656879985496 409.97223303720403"/></g><g transform="translate(-246,-100) scale(1,1)"><path fill="none" stroke="#000000" d="M 396.86369029167605 417.8960311661753 L 399 396 L 382.00656879985496 409.97223303720403 L 396.86369029167605 417.8960311661753" stroke-miterlimit="10"/></g><g transform="translate(-246,-100) scale(1,1)"><path fill="none" stroke="#000000" d="M 493 501 L 454 396" stroke-miterlimit="10"/></g><g transform="translate(-246,-100) scale(1,1)"><path fill="#FFFFFF" stroke="none" d="M 468.96922963525884 412.12210172796614 L 454 396 L 453.18479632540596 417.98489124305434"/></g><g transform="translate(-246,-100) scale(1,1)"><path fill="none" stroke="#000000" d="M 468.96922963525884 412.12210172796614 L 454 396 L 453.18479632540596 417.98489124305434 L 468.96922963525884 412.12210172796614" stroke-miterlimit="10"/></g><g transform="translate(-246,-100) scale(1,1)"><path fill="none" stroke="#000000" d="M 721 501 L 720 396" stroke-miterlimit="10"/></g><g transform="translate(-246,-100) scale(1,1)"><path fill="#FFFFFF" stroke="none" d="M 728.6122197032238 416.244250338884 L 720 396 L 711.774912258555 416.4046056478808"/></g><g transform="translate(-246,-100) scale(1,1)"><path fill="none" stroke="#000000" d="M 728.6122197032238 416.244250338884 L 720 396 L 711.774912258555 416.4046056478808 L 728.6122197032238 416.244250338884" stroke-miterlimit="10"/></g><g transform="translate(-246,-100) scale(1,1)"><path fill="none" stroke="#000000" d="M 721 685 L 721 590" stroke-miterlimit="10"/></g><g transform="translate(-246,-100) scale(1,1)"><path fill="#FFFFFF" stroke="none" d="M 729.419035512032 610.3253497152483 L 721 590 L 712.580964487968 610.3253497152483"/></g><g transform="translate(-246,-100) scale(1,1)"><path fill="none" stroke="#000000" d="M 729.419035512032 610.3253497152483 L 721 590 L 712.580964487968 610.3253497152483 L 729.419035512032 610.3253497152483" stroke-miterlimit="10"/></g></g></svg>