<svg version="1.1" xmlns="http://www.w3.org/2000/svg" xmlns:xlink="http://www.w3.org/1999/xlink" width="822.544921875" height="676"><defs/><g><g transform="translate(-230,-198) scale(1,1)"><rect fill="#C0C0C0" stroke="none" x="551" y="231" width="115.64697265625" height="102" opacity="0.2"/></g><g transform="translate(-230,-198) scale(1,1)"><rect fill="#ffffff" stroke="none" x="544" y="224" width="115.64697265625" height="102"/></g><g transform="translate(-230,-198) scale(1,1)"><path fill="none" stroke="#000000" d="M 544 224 L 659.64697265625 224 L 659.64697265625 326 L 544 326 L 544 224 Z Z" stroke-miterlimit="10"/></g><g transform="translate(-230,-198) scale(1,1)"><path fill="none" stroke="#000000" d="M 544 249 L 659.64697265625 249" stroke-miterlimit="10"/></g><g transform="translate(-230,-198) scale(1,1)"><path fill="none" stroke="#000000" d="M 544 259 L 659.64697265625 259" stroke-miterlimit="10"/></g><g transform="translate(-230,-198) scale(1,1)"><g><path fill="none" stroke="none"/><text fill="#000000" stroke="none" font-family="Arial" font-size="13px" font-style="italic" font-weight="bold" text-decoration="none" x="581.323486328125" y="243.5">Splitter</text></g></g><g transform="translate(-230,-198) scale(1,1)"><g><path fill="none" stroke="none"/><text fill="#000000" stroke="none" font-family="Arial" font-size="13px" font-style="normal" font-weight="normal" text-decoration="none" x="549" y="276.5">+node_impurity()</text></g></g><g transform="translate(-230,-198) scale(1,1)"><g><path fill="none" stroke="none"/><text fill="#000000" stroke="none" font-family="Arial" font-size="13px" font-style="normal" font-weight="normal" text-decoration="none" x="549" y="291.5">+node_reset()</text></g></g><g transform="translate(-230,-198) scale(1,1)"><g><path fill="none" stroke="none"/><text fill="#000000" stroke="none" font-family="Arial" font-size="13px" font-style="normal" font-weight="normal" text-decoration="none" x="549" y="306.5">+node_split()</text></g></g><g transform="translate(-230,-198) scale(1,1)"><g><path fill="none" stroke="none"/><text fill="#000000" stroke="none" font-family="Arial" font-size="13px" font-style="normal" font-weight="normal" text-decoration="none" x="549" y="321.5">+node_value()</text></g></g><g transform="translate(-230,-198) scale(1,1)"><rect fill="#C0C0C0" stroke="none" x="351" y="455" width="129.78955078125" height="57" opacity="0.2"/></g><g transform="translate(-230,-198) scale(1,1)"><rect fill="#ffffff" stroke="none" x="344" y="448" width="129.78955078125" height="57"/></g><g transform="translate(-230,-198) scale(1,1)"><path fill="none" stroke="#000000" d="M 344 448 L 473.78955078125 448 L 473.78955078125 505 L 344 505 L 344 448 Z Z" stroke-miterlimit="10"/></g><g transform="translate(-230,-198) scale(1,1)"><path fill="none" stroke="#000000" d="M 344 473 L 473.78955078125 473" stroke-miterlimit="10"/></g><g transform="translate(-230,-198) scale(1,1)"><path fill="none" stroke="#000000" d="M 344 483 L 473.78955078125 483" stroke-miterlimit="10"/></g><g transform="translate(-230,-198) scale(1,1)"><g><path fill="none" stroke="none"/><text fill="#000000" stroke="none" font-family="Arial" font-size="13px" font-style="normal" font-weight="bold" text-decoration="none" x="354.894775390625" y="467.5">BaseDenseSplitter</text></g></g><g transform="translate(-230,-198) scale(1,1)"><g><path fill="none" stroke="none"/><text fill="#000000" stroke="none" font-family="Arial" font-size="13px" font-style="normal" font-weight="normal" text-decoration="none" x="349" y="500.5">+init()</text></g></g><g transform="translate(-230,-198) scale(1,1)"><rect fill="#C0C0C0" stroke="none" x="247" y="583" width="89.9580078125" height="57" opacity="0.2"/></g><g transform="translate(-230,-198) scale(1,1)"><rect fill="#ffffff" stroke="none" x="240" y="576" width="89.9580078125" height="57"/></g><g transform="translate(-230,-198) scale(1,1)"><path fill="none" stroke="#000000" d="M 240 576 L 329.9580078125 576 L 329.9580078125 633 L 240 633 L 240 576 Z Z" stroke-miterlimit="10"/></g><g transform="translate(-230,-198) scale(1,1)"><path fill="none" stroke="#000000" d="M 240 601 L 329.9580078125 601" stroke-miterlimit="10"/></g><g transform="translate(-230,-198) scale(1,1)"><path fill="none" stroke="#000000" d="M 240 611 L 329.9580078125 611" stroke-miterlimit="10"/></g><g transform="translate(-230,-198) scale(1,1)"><g><path fill="none" stroke="none"/><text fill="#000000" stroke="none" font-family="Arial" font-size="13px" font-style="normal" font-weight="bold" text-decoration="none" x="250.97900390625" y="595.5">BestSplitter</text></g></g><g transform="translate(-230,-198) scale(1,1)"><g><path fill="none" stroke="none"/><text fill="#000000" stroke="none" font-family="Arial" font-size="13px" font-style="normal" font-weight="normal" text-decoration="none" x="245" y="628.5">+node_split()</text></g></g><g transform="translate(-230,-198) scale(1,1)"><rect fill="#C0C0C0" stroke="none" x="455" y="583" width="112.23193359375" height="57" opacity="0.2"/></g><g transform="translate(-230,-198) scale(1,1)"><rect fill="#ffffff" stroke="none" x="448" y="576" width="112.23193359375" height="57"/></g><g transform="translate(-230,-198) scale(1,1)"><path fill="none" stroke="#000000" d="M 448 576 L 560.23193359375 576 L 560.23193359375 633 L 448 633 L 448 576 Z Z" stroke-miterlimit="10"/></g><g transform="translate(-230,-198) scale(1,1)"><path fill="none" stroke="#000000" d="M 448 601 L 560.23193359375 601" stroke-miterlimit="10"/></g><g transform="translate(-230,-198) scale(1,1)"><path fill="none" stroke="#000000" d="M 448 611 L 560.23193359375 611" stroke-miterlimit="10"/></g><g transform="translate(-230,-198) scale(1,1)"><g><path fill="none" stroke="none"/><text fill="#000000" stroke="none" font-family="Arial" font-size="13px" font-style="normal" font-weight="bold" text-decoration="none" x="459.615966796875" y="595.5">RandomSplitter</text></g></g><g transform="translate(-230,-198) scale(1,1)"><g><path fill="none" stroke="none"/><text fill="#000000" stroke="none" font-family="Arial" font-size="13px" font-style="normal" font-weight="normal" text-decoration="none" x="453" y="628.5">+node_split()</text></g></g><g transform="translate(-230,-198) scale(1,1)"><path fill="none" stroke="#000000" d="M 436 447 L 551 327" stroke-miterlimit="10"/></g><g transform="translate(-230,-198) scale(1,1)"><path fill="#FFFFFF" stroke="none" d="M 543.0152258605152 347.4998385833014 L 551 327 L 530.8583371842452 335.8494869352094"/></g><g transform="translate(-230,-198) scale(1,1)"><path fill="none" stroke="#000000" d="M 543.0152258605152 347.4998385833014 L 551 327 L 530.8583371842452 335.8494869352094 L 543.0152258605152 347.4998385833014" stroke-miterlimit="10"/></g><g transform="translate(-230,-198) scale(1,1)"><path fill="none" stroke="#000000" d="M 312 575 L 379 506" stroke-miterlimit="10"/></g><g transform="translate(-230,-198) scale(1,1)"><path fill="#FFFFFF" stroke="none" d="M 370.8807445893692 526.4469482216037 L 379 506 L 358.80064369889124 514.7169951830236"/></g><g transform="translate(-230,-198) scale(1,1)"><path fill="none" stroke="#000000" d="M 370.8807445893692 526.4469482216037 L 379 506 L 358.80064369889124 514.7169951830236 L 370.8807445893692 526.4469482216037" stroke-miterlimit="10"/></g><g transform="translate(-230,-198) scale(1,1)"><path fill="none" stroke="#000000" d="M 482 575 L 431 506" stroke-miterlimit="10"/></g><g transform="translate(-230,-198) scale(1,1)"><path fill="#FFFFFF" stroke="none" d="M 449.85159367707973 517.3409618566632 L 431 506 L 436.31081869121203 527.349360759261"/></g><g transform="translate(-230,-198) scale(1,1)"><path fill="none" stroke="#000000" d="M 449.85159367707973 517.3409618566632 L 431 506 L 436.31081869121203 527.349360759261 L 449.85159367707973 517.3409618566632" stroke-miterlimit="10"/></g><g transform="translate(-230,-198) scale(1,1)"><rect fill="#C0C0C0" stroke="none" x="727" y="439" width="132.9189453125" height="72" opacity="0.2"/></g><g transform="translate(-230,-198) scale(1,1)"><rect fill="#ffffff" stroke="none" x="720" y="432" width="132.9189453125" height="72"/></g><g transform="translate(-230,-198) scale(1,1)"><path fill="none" stroke="#000000" d="M 720 432 L 852.9189453125 432 L 852.9189453125 504 L 720 504 L 720 432 Z Z" stroke-miterlimit="10"/></g><g transform="translate(-230,-198) scale(1,1)"><path fill="none" stroke="#000000" d="M 720 457 L 852.9189453125 457" stroke-miterlimit="10"/></g><g transform="translate(-230,-198) scale(1,1)"><path fill="none" stroke="#000000" d="M 720 467 L 852.9189453125 467" stroke-miterlimit="10"/></g><g transform="translate(-230,-198) scale(1,1)"><g><path fill="none" stroke="none"/><text fill="#000000" stroke="none" font-family="Arial" font-size="13px" font-style="normal" font-weight="bold" text-decoration="none" x="730.45947265625" y="451.5">BaseSparseSplitter</text></g></g><g transform="translate(-230,-198) scale(1,1)"><g><path fill="none" stroke="none"/><text fill="#000000" stroke="none" font-family="Arial" font-size="13px" font-style="normal" font-weight="normal" text-decoration="none" x="725" y="484.5">+init()</text></g></g><g transform="translate(-230,-198) scale(1,1)"><g><path fill="none" stroke="none"/><text fill="#000000" stroke="none" font-family="Arial" font-size="13px" font-style="normal" font-weight="normal" text-decoration="none" x="725" y="499.5">+extract_nnz()</text></g></g><g transform="translate(-230,-198) scale(1,1)"><rect fill="#C0C0C0" stroke="none" x="919" y="583" width="130.544921875" height="57" opacity="0.2"/></g><g transform="translate(-230,-198) scale(1,1)"><rect fill="#ffffff" stroke="none" x="912" y="576" width="130.544921875" height="57"/></g><g transform="translate(-230,-198) scale(1,1)"><path fill="none" stroke="#000000" d="M 912 576 L 1042.544921875 576 L 1042.544921875 633 L 912 633 L 912 576 Z Z" stroke-miterlimit="10"/></g><g transform="translate(-230,-198) scale(1,1)"><path fill="none" stroke="#000000" d="M 912 601 L 1042.544921875 601" stroke-miterlimit="10"/></g><g transform="translate(-230,-198) scale(1,1)"><path fill="none" stroke="#000000" d="M 912 611 L 1042.544921875 611" stroke-miterlimit="10"/></g><g transform="translate(-230,-198) scale(1,1)"><g><path fill="none" stroke="none"/><text fill="#000000" stroke="none" font-family="Arial" font-size="13px" font-style="normal" font-weight="bold" text-decoration="none" x="922.7724609375" y="595.5">BestSparseSplitter</text></g></g><g transform="translate(-230,-198) scale(1,1)"><g><path fill="none" stroke="none"/><text fill="#000000" stroke="none" font-family="Arial" font-size="13px" font-style="normal" font-weight="normal" text-decoration="none" x="917" y="628.5">+node_split()</text></g></g><g transform="translate(-230,-198) scale(1,1)"><rect fill="#C0C0C0" stroke="none" x="631" y="583" width="156.79248046875" height="57" opacity="0.2"/></g><g transform="translate(-230,-198) scale(1,1)"><rect fill="#ffffff" stroke="none" x="624" y="576" width="156.79248046875" height="57"/></g><g transform="translate(-230,-198) scale(1,1)"><path fill="none" stroke="#000000" d="M 624 576 L 780.79248046875 576 L 780.79248046875 633 L 624 633 L 624 576 Z Z" stroke-miterlimit="10"/></g><g transform="translate(-230,-198) scale(1,1)"><path fill="none" stroke="#000000" d="M 624 601 L 780.79248046875 601" stroke-miterlimit="10"/></g><g transform="translate(-230,-198) scale(1,1)"><path fill="none" stroke="#000000" d="M 624 611 L 780.79248046875 611" stroke-miterlimit="10"/></g><g transform="translate(-230,-198) scale(1,1)"><g><path fill="none" stroke="none"/><text fill="#000000" stroke="none" font-family="Arial" font-size="13px" font-style="normal" font-weight="bold" text-decoration="none" x="637.396240234375" y="595.5">RandomSparseSplitter</text></g></g><g transform="translate(-230,-198) scale(1,1)"><g><path fill="none" stroke="none"/><text fill="#000000" stroke="none" font-family="Arial" font-size="13px" font-style="normal" font-weight="normal" text-decoration="none" x="629" y="628.5">+node_split()</text></g></g><g transform="translate(-230,-198) scale(1,1)"><path fill="none" stroke="#000000" d="M 936 575 L 838 505" stroke-miterlimit="10"/></g><g transform="translate(-230,-198) scale(1,1)"><path fill="#FFFFFF" stroke="none" d="M 859.4328823711502 509.9630185637813 L 838 505 L 849.6459523834094 523.6647205466185"/></g><g transform="translate(-230,-198) scale(1,1)"><path fill="none" stroke="#000000" d="M 859.4328823711502 509.9630185637813 L 838 505 L 849.6459523834094 523.6647205466185 L 859.4328823711502 509.9630185637813" stroke-miterlimit="10"/></g><g transform="translate(-230,-198) scale(1,1)"><path fill="none" stroke="#000000" d="M 720 575 L 763 505" stroke-miterlimit="10"/></g><g transform="translate(-230,-198) scale(1,1)"><path fill="#FFFFFF" stroke="none" d="M 759.535001938477 526.725418026672 L 763 505 L 745.1876859631267 517.912066784671"/></g><g transform="translate(-230,-198) scale(1,1)"><path fill="none" stroke="#000000" d="M 759.535001938477 526.725418026672 L 763 505 L 745.1876859631267 517.912066784671 L 759.535001938477 526.725418026672" stroke-miterlimit="10"/></g><g transform="translate(-230,-198) scale(1,1)"><path fill="none" stroke="#000000" d="M 751 431 L 651 327" stroke-miterlimit="10"/></g><g transform="translate(-230,-198) scale(1,1)"><path fill="#FFFFFF" stroke="none" d="M 671.1563962201599 335.81587723462184 L 651 327 L 659.0189578768487 347.4864910262672"/></g><g transform="translate(-230,-198) scale(1,1)"><path fill="none" stroke="#000000" d="M 671.1563962201599 335.81587723462184 L 651 327 L 659.0189578768487 347.4864910262672 L 671.1563962201599 335.81587723462184" stroke-miterlimit="10"/></g><g transform="translate(-230,-198) scale(1,1)"><path fill="#ffffff" stroke="none" d="M 488 816 L 725 816 L 735 826 L 735 863 L 488 863 L 488 816"/></g><g transform="translate(-230,-198) scale(1,1)"><path fill="none" stroke="#000000" d="M 488 816 L 725 816 L 735 826 L 735 863 L 488 863 L 488 816 L 488 816" stroke-miterlimit="10"/></g><g transform="translate(-230,-198) scale(1,1)"><path fill="none" stroke="#000000" d="M 725 816 L 725 826 L 735 826 L 725 816" stroke-miterlimit="10"/></g><g transform="translate(-230,-198) scale(1,1)"><g><path fill="none" stroke="none"/><text fill="#000000" stroke="none" font-family="Arial" font-size="13px" font-style="normal" font-weight="normal" text-decoration="none" x="493" y="834">Best:</text><text fill="#000000" stroke="none" font-family="Arial" font-size="13px" font-style="normal" font-weight="normal" text-decoration="none" x="493" y="847">遍历一个特征的值以确定最佳阈值；</text></g></g><g transform="translate(-230,-198) scale(1,1)"><path fill="#ffffff" stroke="none" d="M 424 672 L 809 672 L 819 682 L 819 710 L 424 710 L 424 672"/></g><g transform="translate(-230,-198) scale(1,1)"><path fill="none" stroke="#000000" d="M 424 672 L 809 672 L 819 682 L 819 710 L 424 710 L 424 672 L 424 672" stroke-miterlimit="10"/></g><g transform="translate(-230,-198) scale(1,1)"><path fill="none" stroke="#000000" d="M 809 672 L 809 682 L 819 682 L 809 672" stroke-miterlimit="10"/></g><g transform="translate(-230,-198) scale(1,1)"><g><path fill="none" stroke="none"/><text fill="#000000" stroke="none" font-family="Arial" font-size="13px" font-style="normal" font-weight="normal" text-decoration="none" x="429" y="690">Random:</text><text fill="#000000" stroke="none" font-family="Arial" font-size="13px" font-style="normal" font-weight="normal" text-decoration="none" x="429" y="703">在一个特征的最大值和最小值之间随机抽样一个值作为最佳阈值。</text></g></g><g transform="translate(-230,-198) scale(1,1)"><path fill="none" stroke="#000000" d="M 545 634 L 595 671" stroke-miterlimit="10" stroke-dasharray="3"/></g><g transform="translate(-230,-198) scale(1,1)"><path fill="none" stroke="#000000" d="M 674 634 L 640 671" stroke-miterlimit="10" stroke-dasharray="3"/></g><g transform="translate(-230,-198) scale(1,1)"><path fill="none" stroke="#000000" d="M 326 634 L 577 815" stroke-miterlimit="10" stroke-dasharray="3"/></g><g transform="translate(-230,-198) scale(1,1)"><path fill="none" stroke="#000000" d="M 931 634 L 651 815" stroke-miterlimit="10" stroke-dasharray="3"/></g><g transform="translate(-230,-198) scale(1,1)"><rect fill="#C0C0C0" stroke="none" x="871" y="215" width="105.6240234375" height="135" opacity="0.2"/></g><g transform="translate(-230,-198) scale(1,1)"><rect fill="#ffffff" stroke="none" x="864" y="208" width="105.6240234375" height="135"/></g><g transform="translate(-230,-198) scale(1,1)"><path fill="none" stroke="#000000" d="M 864 208 L 969.6240234375 208 L 969.6240234375 343 L 864 343 L 864 208 Z Z" stroke-miterlimit="10"/></g><g transform="translate(-230,-198) scale(1,1)"><path fill="none" stroke="#000000" d="M 864 246 L 969.6240234375 246" stroke-miterlimit="10"/></g><g transform="translate(-230,-198) scale(1,1)"><g><path fill="none" stroke="none"/><text fill="#000000" stroke="none" font-family="Arial" font-size="13px" font-style="normal" font-weight="normal" text-decoration="none" x="882.81201171875" y="225.5">«dataType»</text></g></g><g transform="translate(-230,-198) scale(1,1)"><g><path fill="none" stroke="none"/><text fill="#000000" stroke="none" font-family="Arial" font-size="13px" font-style="normal" font-weight="bold" text-decoration="none" x="883.31201171875" y="240.5">SplitRecord</text></g></g><g transform="translate(-230,-198) scale(1,1)"><g><path fill="none" stroke="none"/><text fill="#000000" stroke="none" font-family="Arial" font-size="13px" font-style="normal" font-weight="normal" text-decoration="none" x="869" y="263.5">+feature</text></g></g><g transform="translate(-230,-198) scale(1,1)"><g><path fill="none" stroke="none"/><text fill="#000000" stroke="none" font-family="Arial" font-size="13px" font-style="normal" font-weight="normal" text-decoration="none" x="869" y="278.5">+pos</text></g></g><g transform="translate(-230,-198) scale(1,1)"><g><path fill="none" stroke="none"/><text fill="#000000" stroke="none" font-family="Arial" font-size="13px" font-style="normal" font-weight="normal" text-decoration="none" x="869" y="293.5">+threshold</text></g></g><g transform="translate(-230,-198) scale(1,1)"><g><path fill="none" stroke="none"/><text fill="#000000" stroke="none" font-family="Arial" font-size="13px" font-style="normal" font-weight="normal" text-decoration="none" x="869" y="308.5">+improvement</text></g></g><g transform="translate(-230,-198) scale(1,1)"><g><path fill="none" stroke="none"/><text fill="#000000" stroke="none" font-family="Arial" font-size="13px" font-style="normal" font-weight="normal" text-decoration="none" x="869" y="323.5">+impurity_left</text></g></g><g transform="translate(-230,-198) scale(1,1)"><g><path fill="none" stroke="none"/><text fill="#000000" stroke="none" font-family="Arial" font-size="13px" font-style="normal" font-weight="normal" text-decoration="none" x="869" y="338.5">+impurity_right</text></g></g><g transform="translate(-230,-198) scale(1,1)"><path fill="none" stroke="#000000" d="M 661 275 L 863 275" stroke-miterlimit="10"/></g><g transform="translate(-230,-198) scale(1,1)"><path fill="none" stroke="#000000" d="M 852.8373251423759 279.209517756016 L 863 275 L 852.8373251423758 270.790482243984" stroke-miterlimit="10"/></g><g transform="translate(-230,-198) scale(1,1)"><g><path fill="none" stroke="none"/><text fill="#000000" stroke="none" font-family="Arial" font-size="13px" font-style="normal" font-weight="normal" text-decoration="none" x="748" y="267">+1..*</text></g></g></g></svg>