<svg version="1.1" xmlns="http://www.w3.org/2000/svg" xmlns:xlink="http://www.w3.org/1999/xlink" width="1172" height="416"><defs/><g><g transform="translate(-158,-174) scale(1,1)"><rect fill="#C0C0C0" stroke="none" x="175" y="391" width="159.8076171875" height="72" opacity="0.2"/></g><g transform="translate(-158,-174) scale(1,1)"><rect fill="#ffffff" stroke="none" x="168" y="384" width="159.8076171875" height="72"/></g><g transform="translate(-158,-174) scale(1,1)"><path fill="none" stroke="#000000" d="M 168 384 L 327.8076171875 384 L 327.8076171875 456 L 168 456 L 168 384 Z Z" stroke-miterlimit="10"/></g><g transform="translate(-158,-174) scale(1,1)"><path fill="none" stroke="#000000" d="M 168 409 L 327.8076171875 409" stroke-miterlimit="10"/></g><g transform="translate(-158,-174) scale(1,1)"><path fill="none" stroke="#000000" d="M 168 419 L 327.8076171875 419" stroke-miterlimit="10"/></g><g transform="translate(-158,-174) scale(1,1)"><g><path fill="none" stroke="none"/><text fill="#000000" stroke="none" font-family="Arial" font-size="13px" font-style="normal" font-weight="bold" text-decoration="none" x="182.90380859375" y="403.5">DecisionTreeClassifier</text></g></g><g transform="translate(-158,-174) scale(1,1)"><g><path fill="none" stroke="none"/><text fill="#000000" stroke="none" font-family="Arial" font-size="13px" font-style="normal" font-weight="normal" text-decoration="none" x="173" y="436.5">+predict_proba()</text></g></g><g transform="translate(-158,-174) scale(1,1)"><g><path fill="none" stroke="none"/><text fill="#000000" stroke="none" font-family="Arial" font-size="13px" font-style="normal" font-weight="normal" text-decoration="none" x="173" y="451.5">+predict_log_proba()</text></g></g><g transform="translate(-158,-174) scale(1,1)"><rect fill="#C0C0C0" stroke="none" x="351" y="231" width="127.40283203125" height="72" opacity="0.2"/></g><g transform="translate(-158,-174) scale(1,1)"><rect fill="#ffffff" stroke="none" x="344" y="224" width="127.40283203125" height="72"/></g><g transform="translate(-158,-174) scale(1,1)"><path fill="none" stroke="#000000" d="M 344 224 L 471.40283203125 224 L 471.40283203125 296 L 344 296 L 344 224 Z Z" stroke-miterlimit="10"/></g><g transform="translate(-158,-174) scale(1,1)"><path fill="none" stroke="#000000" d="M 344 249 L 471.40283203125 249" stroke-miterlimit="10"/></g><g transform="translate(-158,-174) scale(1,1)"><path fill="none" stroke="#000000" d="M 344 259 L 471.40283203125 259" stroke-miterlimit="10"/></g><g transform="translate(-158,-174) scale(1,1)"><g><path fill="none" stroke="none"/><text fill="#000000" stroke="none" font-family="Arial" font-size="13px" font-style="normal" font-weight="bold" text-decoration="none" x="354.701416015625" y="243.5">BaseDecisionTree</text></g></g><g transform="translate(-158,-174) scale(1,1)"><g><path fill="none" stroke="none"/><text fill="#000000" stroke="none" font-family="Arial" font-size="13px" font-style="normal" font-weight="normal" text-decoration="none" x="349" y="276.5">+fit()</text></g></g><g transform="translate(-158,-174) scale(1,1)"><g><path fill="none" stroke="none"/><text fill="#000000" stroke="none" font-family="Arial" font-size="13px" font-style="normal" font-weight="normal" text-decoration="none" x="349" y="291.5">+predict()</text></g></g><g transform="translate(-158,-174) scale(1,1)"><path fill="none" stroke="#000000" d="M 284 383 L 370 297" stroke-miterlimit="10"/></g><g transform="translate(-158,-174) scale(1,1)"><path fill="#FFFFFF" stroke="none" d="M 361.580964487968 317.3253497152483 L 370 297 L 349.6746502847517 305.419035512032"/></g><g transform="translate(-158,-174) scale(1,1)"><path fill="none" stroke="#000000" d="M 361.580964487968 317.3253497152483 L 370 297 L 349.6746502847517 305.419035512032 L 361.580964487968 317.3253497152483" stroke-miterlimit="10"/></g><g transform="translate(-158,-174) scale(1,1)"><rect fill="#C0C0C0" stroke="none" x="471" y="407" width="153" height="44" opacity="0.2"/></g><g transform="translate(-158,-174) scale(1,1)"><rect fill="#ffffff" stroke="none" x="464" y="400" width="153" height="44"/></g><g transform="translate(-158,-174) scale(1,1)"><path fill="none" stroke="#000000" d="M 464 400 L 617 400 L 617 444 L 464 444 L 464 400 Z Z" stroke-miterlimit="10"/></g><g transform="translate(-158,-174) scale(1,1)"><path fill="none" stroke="#000000" d="M 464 425 L 617 425" stroke-miterlimit="10"/></g><g transform="translate(-158,-174) scale(1,1)"><path fill="none" stroke="#000000" d="M 464 435 L 617 435" stroke-miterlimit="10"/></g><g transform="translate(-158,-174) scale(1,1)"><g><path fill="none" stroke="none"/><text fill="#000000" stroke="none" font-family="Arial" font-size="13px" font-style="normal" font-weight="bold" text-decoration="none" x="473" y="419.5">DecisionTreeRegressor</text></g></g><g transform="translate(-158,-174) scale(1,1)"><path fill="none" stroke="#000000" d="M 521 399 L 437 297" stroke-miterlimit="10"/></g><g transform="translate(-158,-174) scale(1,1)"><path fill="#FFFFFF" stroke="none" d="M 456.4198802973928 307.33771005759667 L 437 297 L 443.4220641644505 318.04179393178447"/></g><g transform="translate(-158,-174) scale(1,1)"><path fill="none" stroke="#000000" d="M 456.4198802973928 307.33771005759667 L 437 297 L 443.4220641644505 318.04179393178447 L 456.4198802973928 307.33771005759667" stroke-miterlimit="10"/></g><g transform="translate(-158,-174) scale(1,1)"><rect fill="#C0C0C0" stroke="none" x="191" y="543" width="126" height="44" opacity="0.2"/></g><g transform="translate(-158,-174) scale(1,1)"><rect fill="#ffffff" stroke="none" x="184" y="536" width="126" height="44"/></g><g transform="translate(-158,-174) scale(1,1)"><path fill="none" stroke="#000000" d="M 184 536 L 310 536 L 310 580 L 184 580 L 184 536 Z Z" stroke-miterlimit="10"/></g><g transform="translate(-158,-174) scale(1,1)"><path fill="none" stroke="#000000" d="M 184 561 L 310 561" stroke-miterlimit="10"/></g><g transform="translate(-158,-174) scale(1,1)"><path fill="none" stroke="#000000" d="M 184 571 L 310 571" stroke-miterlimit="10"/></g><g transform="translate(-158,-174) scale(1,1)"><g><path fill="none" stroke="none"/><text fill="#000000" stroke="none" font-family="Arial" font-size="13px" font-style="normal" font-weight="bold" text-decoration="none" x="191.5" y="555.5">ExtraTreeClassifier</text></g></g><g transform="translate(-158,-174) scale(1,1)"><rect fill="#C0C0C0" stroke="none" x="479" y="543" width="131" height="44" opacity="0.2"/></g><g transform="translate(-158,-174) scale(1,1)"><rect fill="#ffffff" stroke="none" x="472" y="536" width="131" height="44"/></g><g transform="translate(-158,-174) scale(1,1)"><path fill="none" stroke="#000000" d="M 472 536 L 603 536 L 603 580 L 472 580 L 472 536 Z Z" stroke-miterlimit="10"/></g><g transform="translate(-158,-174) scale(1,1)"><path fill="none" stroke="#000000" d="M 472 561 L 603 561" stroke-miterlimit="10"/></g><g transform="translate(-158,-174) scale(1,1)"><path fill="none" stroke="#000000" d="M 472 571 L 603 571" stroke-miterlimit="10"/></g><g transform="translate(-158,-174) scale(1,1)"><g><path fill="none" stroke="none"/><text fill="#000000" stroke="none" font-family="Arial" font-size="13px" font-style="normal" font-weight="bold" text-decoration="none" x="479.5" y="555.5">ExtraTreeRegressor</text></g></g><g transform="translate(-158,-174) scale(1,1)"><path fill="none" stroke="#000000" d="M 247 535 L 247 457" stroke-miterlimit="10"/></g><g transform="translate(-158,-174) scale(1,1)"><path fill="#FFFFFF" stroke="none" d="M 255.41903551203197 477.3253497152483 L 247 457 L 238.58096448796803 477.3253497152483"/></g><g transform="translate(-158,-174) scale(1,1)"><path fill="none" stroke="#000000" d="M 255.41903551203197 477.3253497152483 L 247 457 L 238.58096448796803 477.3253497152483 L 255.41903551203197 477.3253497152483" stroke-miterlimit="10"/></g><g transform="translate(-158,-174) scale(1,1)"><path fill="none" stroke="#000000" d="M 538 535 L 539 445" stroke-miterlimit="10"/></g><g transform="translate(-158,-174) scale(1,1)"><path fill="#FFFFFF" stroke="none" d="M 547.1926925868167 465.4176342453752 L 539 445 L 530.3556608536235 465.2305561150064"/></g><g transform="translate(-158,-174) scale(1,1)"><path fill="none" stroke="#000000" d="M 547.1926925868167 465.4176342453752 L 539 445 L 530.3556608536235 465.2305561150064 L 547.1926925868167 465.4176342453752" stroke-miterlimit="10"/></g><g transform="translate(-158,-174) scale(1,1)"><rect fill="#C0C0C0" stroke="none" x="679" y="191" width="125" height="145" opacity="0.2"/></g><g transform="translate(-158,-174) scale(1,1)"><rect fill="#ffffff" stroke="none" x="672" y="184" width="125" height="145"/></g><g transform="translate(-158,-174) scale(1,1)"><path fill="none" stroke="#000000" d="M 672 184 L 797 184 L 797 329 L 672 329 L 672 184 Z Z" stroke-miterlimit="10"/></g><g transform="translate(-158,-174) scale(1,1)"><path fill="none" stroke="#000000" d="M 672 209 L 797 209" stroke-miterlimit="10"/></g><g transform="translate(-158,-174) scale(1,1)"><path fill="none" stroke="#000000" d="M 672 292 L 797 292" stroke-miterlimit="10"/></g><g transform="translate(-158,-174) scale(1,1)"><g><path fill="none" stroke="none"/><text fill="#000000" stroke="none" font-family="Arial" font-size="13px" font-style="normal" font-weight="bold" text-decoration="none" x="701.5" y="203.5">TreeBuilder</text></g></g><g transform="translate(-158,-174) scale(1,1)"><g><path fill="none" stroke="none"/><text fill="#000000" stroke="none" font-family="Arial" font-size="13px" font-style="normal" font-weight="normal" text-decoration="none" x="677" y="226.5">+splitter</text></g></g><g transform="translate(-158,-174) scale(1,1)"><g><path fill="none" stroke="none"/><text fill="#000000" stroke="none" font-family="Arial" font-size="13px" font-style="normal" font-weight="normal" text-decoration="none" x="677" y="241.5">+min_samples_split</text></g></g><g transform="translate(-158,-174) scale(1,1)"><g><path fill="none" stroke="none"/><text fill="#000000" stroke="none" font-family="Arial" font-size="13px" font-style="normal" font-weight="normal" text-decoration="none" x="677" y="256.5">+min_samples_leaf</text></g></g><g transform="translate(-158,-174) scale(1,1)"><g><path fill="none" stroke="none"/><text fill="#000000" stroke="none" font-family="Arial" font-size="13px" font-style="normal" font-weight="normal" text-decoration="none" x="677" y="271.5">+min_weight_leaf</text></g></g><g transform="translate(-158,-174) scale(1,1)"><g><path fill="none" stroke="none"/><text fill="#000000" stroke="none" font-family="Arial" font-size="13px" font-style="normal" font-weight="normal" text-decoration="none" x="677" y="286.5">+max_depth</text></g></g><g transform="translate(-158,-174) scale(1,1)"><g><path fill="none" stroke="none"/><text fill="#000000" stroke="none" font-family="Arial" font-size="13px" font-style="normal" font-weight="normal" text-decoration="none" x="677" y="309.5">+build()</text></g></g><g transform="translate(-158,-174) scale(1,1)"><g><path fill="none" stroke="none"/><text fill="#000000" stroke="none" font-family="Arial" font-size="13px" font-style="normal" font-weight="normal" text-decoration="none" x="677" y="324.5">+_check_input()</text></g></g><g transform="translate(-158,-174) scale(1,1)"><rect fill="#C0C0C0" stroke="none" x="919" y="215" width="106" height="102" opacity="0.2"/></g><g transform="translate(-158,-174) scale(1,1)"><rect fill="#ffffff" stroke="none" x="912" y="208" width="106" height="102"/></g><g transform="translate(-158,-174) scale(1,1)"><path fill="none" stroke="#000000" d="M 912 208 L 1018 208 L 1018 310 L 912 310 L 912 208 Z Z" stroke-miterlimit="10"/></g><g transform="translate(-158,-174) scale(1,1)"><path fill="none" stroke="#000000" d="M 912 233 L 1018 233" stroke-miterlimit="10"/></g><g transform="translate(-158,-174) scale(1,1)"><path fill="none" stroke="#000000" d="M 912 243 L 1018 243" stroke-miterlimit="10"/></g><g transform="translate(-158,-174) scale(1,1)"><g><path fill="none" stroke="none"/><text fill="#000000" stroke="none" font-family="Arial" font-size="13px" font-style="italic" font-weight="bold" text-decoration="none" x="944.5" y="227.5">Splitter</text></g></g><g transform="translate(-158,-174) scale(1,1)"><g><path fill="none" stroke="none"/><text fill="#000000" stroke="none" font-family="Arial" font-size="13px" font-style="normal" font-weight="normal" text-decoration="none" x="917" y="260.5">+node_impurity()</text></g></g><g transform="translate(-158,-174) scale(1,1)"><g><path fill="none" stroke="none"/><text fill="#000000" stroke="none" font-family="Arial" font-size="13px" font-style="normal" font-weight="normal" text-decoration="none" x="917" y="275.5">+node_reset()</text></g></g><g transform="translate(-158,-174) scale(1,1)"><g><path fill="none" stroke="none"/><text fill="#000000" stroke="none" font-family="Arial" font-size="13px" font-style="normal" font-weight="normal" text-decoration="none" x="917" y="290.5">+node_split()</text></g></g><g transform="translate(-158,-174) scale(1,1)"><g><path fill="none" stroke="none"/><text fill="#000000" stroke="none" font-family="Arial" font-size="13px" font-style="normal" font-weight="normal" text-decoration="none" x="917" y="305.5">+node_value()</text></g></g><g transform="translate(-158,-174) scale(1,1)"><rect fill="#C0C0C0" stroke="none" x="1135" y="231" width="192" height="72" opacity="0.2"/></g><g transform="translate(-158,-174) scale(1,1)"><rect fill="#ffffff" stroke="none" x="1128" y="224" width="192" height="72"/></g><g transform="translate(-158,-174) scale(1,1)"><path fill="none" stroke="#000000" d="M 1128 224 L 1320 224 L 1320 296 L 1128 296 L 1128 224 Z Z" stroke-miterlimit="10"/></g><g transform="translate(-158,-174) scale(1,1)"><path fill="none" stroke="#000000" d="M 1128 249 L 1320 249" stroke-miterlimit="10"/></g><g transform="translate(-158,-174) scale(1,1)"><path fill="none" stroke="#000000" d="M 1128 259 L 1320 259" stroke-miterlimit="10"/></g><g transform="translate(-158,-174) scale(1,1)"><g><path fill="none" stroke="none"/><text fill="#000000" stroke="none" font-family="Arial" font-size="13px" font-style="normal" font-weight="bold" text-decoration="none" x="1200" y="243.5">Criterion</text></g></g><g transform="translate(-158,-174) scale(1,1)"><g><path fill="none" stroke="none"/><text fill="#000000" stroke="none" font-family="Arial" font-size="13px" font-style="normal" font-weight="normal" text-decoration="none" x="1133" y="276.5">+proxy_impurity_improvement()</text></g></g><g transform="translate(-158,-174) scale(1,1)"><g><path fill="none" stroke="none"/><text fill="#000000" stroke="none" font-family="Arial" font-size="13px" font-style="normal" font-weight="normal" text-decoration="none" x="1133" y="291.5">+impurity_improvement()</text></g></g><g transform="translate(-158,-174) scale(1,1)"><path fill="none" stroke="#000000" d="M 1019 259 L 1127 260" stroke-miterlimit="10"/></g><g transform="translate(-158,-174) scale(1,1)"><path fill="#FFFFFF" stroke="none" d="M 1116.7987854116082 264.1152425106646 L 1127 260 L 1116.876736102691 255.69656787372708 L 1105.0009430120667 259.7963050278895"/></g><g transform="translate(-158,-174) scale(1,1)"><path fill="none" stroke="#000000" d="M 1116.7987854116082 264.1152425106646 L 1127 260 L 1116.876736102691 255.69656787372708 L 1105.0009430120667 259.7963050278895 L 1116.7987854116082 264.1152425106646" stroke-miterlimit="10"/></g><g transform="translate(-158,-174) scale(1,1)"><g><path fill="none" stroke="none"/><text fill="#000000" stroke="none" font-family="Arial" font-size="13px" font-style="normal" font-weight="normal" text-decoration="none" x="1058" y="251">+1..1</text></g></g><g transform="translate(-158,-174) scale(1,1)"><path fill="none" stroke="#000000" d="M 798 257 L 911 258" stroke-miterlimit="10"/></g><g transform="translate(-158,-174) scale(1,1)"><path fill="#FFFFFF" stroke="none" d="M 900.8004721513548 262.1194212778873 L 911 258 L 900.8749739731637 253.70071541348017 L 889.0008614107562 257.8053173576173"/></g><g transform="translate(-158,-174) scale(1,1)"><path fill="none" stroke="#000000" d="M 900.8004721513548 262.1194212778873 L 911 258 L 900.8749739731637 253.70071541348017 L 889.0008614107562 257.8053173576173 L 900.8004721513548 262.1194212778873" stroke-miterlimit="10"/></g><g transform="translate(-158,-174) scale(1,1)"><g><path fill="none" stroke="none"/><text fill="#000000" stroke="none" font-family="Arial" font-size="13px" font-style="normal" font-weight="normal" text-decoration="none" x="839" y="249">+1..1</text></g></g><g transform="translate(-158,-174) scale(1,1)"><path fill="none" stroke="#000000" d="M 472 259 L 671 257" stroke-miterlimit="10"/></g><g transform="translate(-158,-174) scale(1,1)"><path fill="#FFFFFF" stroke="none" d="M 660.8801429315722 261.3114374534014 L 671 257 L 660.7955337823144 252.8928271022379 L 649.0011109988897 257.22109436182024"/></g><g transform="translate(-158,-174) scale(1,1)"><path fill="none" stroke="#000000" d="M 660.8801429315722 261.3114374534014 L 671 257 L 660.7955337823144 252.8928271022379 L 649.0011109988897 257.22109436182024 L 660.8801429315722 261.3114374534014" stroke-miterlimit="10"/></g><g transform="translate(-158,-174) scale(1,1)"><g><path fill="none" stroke="none"/><text fill="#000000" stroke="none" font-family="Arial" font-size="13px" font-style="normal" font-weight="normal" text-decoration="none" x="555" y="250">+1..1</text></g></g></g></svg>