<svg version="1.1" xmlns="http://www.w3.org/2000/svg" xmlns:xlink="http://www.w3.org/1999/xlink" width="2219.5498046875" height="1504"><defs/><g><g transform="translate(-358,-262) scale(1,1)"><rect fill="#C0C0C0" stroke="none" x="375" y="695" width="192.8662109375" height="87" opacity="0.2"/></g><g transform="translate(-358,-262) scale(1,1)"><rect fill="#ffffff" stroke="none" x="368" y="688" width="192.8662109375" height="87"/></g><g transform="translate(-358,-262) scale(1,1)"><path fill="none" stroke="#000000" d="M 368 688 L 560.8662109375 688 L 560.8662109375 775 L 368 775 L 368 688 Z Z" stroke-miterlimit="10"/></g><g transform="translate(-358,-262) scale(1,1)"><path fill="none" stroke="#000000" d="M 368 713 L 560.8662109375 713" stroke-miterlimit="10"/></g><g transform="translate(-358,-262) scale(1,1)"><path fill="none" stroke="#000000" d="M 368 723 L 560.8662109375 723" stroke-miterlimit="10"/></g><g transform="translate(-358,-262) scale(1,1)"><g><path fill="none" stroke="none"/><text fill="#000000" stroke="none" font-family="Arial" font-size="13px" font-style="normal" font-weight="bold" text-decoration="none" x="384.93310546875" y="707.5">GradientBoostingRegressor</text></g></g><g transform="translate(-358,-262) scale(1,1)"><g><path fill="none" stroke="none"/><text fill="#000000" stroke="none" font-family="Arial" font-size="13px" font-style="normal" font-weight="normal" text-decoration="none" x="373" y="740.5">+apply()</text></g></g><g transform="translate(-358,-262) scale(1,1)"><g><path fill="none" stroke="none"/><text fill="#000000" stroke="none" font-family="Arial" font-size="13px" font-style="normal" font-weight="normal" text-decoration="none" x="373" y="755.5">+predict()</text></g></g><g transform="translate(-358,-262) scale(1,1)"><g><path fill="none" stroke="none"/><text fill="#000000" stroke="none" font-family="Arial" font-size="13px" font-style="normal" font-weight="normal" text-decoration="none" x="373" y="770.5">+staged_predict()</text></g></g><g transform="translate(-358,-262) scale(1,1)"><rect fill="#C0C0C0" stroke="none" x="671" y="687" width="188.46728515625" height="102" opacity="0.2"/></g><g transform="translate(-358,-262) scale(1,1)"><rect fill="#ffffff" stroke="none" x="664" y="680" width="188.46728515625" height="102"/></g><g transform="translate(-358,-262) scale(1,1)"><path fill="none" stroke="#000000" d="M 664 680 L 852.46728515625 680 L 852.46728515625 782 L 664 782 L 664 680 Z Z" stroke-miterlimit="10"/></g><g transform="translate(-358,-262) scale(1,1)"><path fill="none" stroke="#000000" d="M 664 705 L 852.46728515625 705" stroke-miterlimit="10"/></g><g transform="translate(-358,-262) scale(1,1)"><path fill="none" stroke="#000000" d="M 664 715 L 852.46728515625 715" stroke-miterlimit="10"/></g><g transform="translate(-358,-262) scale(1,1)"><g><path fill="none" stroke="none"/><text fill="#000000" stroke="none" font-family="Arial" font-size="13px" font-style="normal" font-weight="bold" text-decoration="none" x="681.233642578125" y="699.5">GradientBoostingClassifier</text></g></g><g transform="translate(-358,-262) scale(1,1)"><g><path fill="none" stroke="none"/><text fill="#000000" stroke="none" font-family="Arial" font-size="13px" font-style="normal" font-weight="normal" text-decoration="none" x="669" y="732.5">+predict()</text></g></g><g transform="translate(-358,-262) scale(1,1)"><g><path fill="none" stroke="none"/><text fill="#000000" stroke="none" font-family="Arial" font-size="13px" font-style="normal" font-weight="normal" text-decoration="none" x="669" y="747.5">+predict_proba()</text></g></g><g transform="translate(-358,-262) scale(1,1)"><g><path fill="none" stroke="none"/><text fill="#000000" stroke="none" font-family="Arial" font-size="13px" font-style="normal" font-weight="normal" text-decoration="none" x="669" y="762.5">+staged_predict()</text></g></g><g transform="translate(-358,-262) scale(1,1)"><g><path fill="none" stroke="none"/><text fill="#000000" stroke="none" font-family="Arial" font-size="13px" font-style="normal" font-weight="normal" text-decoration="none" x="669" y="777.5">+staged_predict_proba()</text></g></g><g transform="translate(-358,-262) scale(1,1)"><rect fill="#C0C0C0" stroke="none" x="575" y="279" width="172" height="117" opacity="0.2"/></g><g transform="translate(-358,-262) scale(1,1)"><rect fill="#ffffff" stroke="none" x="568" y="272" width="172" height="117"/></g><g transform="translate(-358,-262) scale(1,1)"><path fill="none" stroke="#000000" d="M 568 272 L 740 272 L 740 389 L 568 389 L 568 272 Z Z" stroke-miterlimit="10"/></g><g transform="translate(-358,-262) scale(1,1)"><path fill="none" stroke="#000000" d="M 568 297 L 740 297" stroke-miterlimit="10"/></g><g transform="translate(-358,-262) scale(1,1)"><path fill="none" stroke="#000000" d="M 568 307 L 740 307" stroke-miterlimit="10"/></g><g transform="translate(-358,-262) scale(1,1)"><g><path fill="none" stroke="none"/><text fill="#000000" stroke="none" font-family="Arial" font-size="13px" font-style="normal" font-weight="bold" text-decoration="none" x="589" y="291.5">BaseGradientBoosting</text></g></g><g transform="translate(-358,-262) scale(1,1)"><g><path fill="none" stroke="none"/><text fill="#000000" stroke="none" font-family="Arial" font-size="13px" font-style="normal" font-weight="normal" text-decoration="none" x="573" y="324.5">+apply()</text></g></g><g transform="translate(-358,-262) scale(1,1)"><g><path fill="none" stroke="none"/><text fill="#000000" stroke="none" font-family="Arial" font-size="13px" font-style="normal" font-weight="normal" text-decoration="none" x="573" y="339.5">+fit()</text></g></g><g transform="translate(-358,-262) scale(1,1)"><g><path fill="none" stroke="none"/><text fill="#000000" stroke="none" font-family="Arial" font-size="13px" font-style="normal" font-weight="normal" text-decoration="none" x="573" y="354.5">+_fit_stages()</text></g></g><g transform="translate(-358,-262) scale(1,1)"><g><path fill="none" stroke="none"/><text fill="#000000" stroke="none" font-family="Arial" font-size="13px" font-style="normal" font-weight="normal" text-decoration="none" x="573" y="369.5">+_fit_stage()</text></g></g><g transform="translate(-358,-262) scale(1,1)"><g><path fill="none" stroke="none"/><text fill="#000000" stroke="none" font-family="Arial" font-size="13px" font-style="normal" font-weight="normal" text-decoration="none" x="573" y="384.5">+feature_importances()</text></g></g><g transform="translate(-358,-262) scale(1,1)"><path fill="none" stroke="#000000" d="M 485 687 L 626 390" stroke-miterlimit="10"/></g><g transform="translate(-358,-262) scale(1,1)"><path fill="#FFFFFF" stroke="none" d="M 624.888523048102 411.9719052197437 L 626 390 L 609.6775839337115 404.75055028664923"/></g><g transform="translate(-358,-262) scale(1,1)"><path fill="none" stroke="#000000" d="M 624.888523048102 411.9719052197437 L 626 390 L 609.6775839337115 404.75055028664923 L 624.888523048102 411.9719052197437" stroke-miterlimit="10"/></g><g transform="translate(-358,-262) scale(1,1)"><path fill="none" stroke="#000000" d="M 745 679 L 670 390" stroke-miterlimit="10"/></g><g transform="translate(-358,-262) scale(1,1)"><path fill="#FFFFFF" stroke="none" d="M 683.2547111046724 407.55883349006064 L 670 390 L 666.9565258742351 411.7884663353298"/></g><g transform="translate(-358,-262) scale(1,1)"><path fill="none" stroke="#000000" d="M 683.2547111046724 407.55883349006064 L 670 390 L 666.9565258742351 411.7884663353298 L 683.2547111046724 407.55883349006064" stroke-miterlimit="10"/></g><g transform="translate(-358,-262) scale(1,1)"><rect fill="#C0C0C0" stroke="none" x="1663" y="1719" width="104.18310546875" height="44" opacity="0.2"/></g><g transform="translate(-358,-262) scale(1,1)"><rect fill="#ffffff" stroke="none" x="1656" y="1712" width="104.18310546875" height="44"/></g><g transform="translate(-358,-262) scale(1,1)"><path fill="none" stroke="#000000" d="M 1656 1712 L 1760.18310546875 1712 L 1760.18310546875 1756 L 1656 1756 L 1656 1712 Z Z" stroke-miterlimit="10"/></g><g transform="translate(-358,-262) scale(1,1)"><path fill="none" stroke="#000000" d="M 1656 1737 L 1760.18310546875 1737" stroke-miterlimit="10"/></g><g transform="translate(-358,-262) scale(1,1)"><path fill="none" stroke="#000000" d="M 1656 1747 L 1760.18310546875 1747" stroke-miterlimit="10"/></g><g transform="translate(-358,-262) scale(1,1)"><g><path fill="none" stroke="none"/><text fill="#000000" stroke="none" font-family="Arial" font-size="13px" font-style="normal" font-weight="bold" text-decoration="none" x="1665.091552734375" y="1731.5">BaseEstimator</text></g></g><g transform="translate(-358,-262) scale(1,1)"><rect fill="#C0C0C0" stroke="none" x="1255" y="1487" width="130.1513671875" height="72" opacity="0.2"/></g><g transform="translate(-358,-262) scale(1,1)"><rect fill="#ffffff" stroke="none" x="1248" y="1480" width="130.1513671875" height="72"/></g><g transform="translate(-358,-262) scale(1,1)"><path fill="none" stroke="#000000" d="M 1248 1480 L 1378.1513671875 1480 L 1378.1513671875 1552 L 1248 1552 L 1248 1480 Z Z" stroke-miterlimit="10"/></g><g transform="translate(-358,-262) scale(1,1)"><path fill="none" stroke="#000000" d="M 1248 1505 L 1378.1513671875 1505" stroke-miterlimit="10"/></g><g transform="translate(-358,-262) scale(1,1)"><path fill="none" stroke="#000000" d="M 1248 1515 L 1378.1513671875 1515" stroke-miterlimit="10"/></g><g transform="translate(-358,-262) scale(1,1)"><g><path fill="none" stroke="none"/><text fill="#000000" stroke="none" font-family="Arial" font-size="13px" font-style="normal" font-weight="bold" text-decoration="none" x="1261.07568359375" y="1499.5">QuantileEstimator</text></g></g><g transform="translate(-358,-262) scale(1,1)"><g><path fill="none" stroke="none"/><text fill="#000000" stroke="none" font-family="Arial" font-size="13px" font-style="normal" font-weight="normal" text-decoration="none" x="1253" y="1532.5">+fit()</text></g></g><g transform="translate(-358,-262) scale(1,1)"><g><path fill="none" stroke="none"/><text fill="#000000" stroke="none" font-family="Arial" font-size="13px" font-style="normal" font-weight="normal" text-decoration="none" x="1253" y="1547.5">+predict()</text></g></g><g transform="translate(-358,-262) scale(1,1)"><rect fill="#C0C0C0" stroke="none" x="1463" y="1487" width="108.98193359375" height="72" opacity="0.2"/></g><g transform="translate(-358,-262) scale(1,1)"><rect fill="#ffffff" stroke="none" x="1456" y="1480" width="108.98193359375" height="72"/></g><g transform="translate(-358,-262) scale(1,1)"><path fill="none" stroke="#000000" d="M 1456 1480 L 1564.98193359375 1480 L 1564.98193359375 1552 L 1456 1552 L 1456 1480 Z Z" stroke-miterlimit="10"/></g><g transform="translate(-358,-262) scale(1,1)"><path fill="none" stroke="#000000" d="M 1456 1505 L 1564.98193359375 1505" stroke-miterlimit="10"/></g><g transform="translate(-358,-262) scale(1,1)"><path fill="none" stroke="#000000" d="M 1456 1515 L 1564.98193359375 1515" stroke-miterlimit="10"/></g><g transform="translate(-358,-262) scale(1,1)"><g><path fill="none" stroke="none"/><text fill="#000000" stroke="none" font-family="Arial" font-size="13px" font-style="normal" font-weight="bold" text-decoration="none" x="1466.490966796875" y="1499.5">MeanEstimator</text></g></g><g transform="translate(-358,-262) scale(1,1)"><g><path fill="none" stroke="none"/><text fill="#000000" stroke="none" font-family="Arial" font-size="13px" font-style="normal" font-weight="normal" text-decoration="none" x="1461" y="1532.5">+fit()</text></g></g><g transform="translate(-358,-262) scale(1,1)"><g><path fill="none" stroke="none"/><text fill="#000000" stroke="none" font-family="Arial" font-size="13px" font-style="normal" font-weight="normal" text-decoration="none" x="1461" y="1547.5">+predict()</text></g></g><g transform="translate(-358,-262) scale(1,1)"><rect fill="#C0C0C0" stroke="none" x="2183" y="1495" width="133.10302734375" height="72" opacity="0.2"/></g><g transform="translate(-358,-262) scale(1,1)"><rect fill="#ffffff" stroke="none" x="2176" y="1488" width="133.10302734375" height="72"/></g><g transform="translate(-358,-262) scale(1,1)"><path fill="none" stroke="#000000" d="M 2176 1488 L 2309.10302734375 1488 L 2309.10302734375 1560 L 2176 1560 L 2176 1488 Z Z" stroke-miterlimit="10"/></g><g transform="translate(-358,-262) scale(1,1)"><path fill="none" stroke="#000000" d="M 2176 1513 L 2309.10302734375 1513" stroke-miterlimit="10"/></g><g transform="translate(-358,-262) scale(1,1)"><path fill="none" stroke="#000000" d="M 2176 1523 L 2309.10302734375 1523" stroke-miterlimit="10"/></g><g transform="translate(-358,-262) scale(1,1)"><g><path fill="none" stroke="none"/><text fill="#000000" stroke="none" font-family="Arial" font-size="13px" font-style="normal" font-weight="bold" text-decoration="none" x="2188.551513671875" y="1507.5">LogOddsEstimator</text></g></g><g transform="translate(-358,-262) scale(1,1)"><g><path fill="none" stroke="none"/><text fill="#000000" stroke="none" font-family="Arial" font-size="13px" font-style="normal" font-weight="normal" text-decoration="none" x="2181" y="1540.5">+fit()</text></g></g><g transform="translate(-358,-262) scale(1,1)"><g><path fill="none" stroke="none"/><text fill="#000000" stroke="none" font-family="Arial" font-size="13px" font-style="normal" font-weight="normal" text-decoration="none" x="2181" y="1555.5">+predict()</text></g></g><g transform="translate(-358,-262) scale(1,1)"><rect fill="#C0C0C0" stroke="none" x="2399" y="1503" width="175.5498046875" height="44" opacity="0.2"/></g><g transform="translate(-358,-262) scale(1,1)"><rect fill="#ffffff" stroke="none" x="2392" y="1496" width="175.5498046875" height="44"/></g><g transform="translate(-358,-262) scale(1,1)"><path fill="none" stroke="#000000" d="M 2392 1496 L 2567.5498046875 1496 L 2567.5498046875 1540 L 2392 1540 L 2392 1496 Z Z" stroke-miterlimit="10"/></g><g transform="translate(-358,-262) scale(1,1)"><path fill="none" stroke="#000000" d="M 2392 1521 L 2567.5498046875 1521" stroke-miterlimit="10"/></g><g transform="translate(-358,-262) scale(1,1)"><path fill="none" stroke="#000000" d="M 2392 1531 L 2567.5498046875 1531" stroke-miterlimit="10"/></g><g transform="translate(-358,-262) scale(1,1)"><g><path fill="none" stroke="none"/><text fill="#000000" stroke="none" font-family="Arial" font-size="13px" font-style="normal" font-weight="bold" text-decoration="none" x="2405.77490234375" y="1515.5">ScaledLogOddsEstimator</text></g></g><g transform="translate(-358,-262) scale(1,1)"><rect fill="#C0C0C0" stroke="none" x="1895" y="1495" width="178.2919921875" height="72" opacity="0.2"/></g><g transform="translate(-358,-262) scale(1,1)"><rect fill="#ffffff" stroke="none" x="1888" y="1488" width="178.2919921875" height="72"/></g><g transform="translate(-358,-262) scale(1,1)"><path fill="none" stroke="#000000" d="M 1888 1488 L 2066.2919921875 1488 L 2066.2919921875 1560 L 1888 1560 L 1888 1488 Z Z" stroke-miterlimit="10"/></g><g transform="translate(-358,-262) scale(1,1)"><path fill="none" stroke="#000000" d="M 1888 1513 L 2066.2919921875 1513" stroke-miterlimit="10"/></g><g transform="translate(-358,-262) scale(1,1)"><path fill="none" stroke="#000000" d="M 1888 1523 L 2066.2919921875 1523" stroke-miterlimit="10"/></g><g transform="translate(-358,-262) scale(1,1)"><g><path fill="none" stroke="none"/><text fill="#000000" stroke="none" font-family="Arial" font-size="13px" font-style="normal" font-weight="bold" text-decoration="none" x="1905.14599609375" y="1507.5">PriorProbabilityEstimator</text></g></g><g transform="translate(-358,-262) scale(1,1)"><g><path fill="none" stroke="none"/><text fill="#000000" stroke="none" font-family="Arial" font-size="13px" font-style="normal" font-weight="normal" text-decoration="none" x="1893" y="1540.5">+fit()</text></g></g><g transform="translate(-358,-262) scale(1,1)"><g><path fill="none" stroke="none"/><text fill="#000000" stroke="none" font-family="Arial" font-size="13px" font-style="normal" font-weight="normal" text-decoration="none" x="1893" y="1555.5">+predict()</text></g></g><g transform="translate(-358,-262) scale(1,1)"><rect fill="#C0C0C0" stroke="none" x="1679" y="1487" width="103.5927734375" height="72" opacity="0.2"/></g><g transform="translate(-358,-262) scale(1,1)"><rect fill="#ffffff" stroke="none" x="1672" y="1480" width="103.5927734375" height="72"/></g><g transform="translate(-358,-262) scale(1,1)"><path fill="none" stroke="#000000" d="M 1672 1480 L 1775.5927734375 1480 L 1775.5927734375 1552 L 1672 1552 L 1672 1480 Z Z" stroke-miterlimit="10"/></g><g transform="translate(-358,-262) scale(1,1)"><path fill="none" stroke="#000000" d="M 1672 1505 L 1775.5927734375 1505" stroke-miterlimit="10"/></g><g transform="translate(-358,-262) scale(1,1)"><path fill="none" stroke="#000000" d="M 1672 1515 L 1775.5927734375 1515" stroke-miterlimit="10"/></g><g transform="translate(-358,-262) scale(1,1)"><g><path fill="none" stroke="none"/><text fill="#000000" stroke="none" font-family="Arial" font-size="13px" font-style="normal" font-weight="bold" text-decoration="none" x="1682.79638671875" y="1499.5">ZeroEstimator</text></g></g><g transform="translate(-358,-262) scale(1,1)"><g><path fill="none" stroke="none"/><text fill="#000000" stroke="none" font-family="Arial" font-size="13px" font-style="normal" font-weight="normal" text-decoration="none" x="1677" y="1532.5">+fit()</text></g></g><g transform="translate(-358,-262) scale(1,1)"><g><path fill="none" stroke="none"/><text fill="#000000" stroke="none" font-family="Arial" font-size="13px" font-style="normal" font-weight="normal" text-decoration="none" x="1677" y="1547.5">+predict()</text></g></g><g transform="translate(-358,-262) scale(1,1)"><path fill="none" stroke="#000000" d="M 1544 1553 L 1687 1711" stroke-miterlimit="10"/></g><g transform="translate(-358,-262) scale(1,1)"><path fill="#FFFFFF" stroke="none" d="M 1667.1188747968988 1701.5797632376564 L 1687 1711 L 1679.6030348463044 1690.2808082562324"/></g><g transform="translate(-358,-262) scale(1,1)"><path fill="none" stroke="#000000" d="M 1667.1188747968988 1701.5797632376564 L 1687 1711 L 1679.6030348463044 1690.2808082562324 L 1667.1188747968988 1701.5797632376564" stroke-miterlimit="10"/></g><g transform="translate(-358,-262) scale(1,1)"><path fill="none" stroke="#000000" d="M 2175 1550 L 1761 1713" stroke-miterlimit="10"/></g><g transform="translate(-358,-262) scale(1,1)"><path fill="#FFFFFF" stroke="none" d="M 1776.8279980461557 1697.7201283431145 L 1761 1713 L 1782.996585615288 1713.3875838868003"/></g><g transform="translate(-358,-262) scale(1,1)"><path fill="none" stroke="#000000" d="M 1776.8279980461557 1697.7201283431145 L 1761 1713 L 1782.996585615288 1713.3875838868003 L 1776.8279980461557 1697.7201283431145" stroke-miterlimit="10"/></g><g transform="translate(-358,-262) scale(1,1)"><path fill="none" stroke="#000000" d="M 1379 1553 L 1666 1711" stroke-miterlimit="10"/></g><g transform="translate(-358,-262) scale(1,1)"><path fill="#FFFFFF" stroke="none" d="M 1644.1342860769003 1708.5729535164812 L 1666 1711 L 1652.254786436242 1693.8224243827399"/></g><g transform="translate(-358,-262) scale(1,1)"><path fill="none" stroke="#000000" d="M 1644.1342860769003 1708.5729535164812 L 1666 1711 L 1652.254786436242 1693.8224243827399 L 1644.1342860769003 1708.5729535164812" stroke-miterlimit="10"/></g><g transform="translate(-358,-262) scale(1,1)"><path fill="none" stroke="#000000" d="M 1930 1561 L 1737 1711" stroke-miterlimit="10"/></g><g transform="translate(-358,-262) scale(1,1)"><path fill="#FFFFFF" stroke="none" d="M 1747.881933248318 1691.8797612781862 L 1737 1711 L 1758.2147392504053 1705.174638334205"/></g><g transform="translate(-358,-262) scale(1,1)"><path fill="none" stroke="#000000" d="M 1747.881933248318 1691.8797612781862 L 1737 1711 L 1758.2147392504053 1705.174638334205 L 1747.881933248318 1691.8797612781862" stroke-miterlimit="10"/></g><g transform="translate(-358,-262) scale(1,1)"><path fill="none" stroke="#000000" d="M 1720 1553 L 1710 1711" stroke-miterlimit="10"/></g><g transform="translate(-358,-262) scale(1,1)"><path fill="#FFFFFF" stroke="none" d="M 1702.8816220639512 1690.1834514013592 L 1710 1711 L 1719.6860693653696 1691.247024015373"/></g><g transform="translate(-358,-262) scale(1,1)"><path fill="none" stroke="#000000" d="M 1702.8816220639512 1690.1834514013592 L 1710 1711 L 1719.6860693653696 1691.247024015373 L 1702.8816220639512 1690.1834514013592" stroke-miterlimit="10"/></g><g transform="translate(-358,-262) scale(1,1)"><path fill="none" stroke="#000000" d="M 2391 1520 L 2310 1522" stroke-miterlimit="10"/></g><g transform="translate(-358,-262) scale(1,1)"><path fill="#FFFFFF" stroke="none" d="M 2330.1113426569405 1513.0818221292052 L 2310 1522 L 2330.5269708197557 1529.914762723222"/></g><g transform="translate(-358,-262) scale(1,1)"><path fill="none" stroke="#000000" d="M 2330.1113426569405 1513.0818221292052 L 2310 1522 L 2330.5269708197557 1529.914762723222 L 2330.1113426569405 1513.0818221292052" stroke-miterlimit="10"/></g><g transform="translate(-358,-262) scale(1,1)"><rect fill="#C0C0C0" stroke="none" x="1871" y="639" width="180.93896484375" height="102" opacity="0.2"/></g><g transform="translate(-358,-262) scale(1,1)"><rect fill="#ffffff" stroke="none" x="1864" y="632" width="180.93896484375" height="102"/></g><g transform="translate(-358,-262) scale(1,1)"><path fill="none" stroke="#000000" d="M 1864 632 L 2044.93896484375 632 L 2044.93896484375 734 L 1864 734 L 1864 632 Z Z" stroke-miterlimit="10"/></g><g transform="translate(-358,-262) scale(1,1)"><path fill="none" stroke="#000000" d="M 1864 657 L 2044.93896484375 657" stroke-miterlimit="10"/></g><g transform="translate(-358,-262) scale(1,1)"><path fill="none" stroke="#000000" d="M 1864 667 L 2044.93896484375 667" stroke-miterlimit="10"/></g><g transform="translate(-358,-262) scale(1,1)"><g><path fill="none" stroke="none"/><text fill="#000000" stroke="none" font-family="Arial" font-size="13px" font-style="normal" font-weight="bold" text-decoration="none" x="1915.469482421875" y="651.5">LossFunction</text></g></g><g transform="translate(-358,-262) scale(1,1)"><g><path fill="none" stroke="none"/><text fill="#000000" stroke="none" font-family="Arial" font-size="13px" font-style="normal" font-weight="normal" text-decoration="none" x="1869" y="684.5">+__call__()</text></g></g><g transform="translate(-358,-262) scale(1,1)"><g><path fill="none" stroke="none"/><text fill="#000000" stroke="none" font-family="Arial" font-size="13px" font-style="normal" font-weight="normal" text-decoration="none" x="1869" y="699.5">+negative_gradient()</text></g></g><g transform="translate(-358,-262) scale(1,1)"><g><path fill="none" stroke="none"/><text fill="#000000" stroke="none" font-family="Arial" font-size="13px" font-style="normal" font-weight="normal" text-decoration="none" x="1869" y="714.5">+update_terminal_regions()</text></g></g><g transform="translate(-358,-262) scale(1,1)"><g><path fill="none" stroke="none"/><text fill="#000000" stroke="none" font-family="Arial" font-size="13px" font-style="normal" font-weight="normal" text-decoration="none" x="1869" y="729.5">+_update_terminal_region()</text></g></g><g transform="translate(-358,-262) scale(1,1)"><rect fill="#C0C0C0" stroke="none" x="1319" y="847" width="171.8173828125" height="44" opacity="0.2"/></g><g transform="translate(-358,-262) scale(1,1)"><rect fill="#ffffff" stroke="none" x="1312" y="840" width="171.8173828125" height="44"/></g><g transform="translate(-358,-262) scale(1,1)"><path fill="none" stroke="#000000" d="M 1312 840 L 1483.8173828125 840 L 1483.8173828125 884 L 1312 884 L 1312 840 Z Z" stroke-miterlimit="10"/></g><g transform="translate(-358,-262) scale(1,1)"><path fill="none" stroke="#000000" d="M 1312 865 L 1483.8173828125 865" stroke-miterlimit="10"/></g><g transform="translate(-358,-262) scale(1,1)"><path fill="none" stroke="#000000" d="M 1312 875 L 1483.8173828125 875" stroke-miterlimit="10"/></g><g transform="translate(-358,-262) scale(1,1)"><g><path fill="none" stroke="none"/><text fill="#000000" stroke="none" font-family="Arial" font-size="13px" font-style="normal" font-weight="bold" text-decoration="none" x="1326.40869140625" y="859.5">RegressionLossFunction</text></g></g><g transform="translate(-358,-262) scale(1,1)"><rect fill="#C0C0C0" stroke="none" x="1663" y="1023" width="131.37646484375" height="44" opacity="0.2"/></g><g transform="translate(-358,-262) scale(1,1)"><rect fill="#ffffff" stroke="none" x="1656" y="1016" width="131.37646484375" height="44"/></g><g transform="translate(-358,-262) scale(1,1)"><path fill="none" stroke="#000000" d="M 1656 1016 L 1787.37646484375 1016 L 1787.37646484375 1060 L 1656 1060 L 1656 1016 Z Z" stroke-miterlimit="10"/></g><g transform="translate(-358,-262) scale(1,1)"><path fill="none" stroke="#000000" d="M 1656 1041 L 1787.37646484375 1041" stroke-miterlimit="10"/></g><g transform="translate(-358,-262) scale(1,1)"><path fill="none" stroke="#000000" d="M 1656 1051 L 1787.37646484375 1051" stroke-miterlimit="10"/></g><g transform="translate(-358,-262) scale(1,1)"><g><path fill="none" stroke="none"/><text fill="#000000" stroke="none" font-family="Arial" font-size="13px" font-style="normal" font-weight="bold" text-decoration="none" x="1667.688232421875" y="1035.5">LeastSquaresError</text></g></g><g transform="translate(-358,-262) scale(1,1)"><path fill="none" stroke="#000000" d="M 1469 839 L 1863 712" stroke-miterlimit="10"/></g><g transform="translate(-358,-262) scale(1,1)"><path fill="#FFFFFF" stroke="none" d="M 1846.2376862784859 726.2486784896543 L 1863 712 L 1841.0719171161595 710.2225914821224"/></g><g transform="translate(-358,-262) scale(1,1)"><path fill="none" stroke="#000000" d="M 1846.2376862784859 726.2486784896543 L 1863 712 L 1841.0719171161595 710.2225914821224 L 1846.2376862784859 726.2486784896543" stroke-miterlimit="10"/></g><g transform="translate(-358,-262) scale(1,1)"><path fill="none" stroke="#000000" d="M 1679 1015 L 1439 885" stroke-miterlimit="10"/></g><g transform="translate(-358,-262) scale(1,1)"><path fill="#FFFFFF" stroke="none" d="M 1460.8817614630154 887.2778312658528 L 1439 885 L 1452.8620719803214 902.0834118492879"/></g><g transform="translate(-358,-262) scale(1,1)"><path fill="none" stroke="#000000" d="M 1460.8817614630154 887.2778312658528 L 1439 885 L 1452.8620719803214 902.0834118492879 L 1460.8817614630154 887.2778312658528" stroke-miterlimit="10"/></g><g transform="translate(-358,-262) scale(1,1)"><rect fill="#C0C0C0" stroke="none" x="959" y="1023" width="137.7685546875" height="44" opacity="0.2"/></g><g transform="translate(-358,-262) scale(1,1)"><rect fill="#ffffff" stroke="none" x="952" y="1016" width="137.7685546875" height="44"/></g><g transform="translate(-358,-262) scale(1,1)"><path fill="none" stroke="#000000" d="M 952 1016 L 1089.7685546875 1016 L 1089.7685546875 1060 L 952 1060 L 952 1016 Z Z" stroke-miterlimit="10"/></g><g transform="translate(-358,-262) scale(1,1)"><path fill="none" stroke="#000000" d="M 952 1041 L 1089.7685546875 1041" stroke-miterlimit="10"/></g><g transform="translate(-358,-262) scale(1,1)"><path fill="none" stroke="#000000" d="M 952 1051 L 1089.7685546875 1051" stroke-miterlimit="10"/></g><g transform="translate(-358,-262) scale(1,1)"><g><path fill="none" stroke="none"/><text fill="#000000" stroke="none" font-family="Arial" font-size="13px" font-style="normal" font-weight="bold" text-decoration="none" x="965.38427734375" y="1035.5">LeastAbsoluteError</text></g></g><g transform="translate(-358,-262) scale(1,1)"><rect fill="#C0C0C0" stroke="none" x="1167" y="1023" width="138.18115234375" height="44" opacity="0.2"/></g><g transform="translate(-358,-262) scale(1,1)"><rect fill="#ffffff" stroke="none" x="1160" y="1016" width="138.18115234375" height="44"/></g><g transform="translate(-358,-262) scale(1,1)"><path fill="none" stroke="#000000" d="M 1160 1016 L 1298.18115234375 1016 L 1298.18115234375 1060 L 1160 1060 L 1160 1016 Z Z" stroke-miterlimit="10"/></g><g transform="translate(-358,-262) scale(1,1)"><path fill="none" stroke="#000000" d="M 1160 1041 L 1298.18115234375 1041" stroke-miterlimit="10"/></g><g transform="translate(-358,-262) scale(1,1)"><path fill="none" stroke="#000000" d="M 1160 1051 L 1298.18115234375 1051" stroke-miterlimit="10"/></g><g transform="translate(-358,-262) scale(1,1)"><g><path fill="none" stroke="none"/><text fill="#000000" stroke="none" font-family="Arial" font-size="13px" font-style="normal" font-weight="bold" text-decoration="none" x="1173.090576171875" y="1035.5">HuberLossFunction</text></g></g><g transform="translate(-358,-262) scale(1,1)"><rect fill="#C0C0C0" stroke="none" x="1399" y="1023" width="154.12646484375" height="44" opacity="0.2"/></g><g transform="translate(-358,-262) scale(1,1)"><rect fill="#ffffff" stroke="none" x="1392" y="1016" width="154.12646484375" height="44"/></g><g transform="translate(-358,-262) scale(1,1)"><path fill="none" stroke="#000000" d="M 1392 1016 L 1546.12646484375 1016 L 1546.12646484375 1060 L 1392 1060 L 1392 1016 Z Z" stroke-miterlimit="10"/></g><g transform="translate(-358,-262) scale(1,1)"><path fill="none" stroke="#000000" d="M 1392 1041 L 1546.12646484375 1041" stroke-miterlimit="10"/></g><g transform="translate(-358,-262) scale(1,1)"><path fill="none" stroke="#000000" d="M 1392 1051 L 1546.12646484375 1051" stroke-miterlimit="10"/></g><g transform="translate(-358,-262) scale(1,1)"><g><path fill="none" stroke="none"/><text fill="#000000" stroke="none" font-family="Arial" font-size="13px" font-style="normal" font-weight="bold" text-decoration="none" x="1406.063232421875" y="1035.5">QuantileLossFunction</text></g></g><g transform="translate(-358,-262) scale(1,1)"><path fill="none" stroke="#000000" d="M 1069 1015 L 1348 885" stroke-miterlimit="10"/></g><g transform="translate(-358,-262) scale(1,1)"><path fill="#FFFFFF" stroke="none" d="M 1333.1322479216092 901.2157315017085 L 1348 885 L 1326.0206579776109 885.9531653911279"/></g><g transform="translate(-358,-262) scale(1,1)"><path fill="none" stroke="#000000" d="M 1333.1322479216092 901.2157315017085 L 1348 885 L 1326.0206579776109 885.9531653911279 L 1333.1322479216092 901.2157315017085" stroke-miterlimit="10"/></g><g transform="translate(-358,-262) scale(1,1)"><path fill="none" stroke="#000000" d="M 1251 1015 L 1375 885" stroke-miterlimit="10"/></g><g transform="translate(-358,-262) scale(1,1)"><path fill="#FFFFFF" stroke="none" d="M 1367.0633048927427 905.5185006950908 L 1375 885 L 1354.8791380881687 893.8966800507278"/></g><g transform="translate(-358,-262) scale(1,1)"><path fill="none" stroke="#000000" d="M 1367.0633048927427 905.5185006950908 L 1375 885 L 1354.8791380881687 893.8966800507278 L 1367.0633048927427 905.5185006950908" stroke-miterlimit="10"/></g><g transform="translate(-358,-262) scale(1,1)"><path fill="none" stroke="#000000" d="M 1460 1015 L 1406 885" stroke-miterlimit="10"/></g><g transform="translate(-358,-262) scale(1,1)"><path fill="#FFFFFF" stroke="none" d="M 1421.571884424585 900.5407984179503 L 1406 885 L 1406.0219811260913 906.9999890188631"/></g><g transform="translate(-358,-262) scale(1,1)"><path fill="none" stroke="#000000" d="M 1421.571884424585 900.5407984179503 L 1406 885 L 1406.0219811260913 906.9999890188631 L 1421.571884424585 900.5407984179503" stroke-miterlimit="10"/></g><g transform="translate(-358,-262) scale(1,1)"><rect fill="#C0C0C0" stroke="none" x="2159" y="839" width="187.93408203125" height="72" opacity="0.2"/></g><g transform="translate(-358,-262) scale(1,1)"><rect fill="#ffffff" stroke="none" x="2152" y="832" width="187.93408203125" height="72"/></g><g transform="translate(-358,-262) scale(1,1)"><path fill="none" stroke="#000000" d="M 2152 832 L 2339.93408203125 832 L 2339.93408203125 904 L 2152 904 L 2152 832 Z Z" stroke-miterlimit="10"/></g><g transform="translate(-358,-262) scale(1,1)"><path fill="none" stroke="#000000" d="M 2152 857 L 2339.93408203125 857" stroke-miterlimit="10"/></g><g transform="translate(-358,-262) scale(1,1)"><path fill="none" stroke="#000000" d="M 2152 867 L 2339.93408203125 867" stroke-miterlimit="10"/></g><g transform="translate(-358,-262) scale(1,1)"><g><path fill="none" stroke="none"/><text fill="#000000" stroke="none" font-family="Arial" font-size="13px" font-style="normal" font-weight="bold" text-decoration="none" x="2167.967041015625" y="851.5">ClassificationLossFunction</text></g></g><g transform="translate(-358,-262) scale(1,1)"><g><path fill="none" stroke="none"/><text fill="#000000" stroke="none" font-family="Arial" font-size="13px" font-style="normal" font-weight="normal" text-decoration="none" x="2157" y="884.5">+_score_to_proba()</text></g></g><g transform="translate(-358,-262) scale(1,1)"><g><path fill="none" stroke="none"/><text fill="#000000" stroke="none" font-family="Arial" font-size="13px" font-style="normal" font-weight="normal" text-decoration="none" x="2157" y="899.5">+_score_to_decision()</text></g></g><g transform="translate(-358,-262) scale(1,1)"><rect fill="#C0C0C0" stroke="none" x="2183" y="1031" width="134.46142578125" height="44" opacity="0.2"/></g><g transform="translate(-358,-262) scale(1,1)"><rect fill="#ffffff" stroke="none" x="2176" y="1024" width="134.46142578125" height="44"/></g><g transform="translate(-358,-262) scale(1,1)"><path fill="none" stroke="#000000" d="M 2176 1024 L 2310.46142578125 1024 L 2310.46142578125 1068 L 2176 1068 L 2176 1024 Z Z" stroke-miterlimit="10"/></g><g transform="translate(-358,-262) scale(1,1)"><path fill="none" stroke="#000000" d="M 2176 1049 L 2310.46142578125 1049" stroke-miterlimit="10"/></g><g transform="translate(-358,-262) scale(1,1)"><path fill="none" stroke="#000000" d="M 2176 1059 L 2310.46142578125 1059" stroke-miterlimit="10"/></g><g transform="translate(-358,-262) scale(1,1)"><g><path fill="none" stroke="none"/><text fill="#000000" stroke="none" font-family="Arial" font-size="13px" font-style="normal" font-weight="bold" text-decoration="none" x="2187.730712890625" y="1043.5">BinomialDevicance</text></g></g><g transform="translate(-358,-262) scale(1,1)"><rect fill="#C0C0C0" stroke="none" x="1911" y="1023" width="149.18798828125" height="44" opacity="0.2"/></g><g transform="translate(-358,-262) scale(1,1)"><rect fill="#ffffff" stroke="none" x="1904" y="1016" width="149.18798828125" height="44"/></g><g transform="translate(-358,-262) scale(1,1)"><path fill="none" stroke="#000000" d="M 1904 1016 L 2053.18798828125 1016 L 2053.18798828125 1060 L 1904 1060 L 1904 1016 Z Z" stroke-miterlimit="10"/></g><g transform="translate(-358,-262) scale(1,1)"><path fill="none" stroke="#000000" d="M 1904 1041 L 2053.18798828125 1041" stroke-miterlimit="10"/></g><g transform="translate(-358,-262) scale(1,1)"><path fill="none" stroke="#000000" d="M 1904 1051 L 2053.18798828125 1051" stroke-miterlimit="10"/></g><g transform="translate(-358,-262) scale(1,1)"><g><path fill="none" stroke="none"/><text fill="#000000" stroke="none" font-family="Arial" font-size="13px" font-style="normal" font-weight="bold" text-decoration="none" x="1918.593994140625" y="1035.5">MultinomialDeviance</text></g></g><g transform="translate(-358,-262) scale(1,1)"><rect fill="#C0C0C0" stroke="none" x="2423" y="1023" width="118.02734375" height="44" opacity="0.2"/></g><g transform="translate(-358,-262) scale(1,1)"><rect fill="#ffffff" stroke="none" x="2416" y="1016" width="118.02734375" height="44"/></g><g transform="translate(-358,-262) scale(1,1)"><path fill="none" stroke="#000000" d="M 2416 1016 L 2534.02734375 1016 L 2534.02734375 1060 L 2416 1060 L 2416 1016 Z Z" stroke-miterlimit="10"/></g><g transform="translate(-358,-262) scale(1,1)"><path fill="none" stroke="#000000" d="M 2416 1041 L 2534.02734375 1041" stroke-miterlimit="10"/></g><g transform="translate(-358,-262) scale(1,1)"><path fill="none" stroke="#000000" d="M 2416 1051 L 2534.02734375 1051" stroke-miterlimit="10"/></g><g transform="translate(-358,-262) scale(1,1)"><g><path fill="none" stroke="none"/><text fill="#000000" stroke="none" font-family="Arial" font-size="13px" font-style="normal" font-weight="bold" text-decoration="none" x="2427.013671875" y="1035.5">ExponentialLoss</text></g></g><g transform="translate(-358,-262) scale(1,1)"><path fill="none" stroke="#000000" d="M 2243 1023 L 2245 905" stroke-miterlimit="10"/></g><g transform="translate(-358,-262) scale(1,1)"><path fill="#FFFFFF" stroke="none" d="M 2253.0733785075545 925.4651058994025 L 2245 905 L 2236.237725530609 925.1797558489458"/></g><g transform="translate(-358,-262) scale(1,1)"><path fill="none" stroke="#000000" d="M 2253.0733785075545 925.4651058994025 L 2245 905 L 2236.237725530609 925.1797558489458 L 2253.0733785075545 925.4651058994025" stroke-miterlimit="10"/></g><g transform="translate(-358,-262) scale(1,1)"><path fill="none" stroke="#000000" d="M 2014 1015 L 2187 905" stroke-miterlimit="10"/></g><g transform="translate(-358,-262) scale(1,1)"><path fill="#FFFFFF" stroke="none" d="M 2174.365520321312 923.0102727144489 L 2187 905 L 2165.33088777503 908.801259709842"/></g><g transform="translate(-358,-262) scale(1,1)"><path fill="none" stroke="#000000" d="M 2174.365520321312 923.0102727144489 L 2187 905 L 2165.33088777503 908.801259709842 L 2174.365520321312 923.0102727144489" stroke-miterlimit="10"/></g><g transform="translate(-358,-262) scale(1,1)"><path fill="none" stroke="#000000" d="M 2444 1015 L 2295 905" stroke-miterlimit="10"/></g><g transform="translate(-358,-262) scale(1,1)"><path fill="#FFFFFF" stroke="none" d="M 2316.3523651610813 910.2987264533898 L 2295 905 L 2306.3516367929274 923.8451676066163"/></g><g transform="translate(-358,-262) scale(1,1)"><path fill="none" stroke="#000000" d="M 2316.3523651610813 910.2987264533898 L 2295 905 L 2306.3516367929274 923.8451676066163 L 2316.3523651610813 910.2987264533898" stroke-miterlimit="10"/></g><g transform="translate(-358,-262) scale(1,1)"><path fill="none" stroke="#000000" d="M 2187 831 L 2036 735" stroke-miterlimit="10"/></g><g transform="translate(-358,-262) scale(1,1)"><path fill="#FFFFFF" stroke="none" d="M 2057.6693194418817 738.8000782788895 L 2036 735 L 2048.6354616010094 753.0095838410945"/></g><g transform="translate(-358,-262) scale(1,1)"><path fill="none" stroke="#000000" d="M 2057.6693194418817 738.8000782788895 L 2036 735 L 2048.6354616010094 753.0095838410945 L 2057.6693194418817 738.8000782788895" stroke-miterlimit="10"/></g><g transform="translate(-358,-262) scale(1,1)"><path fill="none" stroke="#000000" d="M 1711 1061 L 1526 1479" stroke-miterlimit="10"/></g><g transform="translate(-358,-262) scale(1,1)"><path fill="none" stroke="#000000" d="M 1526.2636489813485 1468.003160035054 L 1526 1479 L 1533.962368093401 1471.410487871728" stroke-miterlimit="10"/></g><g transform="translate(-358,-262) scale(1,1)"><path fill="none" stroke="#000000" d="M 1034 1061 L 1290 1479" stroke-miterlimit="10"/></g><g transform="translate(-358,-262) scale(1,1)"><path fill="none" stroke="#000000" d="M 1281.1025086207349 1472.5320291314893 L 1290 1479 L 1288.2820695718137 1468.1349774485318" stroke-miterlimit="10"/></g><g transform="translate(-358,-262) scale(1,1)"><path fill="none" stroke="#000000" d="M 1233 1061 L 1306 1479" stroke-miterlimit="10"/></g><g transform="translate(-358,-262) scale(1,1)"><path fill="none" stroke="#000000" d="M 1300.1048849459482 1469.713040406059 L 1306 1479 L 1308.3983962748862 1468.264652063924" stroke-miterlimit="10"/></g><g transform="translate(-358,-262) scale(1,1)"><path fill="none" stroke="#000000" d="M 1461 1061 L 1325 1479" stroke-miterlimit="10"/></g><g transform="translate(-358,-262) scale(1,1)"><path fill="none" stroke="#000000" d="M 1324.1413054012514 1468.0335674175199 L 1325 1479 L 1332.1472500707532 1470.6383723817598" stroke-miterlimit="10"/></g><g transform="translate(-358,-262) scale(1,1)"><path fill="none" stroke="#000000" d="M 2243 1069 L 2242 1487" stroke-miterlimit="10"/></g><g transform="translate(-358,-262) scale(1,1)"><path fill="none" stroke="#000000" d="M 2237.814806839827 1476.8272836365088 L 2242 1487 L 2246.233818259578 1476.8474248121543" stroke-miterlimit="10"/></g><g transform="translate(-358,-262) scale(1,1)"><path fill="none" stroke="#000000" d="M 1978 1061 L 1977 1487" stroke-miterlimit="10"/></g><g transform="translate(-358,-262) scale(1,1)"><path fill="none" stroke="#000000" d="M 1972.8143498204765 1476.8274716724575 L 1977 1487 L 1981.2333621366017 1476.8472346121666" stroke-miterlimit="10"/></g><g transform="translate(-358,-262) scale(1,1)"><path fill="none" stroke="#000000" d="M 2475 1061 L 2479 1495" stroke-miterlimit="10"/></g><g transform="translate(-358,-262) scale(1,1)"><path fill="none" stroke="#000000" d="M 2474.6969997943556 1484.8765525027181 L 2479 1495 L 2483.1156777494557 1484.7989610008276" stroke-miterlimit="10"/></g><g transform="translate(-358,-262) scale(1,1)"><path fill="none" stroke="#000000" d="M 741 354 L 1863 658" stroke-miterlimit="10"/></g><g transform="translate(-358,-262) scale(1,1)"><path fill="none" stroke="#000000" d="M 1852.0901392113633 659.4053247213964 L 1863 658 L 1854.2918488142855 651.2792780948222" stroke-miterlimit="10"/></g></g></svg>