<svg version="1.1" xmlns="http://www.w3.org/2000/svg" xmlns:xlink="http://www.w3.org/1999/xlink" width="1423" height="1051"><defs/><g><g transform="translate(-278,-14) scale(1,1)"><rect fill="#C0C0C0" stroke="none" x="655" y="623" width="99.05419921875" height="57" opacity="0.2"/></g><g transform="translate(-278,-14) scale(1,1)"><rect fill="#ffffff" stroke="none" x="648" y="616" width="99.05419921875" height="57"/></g><g transform="translate(-278,-14) scale(1,1)"><path fill="none" stroke="#000000" d="M 648 616 L 747.05419921875 616 L 747.05419921875 673 L 648 673 L 648 616 Z Z" stroke-miterlimit="10"/></g><g transform="translate(-278,-14) scale(1,1)"><path fill="none" stroke="#000000" d="M 648 641 L 747.05419921875 641" stroke-miterlimit="10"/></g><g transform="translate(-278,-14) scale(1,1)"><path fill="none" stroke="#000000" d="M 648 651 L 747.05419921875 651" stroke-miterlimit="10"/></g><g transform="translate(-278,-14) scale(1,1)"><g><path fill="none" stroke="none"/><text fill="#000000" stroke="none" font-family="Arial" font-size="13px" font-style="normal" font-weight="bold" text-decoration="none" x="657.027099609375" y="635.5">GBTClassifier</text></g></g><g transform="translate(-278,-14) scale(1,1)"><g><path fill="none" stroke="none"/><text fill="#000000" stroke="none" font-family="Arial" font-size="13px" font-style="normal" font-weight="normal" text-decoration="none" x="653" y="668.5">#train()</text></g></g><g transform="translate(-278,-14) scale(1,1)"><rect fill="#C0C0C0" stroke="none" x="543" y="487" width="69.74072265625" height="44" opacity="0.2"/></g><g transform="translate(-278,-14) scale(1,1)"><rect fill="#ffffff" stroke="none" x="536" y="480" width="69.74072265625" height="44"/></g><g transform="translate(-278,-14) scale(1,1)"><path fill="none" stroke="#000000" d="M 536 480 L 605.74072265625 480 L 605.74072265625 524 L 536 524 L 536 480 Z Z" stroke-miterlimit="10"/></g><g transform="translate(-278,-14) scale(1,1)"><path fill="none" stroke="#000000" d="M 536 505 L 605.74072265625 505" stroke-miterlimit="10"/></g><g transform="translate(-278,-14) scale(1,1)"><path fill="none" stroke="#000000" d="M 536 515 L 605.74072265625 515" stroke-miterlimit="10"/></g><g transform="translate(-278,-14) scale(1,1)"><g><path fill="none" stroke="none"/><text fill="#000000" stroke="none" font-family="Arial" font-size="13px" font-style="normal" font-weight="bold" text-decoration="none" x="544.870361328125" y="499.5">Predictor</text></g></g><g transform="translate(-278,-14) scale(1,1)"><path fill="none" stroke="#000000" d="M 671 615 L 591 525" stroke-miterlimit="10"/></g><g transform="translate(-278,-14) scale(1,1)"><path fill="#FFFFFF" stroke="none" d="M 610.7958929584044 534.5980530306618 L 591 525 L 598.2109617663616 545.7846585346998"/></g><g transform="translate(-278,-14) scale(1,1)"><path fill="none" stroke="#000000" d="M 610.7958929584044 534.5980530306618 L 591 525 L 598.2109617663616 545.7846585346998 L 610.7958929584044 534.5980530306618" stroke-miterlimit="10"/></g><g transform="translate(-278,-14) scale(1,1)"><rect fill="#C0C0C0" stroke="none" x="743" y="431" width="198.39501953125" height="100" opacity="0.2"/></g><g transform="translate(-278,-14) scale(1,1)"><rect fill="#ffffff" stroke="none" x="736" y="424" width="198.39501953125" height="100"/></g><g transform="translate(-278,-14) scale(1,1)"><path fill="none" stroke="#000000" d="M 736 424 L 934.39501953125 424 L 934.39501953125 524 L 736 524 L 736 424 Z Z" stroke-miterlimit="10"/></g><g transform="translate(-278,-14) scale(1,1)"><path fill="none" stroke="#000000" d="M 736 449 L 934.39501953125 449" stroke-miterlimit="10"/></g><g transform="translate(-278,-14) scale(1,1)"><path fill="none" stroke="#000000" d="M 736 487 L 934.39501953125 487" stroke-miterlimit="10"/></g><g transform="translate(-278,-14) scale(1,1)"><g><path fill="none" stroke="none"/><text fill="#000000" stroke="none" font-family="Arial" font-size="13px" font-style="normal" font-weight="bold" text-decoration="none" x="772.197509765625" y="443.5">GBTClassifierParams</text></g></g><g transform="translate(-278,-14) scale(1,1)"><g><path fill="none" stroke="none"/><text fill="#000000" stroke="none" font-family="Arial" font-size="13px" font-style="normal" font-weight="normal" text-decoration="none" x="741" y="466.5">+supportedLossTypes: logistic</text></g></g><g transform="translate(-278,-14) scale(1,1)"><g><path fill="none" stroke="none"/><text fill="#000000" stroke="none" font-family="Arial" font-size="13px" font-style="normal" font-weight="normal" text-decoration="none" x="741" y="481.5">+lossType</text></g></g><g transform="translate(-278,-14) scale(1,1)"><g><path fill="none" stroke="none"/><text fill="#000000" stroke="none" font-family="Arial" font-size="13px" font-style="normal" font-weight="normal" text-decoration="none" x="741" y="504.5">+getOldLossType()</text></g></g><g transform="translate(-278,-14) scale(1,1)"><g><path fill="none" stroke="none"/><text fill="#000000" stroke="none" font-family="Arial" font-size="13px" font-style="normal" font-weight="normal" text-decoration="none" x="741" y="519.5">+getOldLossType()</text></g></g><g transform="translate(-278,-14) scale(1,1)"><path fill="none" stroke="#000000" d="M 721 615 L 794 525" stroke-miterlimit="10"/></g><g transform="translate(-278,-14) scale(1,1)"><path fill="#FFFFFF" stroke="none" d="M 787.734768598525 546.0890226299365 L 794 525 L 774.6576214800896 535.4820033005387"/></g><g transform="translate(-278,-14) scale(1,1)"><path fill="none" stroke="#000000" d="M 787.734768598525 546.0890226299365 L 794 525 L 774.6576214800896 535.4820033005387 L 787.734768598525 546.0890226299365" stroke-miterlimit="10"/></g><g transform="translate(-278,-14) scale(1,1)"><rect fill="#C0C0C0" stroke="none" x="999" y="735" width="157.61767578125" height="72" opacity="0.2"/></g><g transform="translate(-278,-14) scale(1,1)"><rect fill="#ffffff" stroke="none" x="992" y="728" width="157.61767578125" height="72"/></g><g transform="translate(-278,-14) scale(1,1)"><path fill="none" stroke="#000000" d="M 992 728 L 1149.61767578125 728 L 1149.61767578125 800 L 992 800 L 992 728 Z Z" stroke-miterlimit="10"/></g><g transform="translate(-278,-14) scale(1,1)"><path fill="none" stroke="#000000" d="M 992 753 L 1149.61767578125 753" stroke-miterlimit="10"/></g><g transform="translate(-278,-14) scale(1,1)"><path fill="none" stroke="#000000" d="M 992 763 L 1149.61767578125 763" stroke-miterlimit="10"/></g><g transform="translate(-278,-14) scale(1,1)"><g><path fill="none" stroke="none"/><text fill="#000000" stroke="none" font-family="Arial" font-size="13px" font-style="normal" font-weight="bold" text-decoration="none" x="1005.808837890625" y="747.5">GradientBoostedTrees</text></g></g><g transform="translate(-278,-14) scale(1,1)"><g><path fill="none" stroke="none"/><text fill="#000000" stroke="none" font-family="Arial" font-size="13px" font-style="normal" font-weight="normal" text-decoration="none" x="997" y="780.5">+run()</text></g></g><g transform="translate(-278,-14) scale(1,1)"><g><path fill="none" stroke="none"/><text fill="#000000" stroke="none" font-family="Arial" font-size="13px" font-style="normal" font-weight="normal" text-decoration="none" x="997" y="795.5">+boost()</text></g></g><g transform="translate(-278,-14) scale(1,1)"><rect fill="#C0C0C0" stroke="none" x="751" y="975" width="166.98681640625" height="87" opacity="0.2"/></g><g transform="translate(-278,-14) scale(1,1)"><rect fill="#ffffff" stroke="none" x="744" y="968" width="166.98681640625" height="87"/></g><g transform="translate(-278,-14) scale(1,1)"><path fill="none" stroke="#000000" d="M 744 968 L 910.98681640625 968 L 910.98681640625 1055 L 744 1055 L 744 968 Z Z" stroke-miterlimit="10"/></g><g transform="translate(-278,-14) scale(1,1)"><path fill="none" stroke="#000000" d="M 744 993 L 910.98681640625 993" stroke-miterlimit="10"/></g><g transform="translate(-278,-14) scale(1,1)"><path fill="none" stroke="#000000" d="M 744 1016 L 910.98681640625 1016" stroke-miterlimit="10"/></g><g transform="translate(-278,-14) scale(1,1)"><g><path fill="none" stroke="none"/><text fill="#000000" stroke="none" font-family="Arial" font-size="13px" font-style="normal" font-weight="bold" text-decoration="none" x="757.493408203125" y="987.5">GBTClassificationModel</text></g></g><g transform="translate(-278,-14) scale(1,1)"><g><path fill="none" stroke="none"/><text fill="#000000" stroke="none" font-family="Arial" font-size="13px" font-style="normal" font-weight="normal" text-decoration="none" x="749" y="1010.5">+featureImportances</text></g></g><g transform="translate(-278,-14) scale(1,1)"><g><path fill="none" stroke="none"/><text fill="#000000" stroke="none" font-family="Arial" font-size="13px" font-style="normal" font-weight="normal" text-decoration="none" x="749" y="1033.5">#transformImpl()</text></g></g><g transform="translate(-278,-14) scale(1,1)"><g><path fill="none" stroke="none"/><text fill="#000000" stroke="none" font-family="Arial" font-size="13px" font-style="normal" font-weight="normal" text-decoration="none" x="749" y="1048.5">#predict()</text></g></g><g transform="translate(-278,-14) scale(1,1)"><path fill="none" stroke="#000000" d="M 748 660 L 991 739" stroke-miterlimit="10"/></g><g transform="translate(-278,-14) scale(1,1)"><path fill="none" stroke="#000000" d="M 980.0337664867733 739.861233146937 L 991 739 L 982.6367181203404 731.8546857171041" stroke-miterlimit="10"/></g><g transform="translate(-278,-14) scale(1,1)"><path fill="none" stroke="#000000" d="M 708 674 L 811 967" stroke-miterlimit="10"/></g><g transform="translate(-278,-14) scale(1,1)"><path fill="none" stroke="#000000" d="M 803.6583582337967 958.8085229551235 L 811 967 L 811.6009242884414 956.0164263557091" stroke-miterlimit="10"/></g><g transform="translate(-278,-14) scale(1,1)"><rect fill="#C0C0C0" stroke="none" x="503" y="807" width="198.19189453125" height="87" opacity="0.2"/></g><g transform="translate(-278,-14) scale(1,1)"><rect fill="#ffffff" stroke="none" x="496" y="800" width="198.19189453125" height="87"/></g><g transform="translate(-278,-14) scale(1,1)"><path fill="none" stroke="#000000" d="M 496 800 L 694.19189453125 800 L 694.19189453125 887 L 496 887 L 496 800 Z Z" stroke-miterlimit="10"/></g><g transform="translate(-278,-14) scale(1,1)"><path fill="none" stroke="#000000" d="M 496 825 L 694.19189453125 825" stroke-miterlimit="10"/></g><g transform="translate(-278,-14) scale(1,1)"><path fill="none" stroke="#000000" d="M 496 835 L 694.19189453125 835" stroke-miterlimit="10"/></g><g transform="translate(-278,-14) scale(1,1)"><g><path fill="none" stroke="none"/><text fill="#000000" stroke="none" font-family="Arial" font-size="13px" font-style="normal" font-weight="bold" text-decoration="none" x="535.595947265625" y="819.5">TreeEnsembleModel</text></g></g><g transform="translate(-278,-14) scale(1,1)"><g><path fill="none" stroke="none"/><text fill="#000000" stroke="none" font-family="Arial" font-size="13px" font-style="normal" font-weight="normal" text-decoration="none" x="501" y="852.5">+featureImportance()</text></g></g><g transform="translate(-278,-14) scale(1,1)"><g><path fill="none" stroke="none"/><text fill="#000000" stroke="none" font-family="Arial" font-size="13px" font-style="normal" font-weight="normal" text-decoration="none" x="501" y="867.5">+computeFeatureImportance()</text></g></g><g transform="translate(-278,-14) scale(1,1)"><g><path fill="none" stroke="none"/><text fill="#000000" stroke="none" font-family="Arial" font-size="13px" font-style="normal" font-weight="normal" text-decoration="none" x="501" y="882.5">+toDebugString()</text></g></g><g transform="translate(-278,-14) scale(1,1)"><path fill="none" stroke="#000000" d="M 766 967 L 657 888" stroke-miterlimit="10"/></g><g transform="translate(-278,-14) scale(1,1)"><path fill="#FFFFFF" stroke="none" d="M 678.3980849160938 893.1109648720803 L 657 888 L 668.5167330291213 906.7447288680297"/></g><g transform="translate(-278,-14) scale(1,1)"><path fill="none" stroke="#000000" d="M 678.3980849160938 893.1109648720803 L 657 888 L 668.5167330291213 906.7447288680297 L 678.3980849160938 893.1109648720803" stroke-miterlimit="10"/></g><g transform="translate(-278,-14) scale(1,1)"><rect fill="#C0C0C0" stroke="none" x="519" y="287" width="173.27734375" height="57" opacity="0.2"/></g><g transform="translate(-278,-14) scale(1,1)"><rect fill="#ffffff" stroke="none" x="512" y="280" width="173.27734375" height="57"/></g><g transform="translate(-278,-14) scale(1,1)"><path fill="none" stroke="#000000" d="M 512 280 L 685.27734375 280 L 685.27734375 337 L 512 337 L 512 280 Z Z" stroke-miterlimit="10"/></g><g transform="translate(-278,-14) scale(1,1)"><path fill="none" stroke="#000000" d="M 512 305 L 685.27734375 305" stroke-miterlimit="10"/></g><g transform="translate(-278,-14) scale(1,1)"><path fill="none" stroke="#000000" d="M 512 315 L 685.27734375 315" stroke-miterlimit="10"/></g><g transform="translate(-278,-14) scale(1,1)"><g><path fill="none" stroke="none"/><text fill="#000000" stroke="none" font-family="Arial" font-size="13px" font-style="normal" font-weight="bold" text-decoration="none" x="562.638671875" y="299.5">GBTParams</text></g></g><g transform="translate(-278,-14) scale(1,1)"><g><path fill="none" stroke="none"/><text fill="#000000" stroke="none" font-family="Arial" font-size="13px" font-style="normal" font-weight="normal" text-decoration="none" x="517" y="332.5">+getOldBoostingStrategy()</text></g></g><g transform="translate(-278,-14) scale(1,1)"><rect fill="#C0C0C0" stroke="none" x="687" y="151" width="152.61572265625" height="57" opacity="0.2"/></g><g transform="translate(-278,-14) scale(1,1)"><rect fill="#ffffff" stroke="none" x="680" y="144" width="152.61572265625" height="57"/></g><g transform="translate(-278,-14) scale(1,1)"><path fill="none" stroke="#000000" d="M 680 144 L 832.61572265625 144 L 832.61572265625 201 L 680 201 L 680 144 Z Z" stroke-miterlimit="10"/></g><g transform="translate(-278,-14) scale(1,1)"><path fill="none" stroke="#000000" d="M 680 169 L 832.61572265625 169" stroke-miterlimit="10"/></g><g transform="translate(-278,-14) scale(1,1)"><path fill="none" stroke="#000000" d="M 680 179 L 832.61572265625 179" stroke-miterlimit="10"/></g><g transform="translate(-278,-14) scale(1,1)"><g><path fill="none" stroke="none"/><text fill="#000000" stroke="none" font-family="Arial" font-size="13px" font-style="normal" font-weight="bold" text-decoration="none" x="691.807861328125" y="163.5">TreeEnsembleParams</text></g></g><g transform="translate(-278,-14) scale(1,1)"><g><path fill="none" stroke="none"/><text fill="#000000" stroke="none" font-family="Arial" font-size="13px" font-style="normal" font-weight="normal" text-decoration="none" x="685" y="196.5">+getOldStrategy()</text></g></g><g transform="translate(-278,-14) scale(1,1)"><path fill="none" stroke="#000000" d="M 762 423 L 641 338" stroke-miterlimit="10"/></g><g transform="translate(-278,-14) scale(1,1)"><path fill="#FFFFFF" stroke="none" d="M 662.4712363047512 342.79437290430485 L 641 338 L 652.7923231993774 356.5725903837194"/></g><g transform="translate(-278,-14) scale(1,1)"><path fill="none" stroke="#000000" d="M 662.4712363047512 342.79437290430485 L 641 338 L 652.7923231993774 356.5725903837194 L 662.4712363047512 342.79437290430485" stroke-miterlimit="10"/></g><g transform="translate(-278,-14) scale(1,1)"><path fill="none" stroke="#000000" d="M 632 279 L 721 202" stroke-miterlimit="10"/></g><g transform="translate(-278,-14) scale(1,1)"><path fill="#FFFFFF" stroke="none" d="M 711.1373981289938 221.66542865879168 L 721 202 L 700.1205293772965 208.93164529644028"/></g><g transform="translate(-278,-14) scale(1,1)"><path fill="none" stroke="#000000" d="M 711.1373981289938 221.66542865879168 L 721 202 L 700.1205293772965 208.93164529644028 L 711.1373981289938 221.66542865879168" stroke-miterlimit="10"/></g><g transform="translate(-278,-14) scale(1,1)"><rect fill="#C0C0C0" stroke="none" x="895" y="31" width="145.728515625" height="57" opacity="0.2"/></g><g transform="translate(-278,-14) scale(1,1)"><rect fill="#ffffff" stroke="none" x="888" y="24" width="145.728515625" height="57"/></g><g transform="translate(-278,-14) scale(1,1)"><path fill="none" stroke="#000000" d="M 888 24 L 1033.728515625 24 L 1033.728515625 81 L 888 81 L 888 24 Z Z" stroke-miterlimit="10"/></g><g transform="translate(-278,-14) scale(1,1)"><path fill="none" stroke="#000000" d="M 888 49 L 1033.728515625 49" stroke-miterlimit="10"/></g><g transform="translate(-278,-14) scale(1,1)"><path fill="none" stroke="#000000" d="M 888 59 L 1033.728515625 59" stroke-miterlimit="10"/></g><g transform="translate(-278,-14) scale(1,1)"><g><path fill="none" stroke="none"/><text fill="#000000" stroke="none" font-family="Arial" font-size="13px" font-style="normal" font-weight="bold" text-decoration="none" x="900.3642578125" y="43.5">DecisionTreeParams</text></g></g><g transform="translate(-278,-14) scale(1,1)"><g><path fill="none" stroke="none"/><text fill="#000000" stroke="none" font-family="Arial" font-size="13px" font-style="normal" font-weight="normal" text-decoration="none" x="893" y="76.5">+getOldStrategy()</text></g></g><g transform="translate(-278,-14) scale(1,1)"><path fill="none" stroke="#000000" d="M 805 143 L 909 82" stroke-miterlimit="10"/></g><g transform="translate(-278,-14) scale(1,1)"><path fill="#FFFFFF" stroke="none" d="M 895.7273610449151 99.54528583887887 L 909 82 L 887.2084363960912 85.02121758514629"/></g><g transform="translate(-278,-14) scale(1,1)"><path fill="none" stroke="#000000" d="M 895.7273610449151 99.54528583887887 L 909 82 L 887.2084363960912 85.02121758514629 L 895.7273610449151 99.54528583887887" stroke-miterlimit="10"/></g><g transform="translate(-278,-14) scale(1,1)"><rect fill="#C0C0C0" stroke="none" x="1007" y="143" width="145" height="190" opacity="0.2"/></g><g transform="translate(-278,-14) scale(1,1)"><rect fill="#ffffff" stroke="none" x="1000" y="136" width="145" height="190"/></g><g transform="translate(-278,-14) scale(1,1)"><path fill="none" stroke="#000000" d="M 1000 136 L 1145 136 L 1145 326 L 1000 326 L 1000 136 Z Z" stroke-miterlimit="10"/></g><g transform="translate(-278,-14) scale(1,1)"><path fill="none" stroke="#000000" d="M 1000 161 L 1145 161" stroke-miterlimit="10"/></g><g transform="translate(-278,-14) scale(1,1)"><path fill="none" stroke="#000000" d="M 1000 289 L 1145 289" stroke-miterlimit="10"/></g><g transform="translate(-278,-14) scale(1,1)"><g><path fill="none" stroke="none"/><text fill="#000000" stroke="none" font-family="Arial" font-size="13px" font-style="normal" font-weight="bold" text-decoration="none" x="1048" y="155.5">Strategy</text></g></g><g transform="translate(-278,-14) scale(1,1)"><g><path fill="none" stroke="none"/><text fill="#000000" stroke="none" font-family="Arial" font-size="13px" font-style="normal" font-weight="normal" text-decoration="none" x="1005" y="178.5">+algo</text></g></g><g transform="translate(-278,-14) scale(1,1)"><g><path fill="none" stroke="none"/><text fill="#000000" stroke="none" font-family="Arial" font-size="13px" font-style="normal" font-weight="normal" text-decoration="none" x="1005" y="193.5">+impurity</text></g></g><g transform="translate(-278,-14) scale(1,1)"><g><path fill="none" stroke="none"/><text fill="#000000" stroke="none" font-family="Arial" font-size="13px" font-style="normal" font-weight="normal" text-decoration="none" x="1005" y="208.5">+maxDepth</text></g></g><g transform="translate(-278,-14) scale(1,1)"><g><path fill="none" stroke="none"/><text fill="#000000" stroke="none" font-family="Arial" font-size="13px" font-style="normal" font-weight="normal" text-decoration="none" x="1005" y="223.5">+numClasses</text></g></g><g transform="translate(-278,-14) scale(1,1)"><g><path fill="none" stroke="none"/><text fill="#000000" stroke="none" font-family="Arial" font-size="13px" font-style="normal" font-weight="normal" text-decoration="none" x="1005" y="238.5">+maxBins</text></g></g><g transform="translate(-278,-14) scale(1,1)"><g><path fill="none" stroke="none"/><text fill="#000000" stroke="none" font-family="Arial" font-size="13px" font-style="normal" font-weight="normal" text-decoration="none" x="1005" y="253.5">+minInstancesPerNode</text></g></g><g transform="translate(-278,-14) scale(1,1)"><g><path fill="none" stroke="none"/><text fill="#000000" stroke="none" font-family="Arial" font-size="13px" font-style="normal" font-weight="normal" text-decoration="none" x="1005" y="268.5">+minInfoGain</text></g></g><g transform="translate(-278,-14) scale(1,1)"><g><path fill="none" stroke="none"/><text fill="#000000" stroke="none" font-family="Arial" font-size="13px" font-style="normal" font-weight="normal" text-decoration="none" x="1005" y="283.5">+subsamplingRate</text></g></g><g transform="translate(-278,-14) scale(1,1)"><g><path fill="none" stroke="none"/><text fill="#000000" stroke="none" font-family="Arial" font-size="13px" font-style="normal" font-weight="normal" text-decoration="none" x="1005" y="306.5">+assertVaild()</text></g></g><g transform="translate(-278,-14) scale(1,1)"><g><path fill="none" stroke="none"/><text fill="#000000" stroke="none" font-family="Arial" font-size="13px" font-style="normal" font-weight="normal" text-decoration="none" x="1005" y="321.5">+defaultStrategy()</text></g></g><g transform="translate(-278,-14) scale(1,1)"><path fill="none" stroke="#000000" d="M 979 82 L 1012 135" stroke-miterlimit="10"/></g><g transform="translate(-278,-14) scale(1,1)"><path fill="none" stroke="#000000" d="M 1003.0549856902343 128.5979129185798 L 1012 135 L 1010.201878912773 124.14796053473498" stroke-miterlimit="10"/></g><g transform="translate(-278,-14) scale(1,1)"><rect fill="#C0C0C0" stroke="none" x="1015" y="407" width="123.0419921875" height="132" opacity="0.2"/></g><g transform="translate(-278,-14) scale(1,1)"><rect fill="#ffffff" stroke="none" x="1008" y="400" width="123.0419921875" height="132"/></g><g transform="translate(-278,-14) scale(1,1)"><path fill="none" stroke="#000000" d="M 1008 400 L 1131.0419921875 400 L 1131.0419921875 532 L 1008 532 L 1008 400 Z Z" stroke-miterlimit="10"/></g><g transform="translate(-278,-14) scale(1,1)"><path fill="none" stroke="#000000" d="M 1008 425 L 1131.0419921875 425" stroke-miterlimit="10"/></g><g transform="translate(-278,-14) scale(1,1)"><path fill="none" stroke="#000000" d="M 1008 493 L 1131.0419921875 493" stroke-miterlimit="10"/></g><g transform="translate(-278,-14) scale(1,1)"><g><path fill="none" stroke="none"/><text fill="#000000" stroke="none" font-family="Arial" font-size="13px" font-style="normal" font-weight="bold" text-decoration="none" x="1019.52099609375" y="419.5">BoostingStrategy</text></g></g><g transform="translate(-278,-14) scale(1,1)"><g><path fill="none" stroke="none"/><text fill="#000000" stroke="none" font-family="Arial" font-size="13px" font-style="normal" font-weight="normal" text-decoration="none" x="1013" y="442.5">+treeStrategy</text></g></g><g transform="translate(-278,-14) scale(1,1)"><g><path fill="none" stroke="none"/><text fill="#000000" stroke="none" font-family="Arial" font-size="13px" font-style="normal" font-weight="normal" text-decoration="none" x="1013" y="457.5">+loss</text></g></g><g transform="translate(-278,-14) scale(1,1)"><g><path fill="none" stroke="none"/><text fill="#000000" stroke="none" font-family="Arial" font-size="13px" font-style="normal" font-weight="normal" text-decoration="none" x="1013" y="472.5">+numIterations</text></g></g><g transform="translate(-278,-14) scale(1,1)"><g><path fill="none" stroke="none"/><text fill="#000000" stroke="none" font-family="Arial" font-size="13px" font-style="normal" font-weight="normal" text-decoration="none" x="1013" y="487.5">+learningRate</text></g></g><g transform="translate(-278,-14) scale(1,1)"><g><path fill="none" stroke="none"/><text fill="#000000" stroke="none" font-family="Arial" font-size="13px" font-style="normal" font-weight="normal" text-decoration="none" x="1013" y="510.5">-assertValid()</text></g></g><g transform="translate(-278,-14) scale(1,1)"><g><path fill="none" stroke="none"/><text fill="#000000" stroke="none" font-family="Arial" font-size="13px" font-style="normal" font-weight="normal" text-decoration="none" x="1013" y="525.5">+defaultParams()</text></g></g><g transform="translate(-278,-14) scale(1,1)"><path fill="none" stroke="#000000" d="M 686 338 L 1007 445" stroke-miterlimit="10"/></g><g transform="translate(-278,-14) scale(1,1)"><path fill="none" stroke="#000000" d="M 996.0276737030609 445.77977922099745 L 1007 445 L 998.6900064950472 437.7927808450386" stroke-miterlimit="10"/></g><g transform="translate(-278,-14) scale(1,1)"><path fill="none" stroke="#000000" d="M 1070 727 L 1069 533" stroke-miterlimit="10"/></g><g transform="translate(-278,-14) scale(1,1)"><path fill="none" stroke="#000000" d="M 1073.2618460590636 543.1408415907578 L 1069 533 L 1064.8429223929736 543.1842381045005" stroke-miterlimit="10"/></g><g transform="translate(-278,-14) scale(1,1)"><rect fill="#C0C0C0" stroke="none" x="1263" y="743" width="164.20654296875" height="57" opacity="0.2"/></g><g transform="translate(-278,-14) scale(1,1)"><rect fill="#ffffff" stroke="none" x="1256" y="736" width="164.20654296875" height="57"/></g><g transform="translate(-278,-14) scale(1,1)"><path fill="none" stroke="#000000" d="M 1256 736 L 1420.20654296875 736 L 1420.20654296875 793 L 1256 793 L 1256 736 Z Z" stroke-miterlimit="10"/></g><g transform="translate(-278,-14) scale(1,1)"><path fill="none" stroke="#000000" d="M 1256 761 L 1420.20654296875 761" stroke-miterlimit="10"/></g><g transform="translate(-278,-14) scale(1,1)"><path fill="none" stroke="#000000" d="M 1256 771 L 1420.20654296875 771" stroke-miterlimit="10"/></g><g transform="translate(-278,-14) scale(1,1)"><g><path fill="none" stroke="none"/><text fill="#000000" stroke="none" font-family="Arial" font-size="13px" font-style="normal" font-weight="bold" text-decoration="none" x="1270.603271484375" y="755.5">DecisionTreeRegressor</text></g></g><g transform="translate(-278,-14) scale(1,1)"><g><path fill="none" stroke="none"/><text fill="#000000" stroke="none" font-family="Arial" font-size="13px" font-style="normal" font-weight="normal" text-decoration="none" x="1261" y="788.5">+train()</text></g></g><g transform="translate(-278,-14) scale(1,1)"><path fill="none" stroke="#000000" d="M 1151 764 L 1255 764" stroke-miterlimit="10"/></g><g transform="translate(-278,-14) scale(1,1)"><path fill="none" stroke="#000000" d="M 1244.837325142376 768.209517756016 L 1255 764 L 1244.837325142376 759.790482243984" stroke-miterlimit="10"/></g><g transform="translate(-278,-14) scale(1,1)"><rect fill="#C0C0C0" stroke="none" x="439" y="631" width="103.453125" height="57" opacity="0.2"/></g><g transform="translate(-278,-14) scale(1,1)"><rect fill="#ffffff" stroke="none" x="432" y="624" width="103.453125" height="57"/></g><g transform="translate(-278,-14) scale(1,1)"><path fill="none" stroke="#000000" d="M 432 624 L 535.453125 624 L 535.453125 681 L 432 681 L 432 624 Z Z" stroke-miterlimit="10"/></g><g transform="translate(-278,-14) scale(1,1)"><path fill="none" stroke="#000000" d="M 432 649 L 535.453125 649" stroke-miterlimit="10"/></g><g transform="translate(-278,-14) scale(1,1)"><path fill="none" stroke="#000000" d="M 432 659 L 535.453125 659" stroke-miterlimit="10"/></g><g transform="translate(-278,-14) scale(1,1)"><g><path fill="none" stroke="none"/><text fill="#000000" stroke="none" font-family="Arial" font-size="13px" font-style="normal" font-weight="bold" text-decoration="none" x="440.7265625" y="643.5">GBTRegressor</text></g></g><g transform="translate(-278,-14) scale(1,1)"><g><path fill="none" stroke="none"/><text fill="#000000" stroke="none" font-family="Arial" font-size="13px" font-style="normal" font-weight="normal" text-decoration="none" x="437" y="676.5">#train()</text></g></g><g transform="translate(-278,-14) scale(1,1)"><path fill="none" stroke="#000000" d="M 500 623 L 557 525" stroke-miterlimit="10"/></g><g transform="translate(-278,-14) scale(1,1)"><path fill="#FFFFFF" stroke="none" d="M 554.0585137171984 546.8024690906349 L 557 525 L 539.5033813620657 538.3367288432619"/></g><g transform="translate(-278,-14) scale(1,1)"><path fill="none" stroke="#000000" d="M 554.0585137171984 546.8024690906349 L 557 525 L 539.5033813620657 538.3367288432619 L 554.0585137171984 546.8024690906349" stroke-miterlimit="10"/></g><g transform="translate(-278,-14) scale(1,1)"><rect fill="#C0C0C0" stroke="none" x="295" y="439" width="182.99560546875" height="100" opacity="0.2"/></g><g transform="translate(-278,-14) scale(1,1)"><rect fill="#ffffff" stroke="none" x="288" y="432" width="182.99560546875" height="100"/></g><g transform="translate(-278,-14) scale(1,1)"><path fill="none" stroke="#000000" d="M 288 432 L 470.99560546875 432 L 470.99560546875 532 L 288 532 L 288 432 Z Z" stroke-miterlimit="10"/></g><g transform="translate(-278,-14) scale(1,1)"><path fill="none" stroke="#000000" d="M 288 457 L 470.99560546875 457" stroke-miterlimit="10"/></g><g transform="translate(-278,-14) scale(1,1)"><path fill="none" stroke="#000000" d="M 288 495 L 470.99560546875 495" stroke-miterlimit="10"/></g><g transform="translate(-278,-14) scale(1,1)"><g><path fill="none" stroke="none"/><text fill="#000000" stroke="none" font-family="Arial" font-size="13px" font-style="normal" font-weight="bold" text-decoration="none" x="313.997802734375" y="451.5">GBTRegressorParams</text></g></g><g transform="translate(-278,-14) scale(1,1)"><g><path fill="none" stroke="none"/><text fill="#000000" stroke="none" font-family="Arial" font-size="13px" font-style="normal" font-weight="normal" text-decoration="none" x="293" y="474.5">+supportedLossTypes: L1 L2</text></g></g><g transform="translate(-278,-14) scale(1,1)"><g><path fill="none" stroke="none"/><text fill="#000000" stroke="none" font-family="Arial" font-size="13px" font-style="normal" font-weight="normal" text-decoration="none" x="293" y="489.5">+lossType</text></g></g><g transform="translate(-278,-14) scale(1,1)"><g><path fill="none" stroke="none"/><text fill="#000000" stroke="none" font-family="Arial" font-size="13px" font-style="normal" font-weight="normal" text-decoration="none" x="293" y="512.5">+getLossType()</text></g></g><g transform="translate(-278,-14) scale(1,1)"><g><path fill="none" stroke="none"/><text fill="#000000" stroke="none" font-family="Arial" font-size="13px" font-style="normal" font-weight="normal" text-decoration="none" x="293" y="527.5">+getOldLossType()</text></g></g><g transform="translate(-278,-14) scale(1,1)"><path fill="none" stroke="#000000" d="M 465 623 L 410 533" stroke-miterlimit="10"/></g><g transform="translate(-278,-14) scale(1,1)"><path fill="#FFFFFF" stroke="none" d="M 427.7824638604592 545.953145527302 L 410 533 L 413.414843741884 554.7333578219868"/></g><g transform="translate(-278,-14) scale(1,1)"><path fill="none" stroke="#000000" d="M 427.7824638604592 545.953145527302 L 410 533 L 413.414843741884 554.7333578219868 L 427.7824638604592 545.953145527302" stroke-miterlimit="10"/></g><g transform="translate(-278,-14) scale(1,1)"><path fill="none" stroke="#000000" d="M 536 662 L 991 749" stroke-miterlimit="10"/></g><g transform="translate(-278,-14) scale(1,1)"><path fill="none" stroke="#000000" d="M 980.2275846567467 751.2259981294781 L 991 749 L 981.8087336887651 742.9567704332901" stroke-miterlimit="10"/></g><g transform="translate(-278,-14) scale(1,1)"><rect fill="#C0C0C0" stroke="none" x="335" y="975" width="150.8701171875" height="85" opacity="0.2"/></g><g transform="translate(-278,-14) scale(1,1)"><rect fill="#ffffff" stroke="none" x="328" y="968" width="150.8701171875" height="85"/></g><g transform="translate(-278,-14) scale(1,1)"><path fill="none" stroke="#000000" d="M 328 968 L 478.8701171875 968 L 478.8701171875 1053 L 328 1053 L 328 968 Z Z" stroke-miterlimit="10"/></g><g transform="translate(-278,-14) scale(1,1)"><path fill="none" stroke="#000000" d="M 328 993 L 478.8701171875 993" stroke-miterlimit="10"/></g><g transform="translate(-278,-14) scale(1,1)"><path fill="none" stroke="#000000" d="M 328 1016 L 478.8701171875 1016" stroke-miterlimit="10"/></g><g transform="translate(-278,-14) scale(1,1)"><g><path fill="none" stroke="none"/><text fill="#000000" stroke="none" font-family="Arial" font-size="13px" font-style="normal" font-weight="bold" text-decoration="none" x="339.93505859375" y="987.5">GBTRegressionModel</text></g></g><g transform="translate(-278,-14) scale(1,1)"><g><path fill="none" stroke="none"/><text fill="#000000" stroke="none" font-family="Arial" font-size="13px" font-style="normal" font-weight="normal" text-decoration="none" x="333" y="1010.5">+featureImportances</text></g></g><g transform="translate(-278,-14) scale(1,1)"><g><path fill="none" stroke="none"/><text fill="#000000" stroke="none" font-family="Arial" font-size="13px" font-style="normal" font-weight="normal" text-decoration="none" x="333" y="1033.5">#transformImpl()</text></g></g><g transform="translate(-278,-14) scale(1,1)"><g><path fill="none" stroke="none"/><text fill="#000000" stroke="none" font-family="Arial" font-size="13px" font-style="normal" font-weight="normal" text-decoration="none" x="333" y="1048.5">+predict()</text></g></g><g transform="translate(-278,-14) scale(1,1)"><path fill="none" stroke="#000000" d="M 452 967 L 543 888" stroke-miterlimit="10"/></g><g transform="translate(-278,-14) scale(1,1)"><path fill="#FFFFFF" stroke="none" d="M 533.1706917332582 907.6820908187459 L 543 888 L 522.1322895843491 894.9669693560785"/></g><g transform="translate(-278,-14) scale(1,1)"><path fill="none" stroke="#000000" d="M 533.1706917332582 907.6820908187459 L 543 888 L 522.1322895843491 894.9669693560785 L 533.1706917332582 907.6820908187459" stroke-miterlimit="10"/></g><g transform="translate(-278,-14) scale(1,1)"><path fill="none" stroke="#000000" d="M 476 682 L 413 967" stroke-miterlimit="10"/></g><g transform="translate(-278,-14) scale(1,1)"><path fill="none" stroke="#000000" d="M 411.08324027326813 956.1682858166411 L 413 967 L 419.3038247502502 957.985467648395" stroke-miterlimit="10"/></g><g transform="translate(-278,-14) scale(1,1)"><path fill="none" stroke="#000000" d="M 912 970 L 1276 794" stroke-miterlimit="10"/></g><g transform="translate(-278,-14) scale(1,1)"><path fill="none" stroke="#000000" d="M 1268.6831158151253 802.2135988351714 L 1276 794 L 1265.0182901414228 794.6340730100142" stroke-miterlimit="10"/></g><g transform="translate(-278,-14) scale(1,1)"><path fill="none" stroke="#000000" d="M 480 990 L 1255 786" stroke-miterlimit="10"/></g><g transform="translate(-278,-14) scale(1,1)"><path fill="none" stroke="#000000" d="M 1246.2436528112507 792.6578062385506 L 1255 786 L 1244.1005475853065 784.516107463517" stroke-miterlimit="10"/></g><g transform="translate(-278,-14) scale(1,1)"><path fill="none" stroke="#000000" d="M 443 431 L 560 338" stroke-miterlimit="10"/></g><g transform="translate(-278,-14) scale(1,1)"><path fill="#FFFFFF" stroke="none" d="M 549.3275389722255 357.23794624201435 L 560 338 L 538.8501481914809 344.0567126791421"/></g><g transform="translate(-278,-14) scale(1,1)"><path fill="none" stroke="#000000" d="M 549.3275389722255 357.23794624201435 L 560 338 L 538.8501481914809 344.0567126791421 L 549.3275389722255 357.23794624201435" stroke-miterlimit="10"/></g><g transform="translate(-278,-14) scale(1,1)"><rect fill="#C0C0C0" stroke="none" x="1247" y="207" width="196" height="57" opacity="0.2"/></g><g transform="translate(-278,-14) scale(1,1)"><rect fill="#ffffff" stroke="none" x="1240" y="200" width="196" height="57"/></g><g transform="translate(-278,-14) scale(1,1)"><path fill="none" stroke="#000000" d="M 1240 200 L 1436 200 L 1436 257 L 1240 257 L 1240 200 Z Z" stroke-miterlimit="10"/></g><g transform="translate(-278,-14) scale(1,1)"><path fill="none" stroke="#000000" d="M 1240 225 L 1436 225" stroke-miterlimit="10"/></g><g transform="translate(-278,-14) scale(1,1)"><path fill="none" stroke="#000000" d="M 1240 248 L 1436 248" stroke-miterlimit="10"/></g><g transform="translate(-278,-14) scale(1,1)"><g><path fill="none" stroke="none"/><text fill="#000000" stroke="none" font-family="Arial" font-size="13px" font-style="normal" font-weight="bold" text-decoration="none" x="1325" y="219.5">Algo</text></g></g><g transform="translate(-278,-14) scale(1,1)"><g><path fill="none" stroke="none"/><text fill="#000000" stroke="none" font-family="Arial" font-size="13px" font-style="normal" font-weight="normal" text-decoration="none" x="1245" y="242.5">+algo: Classification Regression</text></g></g><g transform="translate(-278,-14) scale(1,1)"><path fill="none" stroke="#000000" d="M 1071 327 L 1070 399" stroke-miterlimit="10"/></g><g transform="translate(-278,-14) scale(1,1)"><path fill="#000000" stroke="none" d="M 1065.9320228458832 388.7798453106822 L 1070 399 L 1074.3502464542041 388.89676508302 L 1070.3055260887966 377.0021216066398"/></g><g transform="translate(-278,-14) scale(1,1)"><path fill="none" stroke="#000000" d="M 1065.9320228458832 388.7798453106822 L 1070 399 L 1074.3502464542041 388.89676508302 L 1070.3055260887966 377.0021216066398 L 1065.9320228458832 388.7798453106822" stroke-miterlimit="10"/></g><g transform="translate(-278,-14) scale(1,1)"><path fill="none" stroke="#000000" d="M 1239 229 L 1146 230" stroke-miterlimit="10"/></g><g transform="translate(-278,-14) scale(1,1)"><path fill="#000000" stroke="none" d="M 1156.1168263874777 225.68145581872344 L 1146 230 L 1156.2073484181067 234.100004667238 L 1167.9987282869436 229.763454534549"/></g><g transform="translate(-278,-14) scale(1,1)"><path fill="none" stroke="#000000" d="M 1156.1168263874777 225.68145581872344 L 1146 230 L 1156.2073484181067 234.100004667238 L 1167.9987282869436 229.763454534549 L 1156.1168263874777 225.68145581872344" stroke-miterlimit="10"/></g><g transform="translate(-278,-14) scale(1,1)"><rect fill="#C0C0C0" stroke="none" x="1271" y="463" width="103" height="72" opacity="0.2"/></g><g transform="translate(-278,-14) scale(1,1)"><rect fill="#ffffff" stroke="none" x="1264" y="456" width="103" height="72"/></g><g transform="translate(-278,-14) scale(1,1)"><path fill="none" stroke="#000000" d="M 1264 456 L 1367 456 L 1367 528 L 1264 528 L 1264 456 Z Z" stroke-miterlimit="10"/></g><g transform="translate(-278,-14) scale(1,1)"><path fill="none" stroke="#000000" d="M 1264 481 L 1367 481" stroke-miterlimit="10"/></g><g transform="translate(-278,-14) scale(1,1)"><path fill="none" stroke="#000000" d="M 1264 491 L 1367 491" stroke-miterlimit="10"/></g><g transform="translate(-278,-14) scale(1,1)"><g><path fill="none" stroke="none"/><text fill="#000000" stroke="none" font-family="Arial" font-size="13px" font-style="normal" font-weight="bold" text-decoration="none" x="1276" y="475.5">AbsoluteError</text></g></g><g transform="translate(-278,-14) scale(1,1)"><g><path fill="none" stroke="none"/><text fill="#000000" stroke="none" font-family="Arial" font-size="13px" font-style="normal" font-weight="normal" text-decoration="none" x="1269" y="508.5">+gradient()</text></g></g><g transform="translate(-278,-14) scale(1,1)"><g><path fill="none" stroke="none"/><text fill="#000000" stroke="none" font-family="Arial" font-size="13px" font-style="normal" font-weight="normal" text-decoration="none" x="1269" y="523.5">+computeError()</text></g></g><g transform="translate(-278,-14) scale(1,1)"><rect fill="#C0C0C0" stroke="none" x="1415" y="463" width="107" height="72" opacity="0.2"/></g><g transform="translate(-278,-14) scale(1,1)"><rect fill="#ffffff" stroke="none" x="1408" y="456" width="107" height="72"/></g><g transform="translate(-278,-14) scale(1,1)"><path fill="none" stroke="#000000" d="M 1408 456 L 1515 456 L 1515 528 L 1408 528 L 1408 456 Z Z" stroke-miterlimit="10"/></g><g transform="translate(-278,-14) scale(1,1)"><path fill="none" stroke="#000000" d="M 1408 481 L 1515 481" stroke-miterlimit="10"/></g><g transform="translate(-278,-14) scale(1,1)"><path fill="none" stroke="#000000" d="M 1408 491 L 1515 491" stroke-miterlimit="10"/></g><g transform="translate(-278,-14) scale(1,1)"><g><path fill="none" stroke="none"/><text fill="#000000" stroke="none" font-family="Arial" font-size="13px" font-style="normal" font-weight="bold" text-decoration="none" x="1423.5" y="475.5">SquaredError</text></g></g><g transform="translate(-278,-14) scale(1,1)"><g><path fill="none" stroke="none"/><text fill="#000000" stroke="none" font-family="Arial" font-size="13px" font-style="normal" font-weight="normal" text-decoration="none" x="1413" y="508.5">+gradient()</text></g></g><g transform="translate(-278,-14) scale(1,1)"><g><path fill="none" stroke="none"/><text fill="#000000" stroke="none" font-family="Arial" font-size="13px" font-style="normal" font-weight="normal" text-decoration="none" x="1413" y="523.5">+computerError()</text></g></g><g transform="translate(-278,-14) scale(1,1)"><rect fill="#C0C0C0" stroke="none" x="1591" y="463" width="107" height="72" opacity="0.2"/></g><g transform="translate(-278,-14) scale(1,1)"><rect fill="#ffffff" stroke="none" x="1584" y="456" width="107" height="72"/></g><g transform="translate(-278,-14) scale(1,1)"><path fill="none" stroke="#000000" d="M 1584 456 L 1691 456 L 1691 528 L 1584 528 L 1584 456 Z Z" stroke-miterlimit="10"/></g><g transform="translate(-278,-14) scale(1,1)"><path fill="none" stroke="#000000" d="M 1584 481 L 1691 481" stroke-miterlimit="10"/></g><g transform="translate(-278,-14) scale(1,1)"><path fill="none" stroke="#000000" d="M 1584 491 L 1691 491" stroke-miterlimit="10"/></g><g transform="translate(-278,-14) scale(1,1)"><g><path fill="none" stroke="none"/><text fill="#000000" stroke="none" font-family="Arial" font-size="13px" font-style="normal" font-weight="bold" text-decoration="none" x="1613" y="475.5">LogLoss</text></g></g><g transform="translate(-278,-14) scale(1,1)"><g><path fill="none" stroke="none"/><text fill="#000000" stroke="none" font-family="Arial" font-size="13px" font-style="normal" font-weight="normal" text-decoration="none" x="1589" y="508.5">+gradient()</text></g></g><g transform="translate(-278,-14) scale(1,1)"><g><path fill="none" stroke="none"/><text fill="#000000" stroke="none" font-family="Arial" font-size="13px" font-style="normal" font-weight="normal" text-decoration="none" x="1589" y="523.5">+computerError()</text></g></g><g transform="translate(-278,-14) scale(1,1)"><path fill="#C0C0C0" stroke="none" d="M 1478 346.5 C 1478 340.1487248 1483.1487248 335 1489.5 335 C 1495.8512752 335 1501 340.1487248 1501 346.5 C 1501 352.8512752 1495.8512752 358 1489.5 358 C 1483.1487248 358 1478 352.8512752 1478 346.5 Z" opacity="0.2"/></g><g transform="translate(-278,-14) scale(1,1)"><path fill="#ffffff" stroke="none" d="M 1471 339.5 C 1471 333.1487248 1476.1487248 328 1482.5 328 C 1488.8512752 328 1494 333.1487248 1494 339.5 C 1494 345.8512752 1488.8512752 351 1482.5 351 C 1476.1487248 351 1471 345.8512752 1471 339.5 Z"/></g><g transform="translate(-278,-14) scale(1,1)"><path fill="none" stroke="#000000" d="M 1471 339.5 C 1471 333.1487248 1476.1487248 328 1482.5 328 C 1488.8512752 328 1494 333.1487248 1494 339.5 C 1494 345.8512752 1488.8512752 351 1482.5 351 C 1476.1487248 351 1471 345.8512752 1471 339.5 Z" stroke-miterlimit="10"/></g><g transform="translate(-278,-14) scale(1,1)"><g><path fill="none" stroke="none"/><text fill="#000000" stroke="none" font-family="Arial" font-size="13px" font-style="normal" font-weight="bold" text-decoration="none" x="1468.5" y="370.5">Loss</text></g></g><g transform="translate(-278,-14) scale(1,1)"><path fill="none" stroke="#000000" d="M 1447 362 L 1132 449" stroke-miterlimit="10"/></g><g transform="translate(-278,-14) scale(1,1)"><path fill="#000000" stroke="none" d="M 1140.675247287487 442.2368583852659 L 1132 449 L 1142.9165894833557 450.3520628875489 L 1153.206051310162 443.1430905905267"/></g><g transform="translate(-278,-14) scale(1,1)"><path fill="none" stroke="#000000" d="M 1140.675247287487 442.2368583852659 L 1132 449 L 1142.9165894833557 450.3520628875489 L 1153.206051310162 443.1430905905267 L 1140.675247287487 442.2368583852659" stroke-miterlimit="10"/></g><g transform="translate(-278,-14) scale(1,1)"><path fill="none" stroke="#000000" d="M 1359 455 L 1472.5263157894738 351" stroke-miterlimit="10"/></g><g transform="translate(-278,-14) scale(1,1)"><path fill="none" stroke="#000000" d="M 1467 455 L 1480.7368421052631 351" stroke-miterlimit="10"/></g><g transform="translate(-278,-14) scale(1,1)"><path fill="none" stroke="#000000" d="M 1596 455 L 1490.842105263158 351" stroke-miterlimit="10"/></g><g transform="translate(-278,-14) scale(1,1)"><path fill="none" stroke="#000000" d="M 1324 735 L 1120 327" stroke-miterlimit="10"/></g><g transform="translate(-278,-14) scale(1,1)"><path fill="none" stroke="#000000" d="M 1128.3099935049527 334.2072191549614 L 1120 327 L 1120.7797792209974 337.97232629693906" stroke-miterlimit="10"/></g></g></svg>