<svg version="1.1" xmlns="http://www.w3.org/2000/svg" xmlns:xlink="http://www.w3.org/1999/xlink" width="1390.2158203125" height="1359"><defs/><g><g transform="translate(-150,-62) scale(1,1)"><rect fill="#C0C0C0" stroke="none" x="215" y="119" width="88" height="72" opacity="0.2"/></g><g transform="translate(-150,-62) scale(1,1)"><rect fill="#ffffff" stroke="none" x="208" y="112" width="88" height="72"/></g><g transform="translate(-150,-62) scale(1,1)"><path fill="none" stroke="#000000" d="M 208 112 L 296 112 L 296 184 L 208 184 L 208 112 Z Z" stroke-miterlimit="10"/></g><g transform="translate(-150,-62) scale(1,1)"><path fill="none" stroke="#000000" d="M 208 137 L 296 137" stroke-miterlimit="10"/></g><g transform="translate(-150,-62) scale(1,1)"><path fill="none" stroke="#000000" d="M 208 147 L 296 147" stroke-miterlimit="10"/></g><g transform="translate(-150,-62) scale(1,1)"><g><path fill="none" stroke="none"/><text fill="#000000" stroke="none" font-family="Arial" font-size="13px" font-style="normal" font-weight="bold" text-decoration="none" x="219" y="131.5">cli_main.cc</text></g></g><g transform="translate(-150,-62) scale(1,1)"><g><path fill="none" stroke="none"/><text fill="#000000" stroke="none" font-family="Arial" font-size="13px" font-style="normal" font-weight="normal" text-decoration="none" x="213" y="164.5">+CLITrain()</text></g></g><g transform="translate(-150,-62) scale(1,1)"><g><path fill="none" stroke="none"/><text fill="#000000" stroke="none" font-family="Arial" font-size="13px" font-style="normal" font-weight="normal" text-decoration="none" x="213" y="179.5">+CLIPredict()</text></g></g><g transform="translate(-150,-62) scale(1,1)"><rect fill="#C0C0C0" stroke="none" x="631" y="79" width="116.02783203125" height="147" opacity="0.2"/></g><g transform="translate(-150,-62) scale(1,1)"><rect fill="#ffffff" stroke="none" x="624" y="72" width="116.02783203125" height="147"/></g><g transform="translate(-150,-62) scale(1,1)"><path fill="none" stroke="#000000" d="M 624 72 L 740.02783203125 72 L 740.02783203125 219 L 624 219 L 624 72 Z Z" stroke-miterlimit="10"/></g><g transform="translate(-150,-62) scale(1,1)"><path fill="none" stroke="#000000" d="M 624 97 L 740.02783203125 97" stroke-miterlimit="10"/></g><g transform="translate(-150,-62) scale(1,1)"><path fill="none" stroke="#000000" d="M 624 107 L 740.02783203125 107" stroke-miterlimit="10"/></g><g transform="translate(-150,-62) scale(1,1)"><g><path fill="none" stroke="none"/><text fill="#000000" stroke="none" font-family="Arial" font-size="13px" font-style="normal" font-weight="bold" text-decoration="none" x="648.013916015625" y="91.5">LearnerImpl</text></g></g><g transform="translate(-150,-62) scale(1,1)"><g><path fill="none" stroke="none"/><text fill="#000000" stroke="none" font-family="Arial" font-size="13px" font-style="normal" font-weight="normal" text-decoration="none" x="629" y="124.5">+Configure()</text></g></g><g transform="translate(-150,-62) scale(1,1)"><g><path fill="none" stroke="none"/><text fill="#000000" stroke="none" font-family="Arial" font-size="13px" font-style="normal" font-weight="normal" text-decoration="none" x="629" y="139.5">+InitModel()</text></g></g><g transform="translate(-150,-62) scale(1,1)"><g><path fill="none" stroke="none"/><text fill="#000000" stroke="none" font-family="Arial" font-size="13px" font-style="normal" font-weight="normal" text-decoration="none" x="629" y="154.5">+Load()</text></g></g><g transform="translate(-150,-62) scale(1,1)"><g><path fill="none" stroke="none"/><text fill="#000000" stroke="none" font-family="Arial" font-size="13px" font-style="normal" font-weight="normal" text-decoration="none" x="629" y="169.5">+UpdateOneIter()</text></g></g><g transform="translate(-150,-62) scale(1,1)"><g><path fill="none" stroke="none"/><text fill="#000000" stroke="none" font-family="Arial" font-size="13px" font-style="normal" font-weight="normal" text-decoration="none" x="629" y="184.5">+EvalOneIter()</text></g></g><g transform="translate(-150,-62) scale(1,1)"><g><path fill="none" stroke="none"/><text fill="#000000" stroke="none" font-family="Arial" font-size="13px" font-style="normal" font-weight="normal" text-decoration="none" x="629" y="199.5">+Save()</text></g></g><g transform="translate(-150,-62) scale(1,1)"><g><path fill="none" stroke="none"/><text fill="#000000" stroke="none" font-family="Arial" font-size="13px" font-style="normal" font-weight="normal" text-decoration="none" x="629" y="214.5">-PredictRaw()</text></g></g><g transform="translate(-150,-62) scale(1,1)"><rect fill="#C0C0C0" stroke="none" x="399" y="351" width="100.29833984375" height="72" opacity="0.2"/></g><g transform="translate(-150,-62) scale(1,1)"><rect fill="#ffffff" stroke="none" x="392" y="344" width="100.29833984375" height="72"/></g><g transform="translate(-150,-62) scale(1,1)"><path fill="none" stroke="#000000" d="M 392 344 L 492.29833984375 344 L 492.29833984375 416 L 392 416 L 392 344 Z Z" stroke-miterlimit="10"/></g><g transform="translate(-150,-62) scale(1,1)"><path fill="none" stroke="#000000" d="M 392 369 L 492.29833984375 369" stroke-miterlimit="10"/></g><g transform="translate(-150,-62) scale(1,1)"><path fill="none" stroke="#000000" d="M 392 379 L 492.29833984375 379" stroke-miterlimit="10"/></g><g transform="translate(-150,-62) scale(1,1)"><g><path fill="none" stroke="none"/><text fill="#000000" stroke="none" font-family="Arial" font-size="13px" font-style="normal" font-weight="bold" text-decoration="none" x="407.149169921875" y="363.5">ObjFunction</text></g></g><g transform="translate(-150,-62) scale(1,1)"><g><path fill="none" stroke="none"/><text fill="#000000" stroke="none" font-family="Arial" font-size="13px" font-style="normal" font-weight="normal" text-decoration="none" x="397" y="396.5">+Create()</text></g></g><g transform="translate(-150,-62) scale(1,1)"><g><path fill="none" stroke="none"/><text fill="#000000" stroke="none" font-family="Arial" font-size="13px" font-style="normal" font-weight="normal" text-decoration="none" x="397" y="411.5">+GetGradient()</text></g></g><g transform="translate(-150,-62) scale(1,1)"><rect fill="#C0C0C0" stroke="none" x="399" y="511" width="100.29833984375" height="57" opacity="0.2"/></g><g transform="translate(-150,-62) scale(1,1)"><rect fill="#ffffff" stroke="none" x="392" y="504" width="100.29833984375" height="57"/></g><g transform="translate(-150,-62) scale(1,1)"><path fill="none" stroke="#000000" d="M 392 504 L 492.29833984375 504 L 492.29833984375 561 L 392 561 L 392 504 Z Z" stroke-miterlimit="10"/></g><g transform="translate(-150,-62) scale(1,1)"><path fill="none" stroke="#000000" d="M 392 529 L 492.29833984375 529" stroke-miterlimit="10"/></g><g transform="translate(-150,-62) scale(1,1)"><path fill="none" stroke="#000000" d="M 392 539 L 492.29833984375 539" stroke-miterlimit="10"/></g><g transform="translate(-150,-62) scale(1,1)"><g><path fill="none" stroke="none"/><text fill="#000000" stroke="none" font-family="Arial" font-size="13px" font-style="normal" font-weight="bold" text-decoration="none" x="406.649169921875" y="523.5">RegLossObj</text></g></g><g transform="translate(-150,-62) scale(1,1)"><g><path fill="none" stroke="none"/><text fill="#000000" stroke="none" font-family="Arial" font-size="13px" font-style="normal" font-weight="normal" text-decoration="none" x="397" y="556.5">+GetGradient()</text></g></g><g transform="translate(-150,-62) scale(1,1)"><rect fill="#C0C0C0" stroke="none" x="367" y="647" width="160.099609375" height="90" opacity="0.2"/></g><g transform="translate(-150,-62) scale(1,1)"><rect fill="#ffffff" stroke="none" x="360" y="640" width="160.099609375" height="90"/></g><g transform="translate(-150,-62) scale(1,1)"><path fill="none" stroke="#000000" d="M 360 640 L 520.099609375 640 L 520.099609375 730 L 360 730 L 360 640 Z Z" stroke-miterlimit="10"/></g><g transform="translate(-150,-62) scale(1,1)"><path fill="none" stroke="#000000" d="M 360 678 L 520.099609375 678" stroke-miterlimit="10"/></g><g transform="translate(-150,-62) scale(1,1)"><g><path fill="none" stroke="none"/><text fill="#000000" stroke="none" font-family="Arial" font-size="13px" font-style="normal" font-weight="normal" text-decoration="none" x="406.0498046875" y="657.5">«dataType»</text></g></g><g transform="translate(-150,-62) scale(1,1)"><g><path fill="none" stroke="none"/><text fill="#000000" stroke="none" font-family="Arial" font-size="13px" font-style="normal" font-weight="bold" text-decoration="none" x="388.0498046875" y="672.5">LinearSquareLoss</text></g></g><g transform="translate(-150,-62) scale(1,1)"><g><path fill="none" stroke="none"/><text fill="#000000" stroke="none" font-family="Arial" font-size="13px" font-style="normal" font-weight="normal" text-decoration="none" x="365" y="695.5">+FirstOrderGradient()</text></g></g><g transform="translate(-150,-62) scale(1,1)"><g><path fill="none" stroke="none"/><text fill="#000000" stroke="none" font-family="Arial" font-size="13px" font-style="normal" font-weight="normal" text-decoration="none" x="365" y="710.5">+SecondOrderGradient()</text></g></g><g transform="translate(-150,-62) scale(1,1)"><g><path fill="none" stroke="none"/><text fill="#000000" stroke="none" font-family="Arial" font-size="13px" font-style="normal" font-weight="normal" text-decoration="none" x="365" y="725.5">+PredTransform()</text></g></g><g transform="translate(-150,-62) scale(1,1)"><rect fill="#C0C0C0" stroke="none" x="823" y="343" width="117.44970703125" height="72" opacity="0.2"/></g><g transform="translate(-150,-62) scale(1,1)"><rect fill="#ffffff" stroke="none" x="816" y="336" width="117.44970703125" height="72"/></g><g transform="translate(-150,-62) scale(1,1)"><path fill="none" stroke="#000000" d="M 816 336 L 933.44970703125 336 L 933.44970703125 408 L 816 408 L 816 336 Z Z" stroke-miterlimit="10"/></g><g transform="translate(-150,-62) scale(1,1)"><path fill="none" stroke="#000000" d="M 816 361 L 933.44970703125 361" stroke-miterlimit="10"/></g><g transform="translate(-150,-62) scale(1,1)"><path fill="none" stroke="#000000" d="M 816 371 L 933.44970703125 371" stroke-miterlimit="10"/></g><g transform="translate(-150,-62) scale(1,1)"><g><path fill="none" stroke="none"/><text fill="#000000" stroke="none" font-family="Arial" font-size="13px" font-style="normal" font-weight="bold" text-decoration="none" x="827.724853515625" y="355.5">GradientBooster</text></g></g><g transform="translate(-150,-62) scale(1,1)"><g><path fill="none" stroke="none"/><text fill="#000000" stroke="none" font-family="Arial" font-size="13px" font-style="normal" font-weight="normal" text-decoration="none" x="821" y="388.5">+Create()</text></g></g><g transform="translate(-150,-62) scale(1,1)"><g><path fill="none" stroke="none"/><text fill="#000000" stroke="none" font-family="Arial" font-size="13px" font-style="normal" font-weight="normal" text-decoration="none" x="821" y="403.5">+DoBoost()</text></g></g><g transform="translate(-150,-62) scale(1,1)"><rect fill="#C0C0C0" stroke="none" x="823" y="503" width="120.61083984375" height="115" opacity="0.2"/></g><g transform="translate(-150,-62) scale(1,1)"><rect fill="#ffffff" stroke="none" x="816" y="496" width="120.61083984375" height="115"/></g><g transform="translate(-150,-62) scale(1,1)"><path fill="none" stroke="#000000" d="M 816 496 L 936.61083984375 496 L 936.61083984375 611 L 816 611 L 816 496 Z Z" stroke-miterlimit="10"/></g><g transform="translate(-150,-62) scale(1,1)"><path fill="none" stroke="#000000" d="M 816 521 L 936.61083984375 521" stroke-miterlimit="10"/></g><g transform="translate(-150,-62) scale(1,1)"><path fill="none" stroke="#000000" d="M 816 559 L 936.61083984375 559" stroke-miterlimit="10"/></g><g transform="translate(-150,-62) scale(1,1)"><g><path fill="none" stroke="none"/><text fill="#000000" stroke="none" font-family="Arial" font-size="13px" font-style="normal" font-weight="bold" text-decoration="none" x="853.805419921875" y="515.5">GBTree</text></g></g><g transform="translate(-150,-62) scale(1,1)"><g><path fill="none" stroke="none"/><text fill="#000000" stroke="none" font-family="Arial" font-size="13px" font-style="normal" font-weight="normal" text-decoration="none" x="821" y="538.5">+trees</text></g></g><g transform="translate(-150,-62) scale(1,1)"><g><path fill="none" stroke="none"/><text fill="#000000" stroke="none" font-family="Arial" font-size="13px" font-style="normal" font-weight="normal" text-decoration="none" x="821" y="553.5">+updaters</text></g></g><g transform="translate(-150,-62) scale(1,1)"><g><path fill="none" stroke="none"/><text fill="#000000" stroke="none" font-family="Arial" font-size="13px" font-style="normal" font-weight="normal" text-decoration="none" x="821" y="576.5">+DoBoost()</text></g></g><g transform="translate(-150,-62) scale(1,1)"><g><path fill="none" stroke="none"/><text fill="#000000" stroke="none" font-family="Arial" font-size="13px" font-style="normal" font-weight="normal" text-decoration="none" x="821" y="591.5">#BoostNewTrees()</text></g></g><g transform="translate(-150,-62) scale(1,1)"><g><path fill="none" stroke="none"/><text fill="#000000" stroke="none" font-family="Arial" font-size="13px" font-style="normal" font-weight="normal" text-decoration="none" x="821" y="606.5">+CommitModel()</text></g></g><g transform="translate(-150,-62) scale(1,1)"><rect fill="#C0C0C0" stroke="none" x="407" y="103" width="92.19873046875" height="102" opacity="0.2"/></g><g transform="translate(-150,-62) scale(1,1)"><rect fill="#ffffff" stroke="none" x="400" y="96" width="92.19873046875" height="102"/></g><g transform="translate(-150,-62) scale(1,1)"><path fill="none" stroke="#000000" d="M 400 96 L 492.19873046875 96 L 492.19873046875 198 L 400 198 L 400 96 Z Z" stroke-miterlimit="10"/></g><g transform="translate(-150,-62) scale(1,1)"><path fill="none" stroke="#000000" d="M 400 121 L 492.19873046875 121" stroke-miterlimit="10"/></g><g transform="translate(-150,-62) scale(1,1)"><path fill="none" stroke="#000000" d="M 400 189 L 492.19873046875 189" stroke-miterlimit="10"/></g><g transform="translate(-150,-62) scale(1,1)"><g><path fill="none" stroke="none"/><text fill="#000000" stroke="none" font-family="Arial" font-size="13px" font-style="normal" font-weight="bold" text-decoration="none" x="424.599365234375" y="115.5">Learner</text></g></g><g transform="translate(-150,-62) scale(1,1)"><g><path fill="none" stroke="none"/><text fill="#000000" stroke="none" font-family="Arial" font-size="13px" font-style="normal" font-weight="normal" text-decoration="none" x="405" y="138.5">+base_score_</text></g></g><g transform="translate(-150,-62) scale(1,1)"><g><path fill="none" stroke="none"/><text fill="#000000" stroke="none" font-family="Arial" font-size="13px" font-style="normal" font-weight="normal" text-decoration="none" x="405" y="153.5">+obj_</text></g></g><g transform="translate(-150,-62) scale(1,1)"><g><path fill="none" stroke="none"/><text fill="#000000" stroke="none" font-family="Arial" font-size="13px" font-style="normal" font-weight="normal" text-decoration="none" x="405" y="168.5">+gbm_</text></g></g><g transform="translate(-150,-62) scale(1,1)"><g><path fill="none" stroke="none"/><text fill="#000000" stroke="none" font-family="Arial" font-size="13px" font-style="normal" font-weight="normal" text-decoration="none" x="405" y="183.5">+metrics_</text></g></g><g transform="translate(-150,-62) scale(1,1)"><path fill="none" stroke="#000000" d="M 297 148 L 399 147" stroke-miterlimit="10"/></g><g transform="translate(-150,-62) scale(1,1)"><path fill="none" stroke="#000000" d="M 388.87908130816464 151.3089447470648 L 399 147 L 388.79654571075787 142.8903138115732" stroke-miterlimit="10"/></g><g transform="translate(-150,-62) scale(1,1)"><path fill="none" stroke="#000000" d="M 623 146 L 493 147" stroke-miterlimit="10"/></g><g transform="translate(-150,-62) scale(1,1)"><path fill="#FFFFFF" stroke="none" d="M 513.25998850454 138.42486934234216 L 493 147 L 513.3895082959123 155.2624422207313"/></g><g transform="translate(-150,-62) scale(1,1)"><path fill="none" stroke="#000000" d="M 513.25998850454 138.42486934234216 L 493 147 L 513.3895082959123 155.2624422207313 L 513.25998850454 138.42486934234216" stroke-miterlimit="10"/></g><g transform="translate(-150,-62) scale(1,1)"><path fill="none" stroke="#000000" d="M 443 343 L 445 199" stroke-miterlimit="10"/></g><g transform="translate(-150,-62) scale(1,1)"><path fill="#000000" stroke="none" d="M 449.06797715411676 209.22015468931778 L 445 199 L 440.6497535457958 209.10323491698 L 444.6944739112033 220.99787839336022"/></g><g transform="translate(-150,-62) scale(1,1)"><path fill="none" stroke="#000000" d="M 449.06797715411676 209.22015468931778 L 445 199 L 440.6497535457958 209.10323491698 L 444.6944739112033 220.99787839336022 L 449.06797715411676 209.22015468931778" stroke-miterlimit="10"/></g><g transform="translate(-150,-62) scale(1,1)"><path fill="none" stroke="#000000" d="M 815 341 L 493 172" stroke-miterlimit="10"/></g><g transform="translate(-150,-62) scale(1,1)"><path fill="#000000" stroke="none" d="M 503.9548588297968 172.99552399228875 L 493 172 L 500.0423131997094 180.45019673127194 L 512.4799986320579 182.22397443732234"/></g><g transform="translate(-150,-62) scale(1,1)"><path fill="none" stroke="#000000" d="M 503.9548588297968 172.99552399228875 L 493 172 L 500.0423131997094 180.45019673127194 L 512.4799986320579 182.22397443732234 L 503.9548588297968 172.99552399228875" stroke-miterlimit="10"/></g><g transform="translate(-150,-62) scale(1,1)"><path fill="none" stroke="#000000" d="M 442 503 L 442 417" stroke-miterlimit="10"/></g><g transform="translate(-150,-62) scale(1,1)"><path fill="#FFFFFF" stroke="none" d="M 450.419035512032 437.3253497152483 L 442 417 L 433.580964487968 437.3253497152483"/></g><g transform="translate(-150,-62) scale(1,1)"><path fill="none" stroke="#000000" d="M 450.419035512032 437.3253497152483 L 442 417 L 433.580964487968 437.3253497152483 L 450.419035512032 437.3253497152483" stroke-miterlimit="10"/></g><g transform="translate(-150,-62) scale(1,1)"><path fill="none" stroke="#000000" d="M 875 495 L 874 409" stroke-miterlimit="10"/></g><g transform="translate(-150,-62) scale(1,1)"><path fill="#FFFFFF" stroke="none" d="M 882.6547917080734 429.2260866331049 L 874 409 L 865.8178588914008 429.4218649216708"/></g><g transform="translate(-150,-62) scale(1,1)"><path fill="none" stroke="#000000" d="M 882.6547917080734 429.2260866331049 L 874 409 L 865.8178588914008 429.4218649216708 L 882.6547917080734 429.2260866331049" stroke-miterlimit="10"/></g><g transform="translate(-150,-62) scale(1,1)"><path fill="none" stroke="#000000" d="M 442 562 L 441 639" stroke-miterlimit="10" stroke-dasharray="3"/></g><g transform="translate(-150,-62) scale(1,1)"><path fill="none" stroke="#000000" d="M 436.9228088544847 628.7835176130465 L 441 639 L 445.3411344685001 628.8928465171246" stroke-miterlimit="10"/></g><g transform="translate(-150,-62) scale(1,1)"><rect fill="#C0C0C0" stroke="none" x="167" y="647" width="160.099609375" height="90" opacity="0.2"/></g><g transform="translate(-150,-62) scale(1,1)"><rect fill="#ffffff" stroke="none" x="160" y="640" width="160.099609375" height="90"/></g><g transform="translate(-150,-62) scale(1,1)"><path fill="none" stroke="#000000" d="M 160 640 L 320.099609375 640 L 320.099609375 730 L 160 730 L 160 640 Z Z" stroke-miterlimit="10"/></g><g transform="translate(-150,-62) scale(1,1)"><path fill="none" stroke="#000000" d="M 160 678 L 320.099609375 678" stroke-miterlimit="10"/></g><g transform="translate(-150,-62) scale(1,1)"><g><path fill="none" stroke="none"/><text fill="#000000" stroke="none" font-family="Arial" font-size="13px" font-style="normal" font-weight="normal" text-decoration="none" x="206.0498046875" y="657.5">«dataType»</text></g></g><g transform="translate(-150,-62) scale(1,1)"><g><path fill="none" stroke="none"/><text fill="#000000" stroke="none" font-family="Arial" font-size="13px" font-style="normal" font-weight="bold" text-decoration="none" x="185.0498046875" y="672.5">LogisticRegression</text></g></g><g transform="translate(-150,-62) scale(1,1)"><g><path fill="none" stroke="none"/><text fill="#000000" stroke="none" font-family="Arial" font-size="13px" font-style="normal" font-weight="normal" text-decoration="none" x="165" y="695.5">+FirstOrderGradient()</text></g></g><g transform="translate(-150,-62) scale(1,1)"><g><path fill="none" stroke="none"/><text fill="#000000" stroke="none" font-family="Arial" font-size="13px" font-style="normal" font-weight="normal" text-decoration="none" x="165" y="710.5">+SecondOrderGradient()</text></g></g><g transform="translate(-150,-62) scale(1,1)"><g><path fill="none" stroke="none"/><text fill="#000000" stroke="none" font-family="Arial" font-size="13px" font-style="normal" font-weight="normal" text-decoration="none" x="165" y="725.5">+PredTransform()</text></g></g><g transform="translate(-150,-62) scale(1,1)"><path fill="none" stroke="#000000" d="M 402 562 L 301 639" stroke-miterlimit="10" stroke-dasharray="3"/></g><g transform="translate(-150,-62) scale(1,1)"><path fill="none" stroke="#000000" d="M 306.5297285288148 629.4909462932628 L 301 639 L 311.6340248995466 636.1861921821447" stroke-miterlimit="10"/></g><g transform="translate(-150,-62) scale(1,1)"><rect fill="#C0C0C0" stroke="none" x="695" y="831" width="89.513671875" height="57" opacity="0.2"/></g><g transform="translate(-150,-62) scale(1,1)"><rect fill="#ffffff" stroke="none" x="688" y="824" width="89.513671875" height="57"/></g><g transform="translate(-150,-62) scale(1,1)"><path fill="none" stroke="#000000" d="M 688 824 L 777.513671875 824 L 777.513671875 881 L 688 881 L 688 824 Z Z" stroke-miterlimit="10"/></g><g transform="translate(-150,-62) scale(1,1)"><path fill="none" stroke="#000000" d="M 688 849 L 777.513671875 849" stroke-miterlimit="10"/></g><g transform="translate(-150,-62) scale(1,1)"><path fill="none" stroke="#000000" d="M 688 859 L 777.513671875 859" stroke-miterlimit="10"/></g><g transform="translate(-150,-62) scale(1,1)"><g><path fill="none" stroke="none"/><text fill="#000000" stroke="none" font-family="Arial" font-size="13px" font-style="normal" font-weight="bold" text-decoration="none" x="708.2568359375" y="843.5">RegTree</text></g></g><g transform="translate(-150,-62) scale(1,1)"><g><path fill="none" stroke="none"/><text fill="#000000" stroke="none" font-family="Arial" font-size="13px" font-style="normal" font-weight="normal" text-decoration="none" x="693" y="876.5">+AddChilds()</text></g></g><g transform="translate(-150,-62) scale(1,1)"><rect fill="#C0C0C0" stroke="none" x="1167" y="711" width="92.35107421875" height="72" opacity="0.2"/></g><g transform="translate(-150,-62) scale(1,1)"><rect fill="#ffffff" stroke="none" x="1160" y="704" width="92.35107421875" height="72"/></g><g transform="translate(-150,-62) scale(1,1)"><path fill="none" stroke="#000000" d="M 1160 704 L 1252.35107421875 704 L 1252.35107421875 776 L 1160 776 L 1160 704 Z Z" stroke-miterlimit="10"/></g><g transform="translate(-150,-62) scale(1,1)"><path fill="none" stroke="#000000" d="M 1160 729 L 1252.35107421875 729" stroke-miterlimit="10"/></g><g transform="translate(-150,-62) scale(1,1)"><path fill="none" stroke="#000000" d="M 1160 739 L 1252.35107421875 739" stroke-miterlimit="10"/></g><g transform="translate(-150,-62) scale(1,1)"><g><path fill="none" stroke="none"/><text fill="#000000" stroke="none" font-family="Arial" font-size="13px" font-style="normal" font-weight="bold" text-decoration="none" x="1170.675537109375" y="723.5">TreeUpdater</text></g></g><g transform="translate(-150,-62) scale(1,1)"><g><path fill="none" stroke="none"/><text fill="#000000" stroke="none" font-family="Arial" font-size="13px" font-style="normal" font-weight="normal" text-decoration="none" x="1165" y="756.5">+Update()</text></g></g><g transform="translate(-150,-62) scale(1,1)"><g><path fill="none" stroke="none"/><text fill="#000000" stroke="none" font-family="Arial" font-size="13px" font-style="normal" font-weight="normal" text-decoration="none" x="1165" y="771.5">+Create()</text></g></g><g transform="translate(-150,-62) scale(1,1)"><rect fill="#C0C0C0" stroke="none" x="703" y="727" width="79.6748046875" height="44" opacity="0.2"/></g><g transform="translate(-150,-62) scale(1,1)"><rect fill="#ffffff" stroke="none" x="696" y="720" width="79.6748046875" height="44"/></g><g transform="translate(-150,-62) scale(1,1)"><path fill="none" stroke="#000000" d="M 696 720 L 775.6748046875 720 L 775.6748046875 764 L 696 764 L 696 720 Z Z" stroke-miterlimit="10"/></g><g transform="translate(-150,-62) scale(1,1)"><path fill="none" stroke="#000000" d="M 696 745 L 775.6748046875 745" stroke-miterlimit="10"/></g><g transform="translate(-150,-62) scale(1,1)"><path fill="none" stroke="#000000" d="M 696 755 L 775.6748046875 755" stroke-miterlimit="10"/></g><g transform="translate(-150,-62) scale(1,1)"><g><path fill="none" stroke="none"/><text fill="#000000" stroke="none" font-family="Arial" font-size="13px" font-style="normal" font-weight="bold" text-decoration="none" x="705.33740234375" y="739.5">TreeModel</text></g></g><g transform="translate(-150,-62) scale(1,1)"><path fill="none" stroke="#000000" d="M 733 823 L 734 765" stroke-miterlimit="10"/></g><g transform="translate(-150,-62) scale(1,1)"><path fill="#FFFFFF" stroke="none" d="M 742.0673994586763 785.4674635940595 L 734 765 L 725.2318305627224 785.1771951648188"/></g><g transform="translate(-150,-62) scale(1,1)"><path fill="none" stroke="#000000" d="M 742.0673994586763 785.4674635940595 L 734 765 L 725.2318305627224 785.1771951648188 L 742.0673994586763 785.4674635940595" stroke-miterlimit="10"/></g><g transform="translate(-150,-62) scale(1,1)"><rect fill="#C0C0C0" stroke="none" x="983" y="863" width="88" height="57" opacity="0.2"/></g><g transform="translate(-150,-62) scale(1,1)"><rect fill="#ffffff" stroke="none" x="976" y="856" width="88" height="57"/></g><g transform="translate(-150,-62) scale(1,1)"><path fill="none" stroke="#000000" d="M 976 856 L 1064 856 L 1064 913 L 976 913 L 976 856 Z Z" stroke-miterlimit="10"/></g><g transform="translate(-150,-62) scale(1,1)"><path fill="none" stroke="#000000" d="M 976 881 L 1064 881" stroke-miterlimit="10"/></g><g transform="translate(-150,-62) scale(1,1)"><path fill="none" stroke="#000000" d="M 976 891 L 1064 891" stroke-miterlimit="10"/></g><g transform="translate(-150,-62) scale(1,1)"><g><path fill="none" stroke="none"/><text fill="#000000" stroke="none" font-family="Arial" font-size="13px" font-style="normal" font-weight="bold" text-decoration="none" x="992.5" y="875.5">ColMaker</text></g></g><g transform="translate(-150,-62) scale(1,1)"><g><path fill="none" stroke="none"/><text fill="#000000" stroke="none" font-family="Arial" font-size="13px" font-style="normal" font-weight="normal" text-decoration="none" x="981" y="908.5">+Update()</text></g></g><g transform="translate(-150,-62) scale(1,1)"><rect fill="#C0C0C0" stroke="none" x="943" y="983" width="156.798828125" height="120" opacity="0.2"/></g><g transform="translate(-150,-62) scale(1,1)"><rect fill="#ffffff" stroke="none" x="936" y="976" width="156.798828125" height="120"/></g><g transform="translate(-150,-62) scale(1,1)"><path fill="none" stroke="#000000" d="M 936 976 L 1092.798828125 976 L 1092.798828125 1096 L 936 1096 L 936 976 Z Z" stroke-miterlimit="10"/></g><g transform="translate(-150,-62) scale(1,1)"><path fill="none" stroke="#000000" d="M 936 1014 L 1092.798828125 1014" stroke-miterlimit="10"/></g><g transform="translate(-150,-62) scale(1,1)"><g><path fill="none" stroke="none"/><text fill="#000000" stroke="none" font-family="Arial" font-size="13px" font-style="normal" font-weight="normal" text-decoration="none" x="980.3994140625" y="993.5">«dataType»</text></g></g><g transform="translate(-150,-62) scale(1,1)"><g><path fill="none" stroke="none"/><text fill="#000000" stroke="none" font-family="Arial" font-size="13px" font-style="normal" font-weight="bold" text-decoration="none" x="994.3994140625" y="1008.5">Builder</text></g></g><g transform="translate(-150,-62) scale(1,1)"><g><path fill="none" stroke="none"/><text fill="#000000" stroke="none" font-family="Arial" font-size="13px" font-style="normal" font-weight="normal" text-decoration="none" x="941" y="1031.5">+Update()</text></g></g><g transform="translate(-150,-62) scale(1,1)"><g><path fill="none" stroke="none"/><text fill="#000000" stroke="none" font-family="Arial" font-size="13px" font-style="normal" font-weight="normal" text-decoration="none" x="941" y="1046.5">+FindSplit()</text></g></g><g transform="translate(-150,-62) scale(1,1)"><g><path fill="none" stroke="none"/><text fill="#000000" stroke="none" font-family="Arial" font-size="13px" font-style="normal" font-weight="normal" text-decoration="none" x="941" y="1061.5">+UpdateQueueExpand()</text></g></g><g transform="translate(-150,-62) scale(1,1)"><g><path fill="none" stroke="none"/><text fill="#000000" stroke="none" font-family="Arial" font-size="13px" font-style="normal" font-weight="normal" text-decoration="none" x="941" y="1076.5">+UpdateSolution()</text></g></g><g transform="translate(-150,-62) scale(1,1)"><g><path fill="none" stroke="none"/><text fill="#000000" stroke="none" font-family="Arial" font-size="13px" font-style="normal" font-weight="normal" text-decoration="none" x="941" y="1091.5">+EnumerateSplit()</text></g></g><g transform="translate(-150,-62) scale(1,1)"><rect fill="#C0C0C0" stroke="none" x="1087" y="1343" width="105.5478515625" height="75" opacity="0.2"/></g><g transform="translate(-150,-62) scale(1,1)"><rect fill="#ffffff" stroke="none" x="1080" y="1336" width="105.5478515625" height="75"/></g><g transform="translate(-150,-62) scale(1,1)"><path fill="none" stroke="#000000" d="M 1080 1336 L 1185.5478515625 1336 L 1185.5478515625 1411 L 1080 1411 L 1080 1336 Z Z" stroke-miterlimit="10"/></g><g transform="translate(-150,-62) scale(1,1)"><path fill="none" stroke="#000000" d="M 1080 1374 L 1185.5478515625 1374" stroke-miterlimit="10"/></g><g transform="translate(-150,-62) scale(1,1)"><g><path fill="none" stroke="none"/><text fill="#000000" stroke="none" font-family="Arial" font-size="13px" font-style="normal" font-weight="normal" text-decoration="none" x="1098.77392578125" y="1353.5">«dataType»</text></g></g><g transform="translate(-150,-62) scale(1,1)"><g><path fill="none" stroke="none"/><text fill="#000000" stroke="none" font-family="Arial" font-size="13px" font-style="normal" font-weight="bold" text-decoration="none" x="1104.27392578125" y="1368.5">SplitEntry</text></g></g><g transform="translate(-150,-62) scale(1,1)"><g><path fill="none" stroke="none"/><text fill="#000000" stroke="none" font-family="Arial" font-size="13px" font-style="normal" font-weight="normal" text-decoration="none" x="1085" y="1391.5">+Update()</text></g></g><g transform="translate(-150,-62) scale(1,1)"><g><path fill="none" stroke="none"/><text fill="#000000" stroke="none" font-family="Arial" font-size="13px" font-style="normal" font-weight="normal" text-decoration="none" x="1085" y="1406.5">+NeedReplace()</text></g></g><g transform="translate(-150,-62) scale(1,1)"><rect fill="#C0C0C0" stroke="none" x="863" y="1351" width="88" height="60" opacity="0.2"/></g><g transform="translate(-150,-62) scale(1,1)"><rect fill="#ffffff" stroke="none" x="856" y="1344" width="88" height="60"/></g><g transform="translate(-150,-62) scale(1,1)"><path fill="none" stroke="#000000" d="M 856 1344 L 944 1344 L 944 1404 L 856 1404 L 856 1344 Z Z" stroke-miterlimit="10"/></g><g transform="translate(-150,-62) scale(1,1)"><path fill="none" stroke="#000000" d="M 856 1382 L 944 1382" stroke-miterlimit="10"/></g><g transform="translate(-150,-62) scale(1,1)"><g><path fill="none" stroke="none"/><text fill="#000000" stroke="none" font-family="Arial" font-size="13px" font-style="normal" font-weight="normal" text-decoration="none" x="866" y="1361.5">«dataType»</text></g></g><g transform="translate(-150,-62) scale(1,1)"><g><path fill="none" stroke="none"/><text fill="#000000" stroke="none" font-family="Arial" font-size="13px" font-style="normal" font-weight="bold" text-decoration="none" x="870.5" y="1376.5">GradStats</text></g></g><g transform="translate(-150,-62) scale(1,1)"><g><path fill="none" stroke="none"/><text fill="#000000" stroke="none" font-family="Arial" font-size="13px" font-style="normal" font-weight="normal" text-decoration="none" x="861" y="1399.5">+CalcGain()</text></g></g><g transform="translate(-150,-62) scale(1,1)"><rect fill="#C0C0C0" stroke="none" x="975" y="1175" width="91.392578125" height="75" opacity="0.2"/></g><g transform="translate(-150,-62) scale(1,1)"><rect fill="#ffffff" stroke="none" x="968" y="1168" width="91.392578125" height="75"/></g><g transform="translate(-150,-62) scale(1,1)"><path fill="none" stroke="#000000" d="M 968 1168 L 1059.392578125 1168 L 1059.392578125 1243 L 968 1243 L 968 1168 Z Z" stroke-miterlimit="10"/></g><g transform="translate(-150,-62) scale(1,1)"><path fill="none" stroke="#000000" d="M 968 1206 L 1059.392578125 1206" stroke-miterlimit="10"/></g><g transform="translate(-150,-62) scale(1,1)"><g><path fill="none" stroke="none"/><text fill="#000000" stroke="none" font-family="Arial" font-size="13px" font-style="normal" font-weight="normal" text-decoration="none" x="979.6962890625" y="1185.5">«dataType»</text></g></g><g transform="translate(-150,-62) scale(1,1)"><g><path fill="none" stroke="none"/><text fill="#000000" stroke="none" font-family="Arial" font-size="13px" font-style="normal" font-weight="bold" text-decoration="none" x="978.1962890625" y="1200.5">ThreadEntry</text></g></g><g transform="translate(-150,-62) scale(1,1)"><g><path fill="none" stroke="none"/><text fill="#000000" stroke="none" font-family="Arial" font-size="13px" font-style="normal" font-weight="normal" text-decoration="none" x="973" y="1223.5">+stats</text></g></g><g transform="translate(-150,-62) scale(1,1)"><g><path fill="none" stroke="none"/><text fill="#000000" stroke="none" font-family="Arial" font-size="13px" font-style="normal" font-weight="normal" text-decoration="none" x="973" y="1238.5">+best</text></g></g><g transform="translate(-150,-62) scale(1,1)"><path fill="none" stroke="#000000" d="M 921 1343 L 987 1244" stroke-miterlimit="10"/></g><g transform="translate(-150,-62) scale(1,1)"><path fill="#000000" stroke="none" d="M 984.8652927502162 1254.7908769318217 L 987 1244 L 977.8602317743891 1250.1208362812704 L 974.796595683045 1262.3051064754325"/></g><g transform="translate(-150,-62) scale(1,1)"><path fill="none" stroke="#000000" d="M 984.8652927502162 1254.7908769318217 L 987 1244 L 977.8602317743891 1250.1208362812704 L 974.796595683045 1262.3051064754325 L 984.8652927502162 1254.7908769318217" stroke-miterlimit="10"/></g><g transform="translate(-150,-62) scale(1,1)"><path fill="none" stroke="#000000" d="M 1105 1335 L 1041 1244" stroke-miterlimit="10"/></g><g transform="translate(-150,-62) scale(1,1)"><path fill="#000000" stroke="none" d="M 1050.2895194691034 1249.8910803791111 L 1041 1244 L 1043.403059325983 1254.734305095152 L 1053.6559560891055 1261.995187564197"/></g><g transform="translate(-150,-62) scale(1,1)"><path fill="none" stroke="#000000" d="M 1050.2895194691034 1249.8910803791111 L 1041 1244 L 1043.403059325983 1254.734305095152 L 1053.6559560891055 1261.995187564197 L 1050.2895194691034 1249.8910803791111" stroke-miterlimit="10"/></g><g transform="translate(-150,-62) scale(1,1)"><path fill="none" stroke="#000000" d="M 1014 1097 L 1013 1167" stroke-miterlimit="10"/></g><g transform="translate(-150,-62) scale(1,1)"><path fill="none" stroke="#000000" d="M 1008.936077978144 1156.7782321587567 L 1013 1167 L 1017.3542545363899 1156.8984918238746" stroke-miterlimit="10"/></g><g transform="translate(-150,-62) scale(1,1)"><path fill="none" stroke="#000000" d="M 1057 855 L 1159 776" stroke-miterlimit="10"/></g><g transform="translate(-150,-62) scale(1,1)"><path fill="#FFFFFF" stroke="none" d="M 1148.085948328927 795.101923361828 L 1159 776 L 1137.7755005103097 781.7896995960182"/></g><g transform="translate(-150,-62) scale(1,1)"><path fill="none" stroke="#000000" d="M 1148.085948328927 795.101923361828 L 1159 776 L 1137.7755005103097 781.7896995960182 L 1148.085948328927 795.101923361828" stroke-miterlimit="10"/></g><g transform="translate(-150,-62) scale(1,1)"><path fill="none" stroke="#000000" d="M 1019 914 L 1016 975" stroke-miterlimit="10"/></g><g transform="translate(-150,-62) scale(1,1)"><path fill="none" stroke="#000000" d="M 1012.2947641548461 964.642817596866 L 1016 975 L 1020.7036365192382 965.0563686967542" stroke-miterlimit="10"/></g><g transform="translate(-150,-62) scale(1,1)"><path fill="none" stroke="#000000" d="M 1159 713 L 938 588" stroke-miterlimit="10"/></g><g transform="translate(-150,-62) scale(1,1)"><path fill="#000000" stroke="none" d="M 948.9181720258158 589.3392235118506 L 938 588 L 944.7733394508616 596.6672875043696 L 957.149154033739 598.8309694760967"/></g><g transform="translate(-150,-62) scale(1,1)"><path fill="none" stroke="#000000" d="M 948.9181720258158 589.3392235118506 L 938 588 L 944.7733394508616 596.6672875043696 L 957.149154033739 598.8309694760967 L 948.9181720258158 589.3392235118506" stroke-miterlimit="10"/></g><g transform="translate(-150,-62) scale(1,1)"><path fill="none" stroke="#000000" d="M 752 719 L 832 612" stroke-miterlimit="10"/></g><g transform="translate(-150,-62) scale(1,1)"><path fill="#000000" stroke="none" d="M 829.2859642034157 622.6599254075654 L 832 612 L 822.5431813412199 617.6185924264845 L 818.8263620666196 629.6197407358962"/></g><g transform="translate(-150,-62) scale(1,1)"><path fill="none" stroke="#000000" d="M 829.2859642034157 622.6599254075654 L 832 612 L 822.5431813412199 617.6185924264845 L 818.8263620666196 629.6197407358962 L 829.2859642034157 622.6599254075654" stroke-miterlimit="10"/></g><g transform="translate(-150,-62) scale(1,1)"><path fill="none" stroke="#000000" d="M 935 984 L 778 882" stroke-miterlimit="10"/></g><g transform="translate(-150,-62) scale(1,1)"><path fill="none" stroke="#000000" d="M 788.8154175912207 884.0066744448252 L 778 882 L 784.2287220125468 891.0665882276861" stroke-miterlimit="10"/></g><g transform="translate(-150,-62) scale(1,1)"><rect fill="#C0C0C0" stroke="none" x="1407" y="983" width="77.1865234375" height="44" opacity="0.2"/></g><g transform="translate(-150,-62) scale(1,1)"><rect fill="#ffffff" stroke="none" x="1400" y="976" width="77.1865234375" height="44"/></g><g transform="translate(-150,-62) scale(1,1)"><path fill="none" stroke="#000000" d="M 1400 976 L 1477.1865234375 976 L 1477.1865234375 1020 L 1400 1020 L 1400 976 Z Z" stroke-miterlimit="10"/></g><g transform="translate(-150,-62) scale(1,1)"><path fill="none" stroke="#000000" d="M 1400 1001 L 1477.1865234375 1001" stroke-miterlimit="10"/></g><g transform="translate(-150,-62) scale(1,1)"><path fill="none" stroke="#000000" d="M 1400 1011 L 1477.1865234375 1011" stroke-miterlimit="10"/></g><g transform="translate(-150,-62) scale(1,1)"><g><path fill="none" stroke="none"/><text fill="#000000" stroke="none" font-family="Arial" font-size="13px" font-style="normal" font-weight="bold" text-decoration="none" x="1409.09326171875" y="995.5">HistMaker</text></g></g><g transform="translate(-150,-62) scale(1,1)"><rect fill="#C0C0C0" stroke="none" x="1407" y="855" width="80.9951171875" height="44" opacity="0.2"/></g><g transform="translate(-150,-62) scale(1,1)"><rect fill="#ffffff" stroke="none" x="1400" y="848" width="80.9951171875" height="44"/></g><g transform="translate(-150,-62) scale(1,1)"><path fill="none" stroke="#000000" d="M 1400 848 L 1480.9951171875 848 L 1480.9951171875 892 L 1400 892 L 1400 848 Z Z" stroke-miterlimit="10"/></g><g transform="translate(-150,-62) scale(1,1)"><path fill="none" stroke="#000000" d="M 1400 873 L 1480.9951171875 873" stroke-miterlimit="10"/></g><g transform="translate(-150,-62) scale(1,1)"><path fill="none" stroke="#000000" d="M 1400 883 L 1480.9951171875 883" stroke-miterlimit="10"/></g><g transform="translate(-150,-62) scale(1,1)"><g><path fill="none" stroke="none"/><text fill="#000000" stroke="none" font-family="Arial" font-size="13px" font-style="normal" font-weight="bold" text-decoration="none" x="1407.49755859375" y="867.5">BaseMaker</text></g></g><g transform="translate(-150,-62) scale(1,1)"><rect fill="#C0C0C0" stroke="none" x="1399" y="1111" width="97.15625" height="44" opacity="0.2"/></g><g transform="translate(-150,-62) scale(1,1)"><rect fill="#ffffff" stroke="none" x="1392" y="1104" width="97.15625" height="44"/></g><g transform="translate(-150,-62) scale(1,1)"><path fill="none" stroke="#000000" d="M 1392 1104 L 1489.15625 1104 L 1489.15625 1148 L 1392 1148 L 1392 1104 Z Z" stroke-miterlimit="10"/></g><g transform="translate(-150,-62) scale(1,1)"><path fill="none" stroke="#000000" d="M 1392 1129 L 1489.15625 1129" stroke-miterlimit="10"/></g><g transform="translate(-150,-62) scale(1,1)"><path fill="none" stroke="#000000" d="M 1392 1139 L 1489.15625 1139" stroke-miterlimit="10"/></g><g transform="translate(-150,-62) scale(1,1)"><g><path fill="none" stroke="none"/><text fill="#000000" stroke="none" font-family="Arial" font-size="13px" font-style="normal" font-weight="bold" text-decoration="none" x="1401.578125" y="1123.5">CQHistMaker</text></g></g><g transform="translate(-150,-62) scale(1,1)"><rect fill="#C0C0C0" stroke="none" x="1359" y="1247" width="178.2158203125" height="44" opacity="0.2"/></g><g transform="translate(-150,-62) scale(1,1)"><rect fill="#ffffff" stroke="none" x="1352" y="1240" width="178.2158203125" height="44"/></g><g transform="translate(-150,-62) scale(1,1)"><path fill="none" stroke="#000000" d="M 1352 1240 L 1530.2158203125 1240 L 1530.2158203125 1284 L 1352 1284 L 1352 1240 Z Z" stroke-miterlimit="10"/></g><g transform="translate(-150,-62) scale(1,1)"><path fill="none" stroke="#000000" d="M 1352 1265 L 1530.2158203125 1265" stroke-miterlimit="10"/></g><g transform="translate(-150,-62) scale(1,1)"><path fill="none" stroke="#000000" d="M 1352 1275 L 1530.2158203125 1275" stroke-miterlimit="10"/></g><g transform="translate(-150,-62) scale(1,1)"><g><path fill="none" stroke="none"/><text fill="#000000" stroke="none" font-family="Arial" font-size="13px" font-style="normal" font-weight="bold" text-decoration="none" x="1367.60791015625" y="1259.5">GlobalProposalHistMaker</text></g></g><g transform="translate(-150,-62) scale(1,1)"><path fill="none" stroke="#000000" d="M 1399 847 L 1253 766" stroke-miterlimit="10"/></g><g transform="translate(-150,-62) scale(1,1)"><path fill="#FFFFFF" stroke="none" d="M 1274.8576546368308 768.4985863557283 L 1253 766 L 1266.6889284590209 783.2224631700523"/></g><g transform="translate(-150,-62) scale(1,1)"><path fill="none" stroke="#000000" d="M 1274.8576546368308 768.4985863557283 L 1253 766 L 1266.6889284590209 783.2224631700523 L 1274.8576546368308 768.4985863557283" stroke-miterlimit="10"/></g><g transform="translate(-150,-62) scale(1,1)"><path fill="none" stroke="#000000" d="M 1438 975 L 1440 893" stroke-miterlimit="10"/></g><g transform="translate(-150,-62) scale(1,1)"><path fill="#FFFFFF" stroke="none" d="M 1447.9209396052515 913.5245880779605 L 1440 893 L 1431.087874697256 913.1140255192289"/></g><g transform="translate(-150,-62) scale(1,1)"><path fill="none" stroke="#000000" d="M 1447.9209396052515 913.5245880779605 L 1440 893 L 1431.087874697256 913.1140255192289 L 1447.9209396052515 913.5245880779605" stroke-miterlimit="10"/></g><g transform="translate(-150,-62) scale(1,1)"><path fill="none" stroke="#000000" d="M 1440 1103 L 1438 1021" stroke-miterlimit="10"/></g><g transform="translate(-150,-62) scale(1,1)"><path fill="#FFFFFF" stroke="none" d="M 1446.912125302744 1041.1140255192288 L 1438 1021 L 1430.0790603947485 1041.5245880779605"/></g><g transform="translate(-150,-62) scale(1,1)"><path fill="none" stroke="#000000" d="M 1446.912125302744 1041.1140255192288 L 1438 1021 L 1430.0790603947485 1041.5245880779605 L 1446.912125302744 1041.1140255192288" stroke-miterlimit="10"/></g><g transform="translate(-150,-62) scale(1,1)"><path fill="none" stroke="#000000" d="M 1441 1239 L 1440 1149" stroke-miterlimit="10"/></g><g transform="translate(-150,-62) scale(1,1)"><path fill="#FFFFFF" stroke="none" d="M 1448.6443391463765 1169.2305561150063 L 1440 1149 L 1431.8073074131833 1169.4176342453752"/></g><g transform="translate(-150,-62) scale(1,1)"><path fill="none" stroke="#000000" d="M 1448.6443391463765 1169.2305561150063 L 1440 1149 L 1431.8073074131833 1169.4176342453752 L 1448.6443391463765 1169.2305561150063" stroke-miterlimit="10"/></g></g></svg>